<svg xmlns="http://www.w3.org/2000/svg" width="286" height="487" fill="none"><path fill="#4B5563" d="M3.828 5.398 1.727.758H.387l2.876 5.795L3.282 10h1.092l.019-3.447L7.268.758H5.935l-2.107 4.64Zm4.754 1.104v.14c0 .495.072.954.216 1.378.144.423.351.79.622 1.104.267.313.592.559.978.736.389.178.827.267 1.313.267a3.07 3.07 0 0 0 1.302-.267 2.88 2.88 0 0 0 .984-.736c.266-.313.471-.681.615-1.104.144-.424.216-.883.216-1.378v-.14c0-.495-.072-.954-.216-1.377a3.333 3.333 0 0 0-.615-1.11c-.271-.314-.601-.56-.99-.737a3.024 3.024 0 0 0-1.308-.273c-.483 0-.916.09-1.301.273a2.816 2.816 0 0 0-.978.736c-.27.313-.478.684-.622 1.111a4.253 4.253 0 0 0-.216 1.377Zm1.174.14v-.14c0-.334.04-.653.121-.958.08-.309.203-.58.368-.813.16-.232.362-.416.603-.552.241-.14.525-.21.85-.21.327 0 .61.07.851.21.246.136.451.32.616.552.16.233.282.504.362.813.085.305.127.624.127.958v.14c0 .339-.04.662-.12.971-.081.305-.202.574-.363.806-.165.233-.37.417-.615.553a1.696 1.696 0 0 1-.845.203c-.325 0-.611-.068-.857-.203a1.772 1.772 0 0 1-.609-.553 2.469 2.469 0 0 1-.368-.806 3.841 3.841 0 0 1-.12-.97ZM21.246 10h1.066V3.132h-1.18v4.926a1.91 1.91 0 0 1-.242.412 1.47 1.47 0 0 1-.33.318c-.152.11-.332.196-.54.26-.207.06-.442.089-.704.089-.224 0-.423-.03-.597-.09a.946.946 0 0 1-.431-.31 1.438 1.438 0 0 1-.267-.584 4.042 4.042 0 0 1-.089-.927V3.132h-1.174v4.081c0 .512.055.953.165 1.32.114.365.275.665.482.902.208.237.457.413.75.527.291.11.617.165.977.165.448 0 .844-.093 1.187-.28.343-.19.628-.454.857-.793l.07.946Zm7.782-6.995c-.5 0-.946.11-1.34.33-.389.216-.723.512-1.002.889l-.007-.172-.05-.92H25.51V10h1.18V5.595c.077-.212.172-.402.287-.572.118-.173.256-.32.412-.438.174-.135.377-.237.61-.304.232-.072.492-.108.78-.108.225 0 .438.013.641.038.208.021.426.057.654.108l.159-1.15a2.09 2.09 0 0 0-.533-.12 5.33 5.33 0 0 0-.673-.044Zm11.108 9.636h1.174V9.34c.085.093.176.18.273.26.098.076.202.146.312.21.181.101.385.18.609.234.228.055.474.083.736.083a2.41 2.41 0 0 0 1.15-.267c.338-.177.621-.423.85-.736.228-.313.402-.681.52-1.104.119-.428.178-.887.178-1.378V6.51c0-.512-.06-.982-.178-1.41a3.329 3.329 0 0 0-.52-1.11 2.416 2.416 0 0 0-.85-.724 2.526 2.526 0 0 0-1.169-.26c-.25 0-.484.027-.704.082-.216.051-.413.127-.59.229a2.172 2.172 0 0 0-.66.565l-.058-.75h-1.073v9.51Zm4.628-6.132v.133c0 .334-.038.654-.115.959a2.513 2.513 0 0 1-.336.806 1.755 1.755 0 0 1-.584.558 1.674 1.674 0 0 1-.844.203 1.758 1.758 0 0 1-1.01-.286 1.42 1.42 0 0 1-.317-.278 2.323 2.323 0 0 1-.248-.356V4.941c.081-.144.174-.275.28-.394.106-.118.226-.218.362-.298.122-.08.26-.142.412-.184A1.94 1.94 0 0 1 42.872 4c.33 0 .614.068.85.204.238.135.434.317.591.545.152.233.264.502.336.807.077.3.115.617.115.952Zm7.687-3.504c-.5 0-.946.11-1.34.33-.389.216-.723.512-1.003.889l-.006-.172-.05-.92h-1.118V10h1.18V5.595c.077-.212.172-.402.286-.572.119-.173.256-.32.413-.438.173-.135.377-.237.61-.304.232-.072.492-.108.78-.108.224 0 .438.013.641.038.208.021.425.057.654.108l.159-1.15a2.09 2.09 0 0 0-.533-.12 5.33 5.33 0 0 0-.673-.044Zm2.977 3.497v.14c0 .495.072.954.216 1.378.143.423.35.79.622 1.104.266.313.592.559.977.736.39.178.828.267 1.314.267a3.07 3.07 0 0 0 1.301-.267c.386-.177.714-.423.984-.736.267-.313.472-.681.616-1.104.144-.424.216-.883.216-1.378v-.14c0-.495-.072-.954-.216-1.377a3.333 3.333 0 0 0-.616-1.11c-.27-.314-.6-.56-.99-.737a3.025 3.025 0 0 0-1.308-.273c-.482 0-.916.09-1.3.273a2.816 2.816 0 0 0-.978.736c-.271.313-.479.684-.622 1.111a4.253 4.253 0 0 0-.216 1.377Zm1.174.14v-.14c0-.334.04-.653.12-.958.081-.309.204-.58.369-.813.16-.232.362-.416.603-.552.241-.14.525-.21.85-.21.326 0 .61.07.851.21.245.136.45.32.616.552.16.233.281.504.362.813.084.305.127.624.127.958v.14c0 .339-.04.662-.121.971-.08.305-.201.574-.362.806-.165.233-.37.417-.616.553a1.696 1.696 0 0 1-.844.203c-.326 0-.611-.068-.857-.203a1.773 1.773 0 0 1-.61-.553 2.469 2.469 0 0 1-.367-.806 3.841 3.841 0 0 1-.12-.97Zm7.757-3.51v1.022h2.291v5.89c0 .326-.042.6-.127.82a1.35 1.35 0 0 1-.336.539 1.21 1.21 0 0 1-.508.285c-.195.06-.402.09-.622.09-.06 0-.142-.003-.247-.007-.102 0-.208-.004-.318-.013a4.313 4.313 0 0 1-.336-.025 2.91 2.91 0 0 1-.273-.032l-.083.965c.106.017.208.032.305.044.097.017.195.03.292.038a9.91 9.91 0 0 0 .743.026c.423 0 .8-.061 1.13-.184.334-.119.617-.294.85-.527.229-.229.402-.512.52-.85.123-.34.185-.728.185-1.169V3.132h-3.466Zm2.126-1.81c0 .191.058.352.172.483.114.127.29.19.527.19.237 0 .414-.063.533-.19a.694.694 0 0 0 .177-.482c0-.19-.059-.351-.177-.483-.119-.135-.296-.203-.533-.203-.237 0-.413.068-.527.203a.709.709 0 0 0-.172.483Zm7.922 8.805c.669 0 1.23-.133 1.682-.4.457-.27.8-.58 1.029-.927l-.718-.558c-.215.279-.486.503-.812.673-.326.169-.698.253-1.117.253-.318 0-.608-.059-.87-.177a1.998 1.998 0 0 1-.673-.489 2.236 2.236 0 0 1-.431-.673 3.111 3.111 0 0 1-.197-.882v-.045h4.907v-.527c0-.478-.062-.922-.184-1.333-.119-.41-.301-.768-.546-1.072a2.526 2.526 0 0 0-.927-.705c-.368-.173-.8-.26-1.295-.26-.394 0-.779.08-1.155.241-.373.16-.705.392-.997.692a3.415 3.415 0 0 0-.71 1.117 3.906 3.906 0 0 0-.267 1.486v.266c0 .478.08.92.24 1.327.162.406.386.757.674 1.053.287.297.632.527 1.034.692.407.165.85.248 1.333.248Zm-.152-6.157a1.627 1.627 0 0 1 1.32.597c.144.177.256.389.337.634.08.241.12.468.12.68v.056h-3.694c.046-.317.127-.596.241-.837a2.26 2.26 0 0 1 .432-.622c.169-.165.36-.29.571-.375a1.72 1.72 0 0 1 .673-.133Zm7.852 5.205c-.368 0-.677-.072-.927-.216a1.753 1.753 0 0 1-.59-.578 2.424 2.424 0 0 1-.33-.787 4.258 4.258 0 0 1-.095-.895v-.266c0-.297.031-.59.095-.883.067-.292.177-.556.33-.793.152-.233.351-.421.596-.565.25-.148.557-.222.92-.222.238 0 .458.04.661.12.207.08.385.19.533.33.148.14.265.303.35.49.088.181.135.376.14.583h1.11c0-.347-.07-.673-.21-.977a2.442 2.442 0 0 0-.577-.794 2.798 2.798 0 0 0-.889-.52 3.067 3.067 0 0 0-1.117-.197c-.52 0-.975.093-1.365.28-.39.185-.713.435-.971.748-.262.318-.46.684-.59 1.098a4.288 4.288 0 0 0-.197 1.302v.266c0 .457.066.893.197 1.308.13.41.328.772.59 1.085.258.318.582.57.971.756.39.186.844.279 1.365.279.364 0 .713-.061 1.047-.184a3.16 3.16 0 0 0 .889-.508c.258-.207.463-.449.616-.724a1.82 1.82 0 0 0 .24-.876h-1.11c-.004.19-.055.369-.152.534-.093.16-.218.3-.375.419a1.778 1.778 0 0 1-.54.285 1.898 1.898 0 0 1-.615.102Zm7.662-7.706h-1.181v1.663h-1.803v.908h1.803v3.732c0 .423.055.785.165 1.085.114.297.269.538.463.724.195.19.424.33.686.419.266.085.552.127.857.127a5.9 5.9 0 0 0 .546-.025c.186-.017.361-.043.526-.077.166-.03.318-.065.458-.108.14-.046.258-.099.355-.158l-.165-.832-.28.064c-.11.02-.228.042-.355.063-.13.021-.264.04-.4.057a4.22 4.22 0 0 1-.393.02 1.89 1.89 0 0 1-.495-.064 1.018 1.018 0 0 1-.686-.635 1.834 1.834 0 0 1-.101-.66V4.04h2.615v-.908h-2.615V1.469ZM146.519 53.332a1 1 0 0 0 1.414-.027l6.242-6.483a1 1 0 1 0-1.441-1.387l-5.548 5.763-5.763-5.549a1 1 0 1 0-1.387 1.44l6.483 6.243Zm.594-5.969-1 .02 1-.02ZM103.973 7.88a41.27 41.27 0 0 1 1.01-.034l-.043-2c-.351.008-.704.02-1.058.036l.091 1.998Zm3.022-.027c.674.019 1.344.055 2.01.107l.155-1.994a42.436 42.436 0 0 0-2.108-.112l-.057 1.999Zm4.011.313c.668.086 1.331.188 1.988.307l.355-1.969a42.23 42.23 0 0 0-2.088-.322l-.255 1.984Zm3.959.713c.655.152 1.304.32 1.947.504l.55-1.923a41.91 41.91 0 0 0-2.044-.53l-.453 1.949Zm3.867 1.106c.636.217 1.265.45 1.887.698l.74-1.858a41.689 41.689 0 0 0-1.981-.732l-.646 1.892Zm3.736 1.49c.611.28 1.214.574 1.808.883l.923-1.774a42.428 42.428 0 0 0-1.898-.928l-.833 1.819Zm3.57 1.856c.579.339 1.15.692 1.711 1.06l1.095-1.675a42.815 42.815 0 0 0-1.796-1.111l-1.01 1.726Zm3.367 2.202c.543.395 1.075.804 1.597 1.225l1.256-1.557a43.06 43.06 0 0 0-1.676-1.285l-1.177 1.617Zm3.132 2.526c.501.447.99.906 1.468 1.377l1.404-1.425a42.465 42.465 0 0 0-1.541-1.444l-1.331 1.492Zm2.867 2.825c.453.493.895.998 1.324 1.515l1.538-1.279a42.352 42.352 0 0 0-1.39-1.59l-1.472 1.354Zm2.572 3.094a39.83 39.83 0 0 1 1.167 1.639l1.658-1.12a42.163 42.163 0 0 0-1.226-1.72l-1.599 1.2Zm2.252 3.334c.347.573.679 1.155.998 1.747l1.761-.949a42.8 42.8 0 0 0-1.048-1.834l-1.711 1.036Zm1.907 3.541c.288.605.561 1.218.818 1.838l1.847-.766a42.063 42.063 0 0 0-.858-1.93l-1.807.858Zm1.543 3.715c.225.63.435 1.267.629 1.911l1.915-.577a41.253 41.253 0 0 0-.661-2.007l-1.883.673Zm1.161 3.851c.161.649.306 1.304.435 1.965l1.963-.383a43.679 43.679 0 0 0-.456-2.062l-1.942.48Zm.77 3.948c.095.661.173 1.328.236 1.999l1.991-.186a42.445 42.445 0 0 0-.247-2.096l-1.98.283Zm.373 4.007c.014.335.025.672.031 1.01l2-.039a46.348 46.348 0 0 0-.033-1.058l-1.998.087Zm.031 1.01.025 1.311 2-.038-.025-1.312-2 .038Zm.075 3.936.025 1.312 1.999-.038-.025-1.312-1.999.038Z"/><g clip-path="url(#a)"><rect width="32" height="38" x="138" y="74" fill="#1F2937" rx="4"/><path fill="#9CA3AF" d="M159.75 89.662h-5.609l-1.833-1.753a.129.129 0 0 0-.086-.034h-3.972a.5.5 0 0 0-.5.5v9.25a.5.5 0 0 0 .5.5h11.5a.5.5 0 0 0 .5-.5v-7.463a.5.5 0 0 0-.5-.5ZM159.125 97h-10.25v-8h2.945l1.869 1.787h5.436V97ZM181.514 97.238c0 .246.076.455.229.629.156.169.387.254.692.254.3 0 .531-.085.691-.254a.877.877 0 0 0 .242-.629.908.908 0 0 0-.242-.64c-.156-.179-.387-.267-.691-.267-.309 0-.54.088-.692.266a.95.95 0 0 0-.229.641Zm8.69-.063c-.368 0-.677-.072-.927-.216a1.754 1.754 0 0 1-.59-.578 2.436 2.436 0 0 1-.33-.787 4.225 4.225 0 0 1-.095-.895v-.266c0-.297.031-.59.095-.883.068-.292.178-.556.33-.793.152-.233.351-.421.597-.565.249-.148.556-.222.92-.222.237 0 .457.04.66.12.208.08.385.19.533.33.149.14.265.303.35.49.088.181.135.376.139.583h1.111c0-.347-.07-.673-.209-.977a2.454 2.454 0 0 0-.578-.794 2.799 2.799 0 0 0-.889-.52 3.065 3.065 0 0 0-1.117-.197c-.52 0-.975.093-1.365.28a2.81 2.81 0 0 0-.971.748 3.238 3.238 0 0 0-.59 1.098 4.295 4.295 0 0 0-.197 1.302v.266c0 .457.066.893.197 1.308.131.41.328.772.59 1.085.258.318.582.57.971.756.39.186.845.279 1.365.279.364 0 .713-.061 1.047-.184.335-.127.631-.296.889-.508a2.44 2.44 0 0 0 .616-.724c.156-.279.237-.57.241-.876h-1.111c-.004.19-.055.369-.152.534-.093.16-.218.3-.375.419a1.77 1.77 0 0 1-.539.285 1.896 1.896 0 0 1-.616.102Zm5.066-6.043v1.022h2.335v4.83h-2.335V98h5.751v-1.016h-2.241v-5.852h-3.51Zm2.183-1.803c0 .19.057.35.172.476.118.127.296.19.533.19.232 0 .408-.063.527-.19a.673.673 0 0 0 .177-.476.833.833 0 0 0-.05-.292.55.55 0 0 0-.153-.222.548.548 0 0 0-.209-.127.782.782 0 0 0-.292-.05c-.11 0-.21.016-.299.05a.59.59 0 0 0-.361.355.887.887 0 0 0-.045.286Zm9.941 1.676c-.5 0-.946.11-1.34.33a3.143 3.143 0 0 0-1.003.889l-.006-.172-.051-.92h-1.117V98h1.181v-4.405c.076-.212.171-.402.285-.572a1.86 1.86 0 0 1 .413-.438c.173-.135.376-.236.609-.304.233-.072.493-.108.781-.108.224 0 .438.013.641.038.207.021.425.057.654.108l.159-1.15a2.1 2.1 0 0 0-.534-.12 5.324 5.324 0 0 0-.672-.044Zm6.233 6.17c-.368 0-.677-.072-.927-.216a1.754 1.754 0 0 1-.59-.578 2.415 2.415 0 0 1-.33-.787 4.225 4.225 0 0 1-.095-.895v-.266c0-.297.031-.59.095-.883a2.49 2.49 0 0 1 .33-.793c.152-.233.351-.421.597-.565.249-.148.556-.222.92-.222.237 0 .457.04.66.12.207.08.385.19.533.33.148.14.265.303.349.49.089.181.136.376.14.583h1.111c0-.347-.07-.673-.21-.977a2.437 2.437 0 0 0-.577-.794 2.799 2.799 0 0 0-.889-.52 3.065 3.065 0 0 0-1.117-.197c-.521 0-.975.093-1.365.28a2.81 2.81 0 0 0-.971.748 3.238 3.238 0 0 0-.59 1.098 4.264 4.264 0 0 0-.197 1.302v.266c0 .457.065.893.197 1.308.131.41.328.772.59 1.085.258.318.582.57.971.756.39.186.844.279 1.365.279.364 0 .713-.061 1.047-.184.335-.127.631-.296.889-.508.258-.207.463-.448.616-.724.156-.279.237-.57.241-.876h-1.111c-.004.19-.055.369-.152.534-.093.16-.218.3-.375.419a1.77 1.77 0 0 1-.539.285 1.896 1.896 0 0 1-.616.102Zm5.065-8.925v1.022h2.336v7.712h-2.336V98h5.751v-1.016h-2.24V88.25h-3.511Zm10.658 9.877c.669 0 1.229-.133 1.682-.4.457-.27.8-.58 1.029-.927l-.718-.558c-.216.279-.486.503-.812.673-.326.169-.698.253-1.117.253-.318 0-.608-.059-.87-.177a2 2 0 0 1-.673-.489 2.24 2.24 0 0 1-.432-.673 3.112 3.112 0 0 1-.196-.882v-.045h4.906v-.526c0-.479-.061-.923-.184-1.334a3.01 3.01 0 0 0-.546-1.072 2.524 2.524 0 0 0-.926-.705c-.368-.173-.8-.26-1.295-.26-.394 0-.779.08-1.156.241-.372.16-.704.392-.996.692a3.423 3.423 0 0 0-.711 1.117 3.9 3.9 0 0 0-.267 1.485v.267c0 .478.081.92.242 1.327a3.028 3.028 0 0 0 1.707 1.746 3.51 3.51 0 0 0 1.333.247Zm-.152-6.157a1.629 1.629 0 0 1 1.32.597c.144.177.256.389.336.634.081.241.121.468.121.68v.056h-3.694c.046-.317.127-.596.241-.837.118-.246.262-.453.432-.622a1.73 1.73 0 0 1 .571-.375 1.72 1.72 0 0 1 .673-.133Zm7.852 5.205c-.368 0-.677-.072-.927-.216a1.754 1.754 0 0 1-.59-.578 2.393 2.393 0 0 1-.33-.787 4.226 4.226 0 0 1-.096-.895v-.266c0-.297.032-.59.096-.883.067-.292.177-.556.33-.793.152-.233.351-.421.596-.565.25-.148.557-.222.921-.222.237 0 .457.04.66.12.207.08.385.19.533.33.148.14.265.303.349.49.089.181.136.376.14.583h1.111c0-.347-.07-.673-.21-.977a2.437 2.437 0 0 0-.577-.794 2.799 2.799 0 0 0-.889-.52 3.069 3.069 0 0 0-1.117-.197c-.521 0-.976.093-1.365.28a2.81 2.81 0 0 0-.971.748 3.22 3.22 0 0 0-.59 1.098 4.264 4.264 0 0 0-.197 1.302v.266c0 .457.065.893.197 1.308.131.41.327.772.59 1.085.258.318.582.57.971.756.389.186.844.279 1.365.279.364 0 .713-.061 1.047-.184.334-.127.631-.296.889-.508.258-.207.463-.448.616-.724.156-.279.237-.57.241-.876h-1.111c-.004.19-.055.369-.152.534-.094.16-.218.3-.375.419a1.77 1.77 0 0 1-.539.285 1.9 1.9 0 0 1-.616.102Zm5.065-6.043v1.022h2.336v4.83h-2.336V98h5.751v-1.016h-2.241v-5.852h-3.51Zm2.184-1.803c0 .19.057.35.171.476.119.127.296.19.533.19.233 0 .409-.063.527-.19a.669.669 0 0 0 .178-.476.81.81 0 0 0-.051-.292.548.548 0 0 0-.152-.222.545.545 0 0 0-.21-.127.779.779 0 0 0-.292-.05.83.83 0 0 0-.298.05.603.603 0 0 0-.362.355.915.915 0 0 0-.044.286Z"/></g><path stroke="#4B5563" stroke-dasharray="1 1" d="M153.5 116v10"/><g clip-path="url(#b)"><path fill="#881337" fill-opacity=".2" d="M132.5 130.5h39v40h-39z"/><path fill="#9F1239" d="M158.5 149.438h-1.688v-1.776a.5.5 0 0 0-.5-.5h-4.921l-1.833-1.753a.131.131 0 0 0-.086-.034H145.5c-.277 0-.5.223-.5.5v9.25c0 .277.223.5.5.5h10.906a.5.5 0 0 0 .464-.313l2.094-5.187a.499.499 0 0 0-.464-.687Zm-12.375-2.938h2.945l1.869 1.787h4.749v1.151h-7.969a.5.5 0 0 0-.464.312l-1.13 2.8v-6.05Zm9.927 8h-9.568l1.614-4h9.569l-1.615 4Z"/><path stroke="#E11D48" d="M132.5 130.5h39v40h-39z"/><path fill="#881337" fill-opacity=".5" d="M172 130h73v41h-73z"/><g filter="url(#c)"><path fill="#fff" d="M185.1 153.844V156h2.198v-2.156H185.1Zm8.95-1.484c0 .299-.028.588-.084.868-.056.28-.149.532-.28.756-.13.215-.308.387-.532.518-.214.131-.485.196-.812.196-.308 0-.574-.065-.798-.196a1.987 1.987 0 0 1-.546-.532 2.493 2.493 0 0 1-.308-.756 3.705 3.705 0 0 1-.098-.84c0-.299.028-.583.084-.854.066-.28.164-.527.294-.742.14-.215.322-.387.546-.518.224-.131.5-.196.826-.196.327 0 .598.065.812.196.215.131.388.303.518.518.14.205.238.448.294.728.056.271.084.555.084.854Zm.028 2.716V156h1.89v-9.996h-1.988v3.64h-.028a2.078 2.078 0 0 0-.924-.798 2.734 2.734 0 0 0-1.218-.28c-.532 0-.998.107-1.4.322a3.004 3.004 0 0 0-1.008.826 3.842 3.842 0 0 0-.602 1.204 5 5 0 0 0-.196 1.4c0 .504.066.989.196 1.456.14.467.341.882.602 1.246.271.355.612.639 1.022.854.411.205.887.308 1.428.308.476 0 .901-.084 1.274-.252a2.08 2.08 0 0 0 .924-.854h.028Zm8.265-3.472h-3.234c.009-.14.037-.299.084-.476.056-.177.145-.345.266-.504.131-.159.299-.289.504-.392.215-.112.481-.168.798-.168.485 0 .845.131 1.078.392.243.261.411.644.504 1.148Zm-3.234 1.26h5.222a5.109 5.109 0 0 0-.14-1.61 3.871 3.871 0 0 0-.644-1.372 3.086 3.086 0 0 0-1.12-.952c-.457-.243-.994-.364-1.61-.364-.551 0-1.055.098-1.512.294a3.535 3.535 0 0 0-1.162.812 3.461 3.461 0 0 0-.756 1.204 4.231 4.231 0 0 0-.266 1.512c0 .56.084 1.073.252 1.54.177.467.425.868.742 1.204.317.336.705.597 1.162.784.457.177.971.266 1.54.266.821 0 1.521-.187 2.1-.56.579-.373 1.008-.994 1.288-1.862h-1.75c-.065.224-.243.439-.532.644-.289.196-.635.294-1.036.294-.56 0-.989-.145-1.288-.434-.299-.289-.462-.756-.49-1.4Zm7.941.784h-1.89c.019.485.126.891.322 1.218.205.317.462.574.77.77.317.196.677.336 1.078.42a5.995 5.995 0 0 0 2.436 0c.401-.075.756-.21 1.064-.406a2.26 2.26 0 0 0 .742-.77c.196-.327.294-.728.294-1.204 0-.336-.065-.616-.196-.84a1.702 1.702 0 0 0-.518-.574 2.632 2.632 0 0 0-.742-.378 7.984 7.984 0 0 0-.84-.238c-.28-.065-.555-.126-.826-.182a8.394 8.394 0 0 1-.728-.182 1.63 1.63 0 0 1-.504-.28.545.545 0 0 1-.196-.434c0-.149.037-.266.112-.35a.726.726 0 0 1 .266-.21c.112-.047.233-.075.364-.084a2.54 2.54 0 0 1 .364-.028c.355 0 .663.07.924.21.261.131.406.387.434.77h1.89c-.037-.448-.154-.817-.35-1.106a2.175 2.175 0 0 0-.714-.714 3.032 3.032 0 0 0-.994-.378 5.606 5.606 0 0 0-1.134-.112c-.392 0-.775.037-1.148.112a2.957 2.957 0 0 0-1.008.364 2.008 2.008 0 0 0-.728.7c-.177.299-.266.681-.266 1.148 0 .317.065.588.196.812.131.215.303.397.518.546.215.14.457.257.728.35.28.084.565.159.854.224.709.149 1.26.299 1.652.448.401.149.602.373.602.672a.768.768 0 0 1-.126.448 1.044 1.044 0 0 1-.322.28 1.698 1.698 0 0 1-.42.154 2.351 2.351 0 0 1-1.008-.028 1.592 1.592 0 0 1-.476-.21 1.358 1.358 0 0 1-.35-.378 1.18 1.18 0 0 1-.126-.56Zm8.023-6.006v-1.638h-1.988v1.638h1.988Zm-1.988 1.12V156h1.988v-7.238h-1.988Zm6.928 5.53c-.308 0-.565-.065-.77-.196a1.616 1.616 0 0 1-.504-.504 2.312 2.312 0 0 1-.266-.686 4.42 4.42 0 0 1-.07-.784c0-.271.028-.527.084-.77a2.01 2.01 0 0 1 .294-.658c.14-.196.308-.35.504-.462.205-.112.448-.168.728-.168.326 0 .597.061.812.182.214.121.387.285.518.49.13.205.224.443.28.714a4 4 0 0 1 .084.84c0 .261-.038.513-.112.756a1.907 1.907 0 0 1-.308.63c-.14.187-.318.336-.532.448a1.582 1.582 0 0 1-.742.168Zm3.584 1.246v-6.776h-1.89v.966h-.028c-.243-.42-.546-.719-.91-.896-.355-.177-.77-.266-1.246-.266-.504 0-.952.098-1.344.294a2.854 2.854 0 0 0-.966.798 3.527 3.527 0 0 0-.602 1.148 4.576 4.576 0 0 0-.196 1.344c0 .495.056.966.168 1.414.121.439.308.826.56 1.162.252.327.574.588.966.784.392.187.858.28 1.4.28.438 0 .854-.089 1.246-.266.401-.187.709-.471.924-.854h.028v.952c.009.513-.117.938-.378 1.274-.252.336-.658.504-1.218.504a1.91 1.91 0 0 1-.938-.224c-.271-.14-.453-.397-.546-.77h-1.974c.028.411.14.761.336 1.05.205.299.457.541.756.728.308.187.644.322 1.008.406.373.093.737.14 1.092.14.83 0 1.493-.112 1.988-.336.494-.224.872-.499 1.134-.826.261-.317.429-.663.504-1.036a4.59 4.59 0 0 0 .126-.994Zm1.6-6.776V156h1.988v-3.794c0-.737.122-1.265.364-1.582.243-.327.635-.49 1.176-.49.476 0 .808.149.994.448.187.289.28.733.28 1.33V156h1.988v-4.452c0-.448-.042-.854-.126-1.218a2.202 2.202 0 0 0-.406-.938 1.859 1.859 0 0 0-.812-.602c-.336-.149-.77-.224-1.302-.224-.42 0-.83.098-1.232.294a2.24 2.24 0 0 0-.98.91h-.042v-1.008h-1.89Z"/></g></g><rect width="112" height="40" x="132.5" y="130.5" stroke="#E11D48" rx="3.5"/><path stroke="#4B5563" stroke-dasharray="1 1" d="M153.5 175v10"/><g clip-path="url(#d)"><rect width="32" height="38" x="138" y="189" fill="#1F2937" rx="4"/><path fill="#9CA3AF" d="M159.75 204.662h-5.609l-1.833-1.753a.131.131 0 0 0-.086-.034h-3.972c-.277 0-.5.223-.5.5v9.25c0 .277.223.5.5.5h11.5c.277 0 .5-.223.5-.5v-7.463a.5.5 0 0 0-.5-.5Zm-.625 7.338h-10.25v-8h2.945l1.869 1.787h5.436V212ZM181.322 212.238c0 .246.076.455.228.629.157.169.388.254.692.254.301 0 .531-.085.692-.254a.878.878 0 0 0 .241-.629.907.907 0 0 0-.241-.641c-.156-.178-.387-.266-.692-.266-.309 0-.539.088-.692.266a.955.955 0 0 0-.228.641Zm5.548-2.729v.133c0 .491.063.95.19 1.378.127.423.309.791.546 1.104.233.313.518.559.857.736.338.178.717.267 1.136.267.25 0 .483-.028.698-.083.216-.05.413-.124.591-.222.114-.063.22-.137.317-.222.102-.085.197-.178.286-.279v.59c0 .296-.043.559-.127.787a1.523 1.523 0 0 1-.362.572 1.579 1.579 0 0 1-.578.355c-.224.08-.476.121-.755.121a2.21 2.21 0 0 1-.47-.051 2.062 2.062 0 0 1-.47-.153 2.172 2.172 0 0 1-.463-.292 2.855 2.855 0 0 1-.444-.438l-.61.705c.157.224.343.413.559.565.22.152.449.273.686.362.232.093.463.159.691.197a3.486 3.486 0 0 0 1.79-.127c.356-.127.663-.313.921-.559a2.51 2.51 0 0 0 .59-.895c.144-.351.216-.753.216-1.206v-6.722h-1.066l-.057.749a2.314 2.314 0 0 0-.261-.279 1.828 1.828 0 0 0-.285-.223 2.215 2.215 0 0 0-.629-.279 2.832 2.832 0 0 0-.755-.095c-.428 0-.811.087-1.149.26a2.535 2.535 0 0 0-.863.724 3.363 3.363 0 0 0-.546 1.111 5.08 5.08 0 0 0-.184 1.409Zm1.174.133v-.133c0-.335.034-.652.102-.952.071-.305.184-.574.336-.807.148-.228.338-.41.571-.545.237-.136.521-.204.851-.204.194 0 .372.026.533.077.161.046.307.112.438.196.131.089.248.193.349.311.102.119.191.25.267.394v3.148a2.2 2.2 0 0 1-.267.407 1.744 1.744 0 0 1-.343.317 1.653 1.653 0 0 1-.444.21 1.988 1.988 0 0 1-.546.069c-.326 0-.605-.065-.838-.196a1.685 1.685 0 0 1-.571-.546 2.43 2.43 0 0 1-.336-.794 4.301 4.301 0 0 1-.102-.952Zm7.033-3.51v1.022h2.336v4.83h-2.336V213h5.751v-1.016h-2.241v-5.852h-3.51Zm2.184-1.803c0 .191.057.349.171.476.119.127.296.191.533.191.233 0 .409-.064.527-.191a.668.668 0 0 0 .178-.476.81.81 0 0 0-.051-.292.544.544 0 0 0-.152-.222.55.55 0 0 0-.21-.127.777.777 0 0 0-.292-.051.828.828 0 0 0-.298.051.604.604 0 0 0-.362.355.92.92 0 0 0-.044.286Zm8.22.14H204.3v1.663h-1.802v.908h1.802v3.732c0 .423.055.785.165 1.085.115.297.269.538.464.724.194.19.423.33.685.419.267.085.553.127.857.127.182 0 .364-.009.546-.025.186-.017.362-.043.527-.077.165-.029.317-.065.457-.108.14-.046.258-.099.355-.158l-.165-.832-.279.064a12.415 12.415 0 0 1-.755.12 4.133 4.133 0 0 1-.394.019c-.173 0-.338-.021-.495-.063a.999.999 0 0 1-.406-.222 1.007 1.007 0 0 1-.279-.413 1.823 1.823 0 0 1-.102-.66v-3.732h2.615v-.908h-2.615v-1.663Zm6.202 2.685v-3.904h-1.175V213h1.175v-4.989a2.174 2.174 0 0 1 .641-.667 1.975 1.975 0 0 1 1.13-.343 1.83 1.83 0 0 1 .685.108c.199.072.364.182.495.33.123.136.216.307.28.515.063.203.095.44.095.711V213h1.174v-4.323c0-.461-.057-.859-.171-1.193a2.186 2.186 0 0 0-.476-.838 1.842 1.842 0 0 0-.756-.482 2.848 2.848 0 0 0-1.758-.039 2.34 2.34 0 0 0-.667.337 2.481 2.481 0 0 0-.361.311 2.414 2.414 0 0 0-.311.381ZM222.842 213h1.066v-6.868h-1.18v4.926a1.912 1.912 0 0 1-.242.412 1.465 1.465 0 0 1-.33.318c-.152.11-.332.196-.539.26a2.584 2.584 0 0 1-.705.089c-.224 0-.423-.03-.597-.089a.942.942 0 0 1-.431-.311 1.433 1.433 0 0 1-.267-.584 4.06 4.06 0 0 1-.089-.927v-4.094h-1.174v4.081c0 .512.055.953.165 1.321.114.364.275.664.482.901.208.237.457.413.749.527.292.11.618.165.978.165a2.45 2.45 0 0 0 1.187-.279 2.48 2.48 0 0 0 .857-.794l.07.946Zm9.102-3.358v-.133c0-.36-.029-.701-.089-1.022a4.132 4.132 0 0 0-.26-.889 3.49 3.49 0 0 0-.381-.641 2.34 2.34 0 0 0-.488-.495 2.511 2.511 0 0 0-1.498-.457 2.94 2.94 0 0 0-.661.07 2.086 2.086 0 0 0-.939.463 2.153 2.153 0 0 0-.324.33v-3.618h-1.174V213h1.079l.057-.781a2.491 2.491 0 0 0 .508.489c.195.135.413.239.654.311.245.072.516.108.812.108.258 0 .497-.032.718-.095.224-.064.429-.153.615-.267.258-.165.478-.372.66-.622.187-.254.337-.539.451-.857.085-.241.148-.499.191-.774a5.35 5.35 0 0 0 .069-.87Zm-1.174-.133v.133c0 .203-.013.402-.038.597a3.028 3.028 0 0 1-.121.546 2.445 2.445 0 0 1-.273.609 1.553 1.553 0 0 1-.425.451 1.483 1.483 0 0 1-.432.216c-.16.046-.338.069-.533.069-.203 0-.389-.025-.558-.076a1.643 1.643 0 0 1-.457-.228 1.965 1.965 0 0 1-.362-.337 2.536 2.536 0 0 1-.267-.425v-3.002a2.12 2.12 0 0 1 .26-.419c.106-.132.227-.246.362-.343a1.797 1.797 0 0 1 1.01-.299 1.9 1.9 0 0 1 .507.064c.153.042.29.102.413.178.178.105.328.251.451.438.122.186.222.391.298.615.055.182.095.377.121.584.029.203.044.413.044.629Z"/></g><path stroke="#4B5563" stroke-dasharray="1 1" d="M153.5 231v10"/><g clip-path="url(#e)"><rect width="32" height="38" x="138" y="245" fill="#1F2937" rx="4"/><path fill="#9CA3AF" d="M159.75 260.662h-5.609l-1.833-1.753a.131.131 0 0 0-.086-.034h-3.972c-.277 0-.5.223-.5.5v9.25c0 .277.223.5.5.5h11.5c.277 0 .5-.223.5-.5v-7.463a.5.5 0 0 0-.5-.5Zm-.625 7.338h-10.25v-8h2.945l1.869 1.787h5.436V268ZM183.906 269h1.225v-.102a3.21 3.21 0 0 1-.177-.666 4.453 4.453 0 0 1-.064-.73v-3.193c0-.385-.07-.721-.209-1.009a2.087 2.087 0 0 0-.572-.724 2.493 2.493 0 0 0-.869-.425 3.885 3.885 0 0 0-1.086-.146c-.427 0-.81.059-1.149.178a2.816 2.816 0 0 0-.85.463 2.143 2.143 0 0 0-.546.654 1.676 1.676 0 0 0-.191.736h1.181c0-.144.034-.281.102-.412.072-.136.171-.252.298-.35.127-.097.281-.175.463-.234.187-.06.396-.089.629-.089.249 0 .474.031.673.095.203.063.374.152.514.266.139.119.247.261.324.426.076.165.114.351.114.558v.54h-1.282c-.479 0-.912.046-1.302.14a2.994 2.994 0 0 0-.99.419c-.275.19-.489.427-.641.71a2.114 2.114 0 0 0-.222.991c0 .287.055.556.165.806.114.245.275.457.482.635.203.182.451.325.743.431.296.106.626.159.99.159.224 0 .436-.023.635-.07a2.81 2.81 0 0 0 1.041-.47c.148-.105.281-.218.4-.336.013.144.032.284.057.419.03.131.068.241.114.33Zm-2.075-.895c-.229 0-.43-.03-.603-.089a1.195 1.195 0 0 1-.432-.247.995.995 0 0 1-.26-.369 1.299 1.299 0 0 1-.083-.469c0-.178.032-.337.095-.476.068-.14.165-.261.292-.362.178-.144.417-.25.718-.318.304-.072.66-.108 1.066-.108h1.092v1.391a1.712 1.712 0 0 1-.279.393 2.078 2.078 0 0 1-.419.33 2.4 2.4 0 0 1-.546.235 2.247 2.247 0 0 1-.641.089Zm5.363 3.536h1.175v-3.301c.084.093.175.18.273.26.097.076.201.146.311.21.182.101.385.179.609.234.229.055.474.083.736.083a2.406 2.406 0 0 0 2-1.003c.228-.313.402-.681.52-1.104.119-.428.178-.887.178-1.378v-.133a5.24 5.24 0 0 0-.178-1.409 3.328 3.328 0 0 0-.52-1.111 2.423 2.423 0 0 0-.851-.724 2.53 2.53 0 0 0-1.168-.26c-.249 0-.484.027-.704.082a2.196 2.196 0 0 0-.591.229 2.194 2.194 0 0 0-.66.565l-.057-.749h-1.073v9.509Zm4.628-6.132v.133c0 .334-.038.654-.114.959a2.53 2.53 0 0 1-.337.806 1.75 1.75 0 0 1-.584.558 1.666 1.666 0 0 1-.844.203c-.203 0-.389-.025-.559-.076a1.718 1.718 0 0 1-.45-.209 1.405 1.405 0 0 1-.318-.279 2.378 2.378 0 0 1-.247-.356v-3.307c.08-.144.173-.275.279-.394.106-.118.226-.218.362-.298.122-.08.26-.142.412-.184.157-.042.326-.064.508-.064.33 0 .614.068.851.204.237.135.434.317.59.545.152.233.265.502.337.807.076.3.114.617.114.952Zm3.37-3.377v1.022h2.336v4.83h-2.336V269h5.751v-1.016h-2.24v-5.852h-3.511Zm2.184-1.803c0 .191.057.349.171.476.119.127.297.191.534.191.232 0 .408-.064.526-.191a.668.668 0 0 0 .178-.476.81.81 0 0 0-.051-.292.535.535 0 0 0-.152-.222.553.553 0 0 0-.209-.127.78.78 0 0 0-.292-.051c-.11 0-.21.017-.299.051a.604.604 0 0 0-.362.355.92.92 0 0 0-.044.286Z"/></g><path stroke="#4B5563" stroke-dasharray="1 1" d="M153.5 287v10M153.5 301v10"/><g clip-path="url(#f)"><rect width="32" height="38" x="138" y="315" fill="#1F2937" rx="4"/><path fill="#9CA3AF" d="M159.75 330.662h-5.609l-1.833-1.753a.131.131 0 0 0-.086-.034h-3.972c-.277 0-.5.223-.5.5v9.25c0 .277.223.5.5.5h11.5c.277 0 .5-.223.5-.5v-7.463a.5.5 0 0 0-.5-.5Zm-.625 7.338h-10.25v-8h2.945l1.869 1.787h5.436V338ZM181.126 339h1.181v-5.96h2.647v-.908h-2.647v-.483c0-.287.036-.539.108-.755.076-.216.186-.391.33-.527.135-.131.304-.228.507-.292.208-.068.445-.101.711-.101.263 0 .508.023.737.069.232.043.436.094.609.153l.14-.971a5.39 5.39 0 0 0-.324-.077 6.057 6.057 0 0 0-.806-.139 3.968 3.968 0 0 0-.502-.032c-.406 0-.774.057-1.104.171-.33.115-.612.284-.844.508a2.302 2.302 0 0 0-.553.838c-.127.33-.19.715-.19 1.155v.483h-1.892v.908h1.892V339Zm10.556-6.995c-.499 0-.946.11-1.339.33a3.12 3.12 0 0 0-1.003.889l-.007-.172-.05-.92h-1.117V339h1.18v-4.405c.076-.212.172-.402.286-.572.118-.173.256-.319.412-.438.174-.135.377-.237.61-.304.233-.072.493-.108.781-.108.224 0 .438.013.641.038.207.021.425.057.653.108l.159-1.149a2.086 2.086 0 0 0-.533-.121 5.451 5.451 0 0 0-.673-.044Zm2.977 3.497v.14c0 .495.072.954.216 1.378.144.423.351.791.622 1.104.267.313.593.559.978.736.389.178.827.267 1.314.267.482 0 .916-.089 1.301-.267.385-.177.713-.423.984-.736.266-.313.472-.681.615-1.104.144-.424.216-.883.216-1.378v-.14c0-.495-.072-.954-.216-1.377a3.33 3.33 0 0 0-.615-1.111 2.866 2.866 0 0 0-.991-.736 3.02 3.02 0 0 0-1.307-.273c-.483 0-.916.091-1.301.273a2.826 2.826 0 0 0-.978.736 3.275 3.275 0 0 0-.622 1.111 4.247 4.247 0 0 0-.216 1.377Zm1.174.14v-.14c0-.334.041-.653.121-.958a2.48 2.48 0 0 1 .368-.813c.161-.232.362-.416.603-.552.242-.139.525-.209.851-.209.326 0 .609.07.85.209.246.136.451.32.616.552.161.233.282.504.362.813.085.305.127.624.127.958v.14c0 .339-.04.662-.121.971-.08.305-.201.574-.361.806a1.851 1.851 0 0 1-.616.553 1.7 1.7 0 0 1-.844.203c-.326 0-.612-.068-.857-.203a1.776 1.776 0 0 1-.61-.553 2.47 2.47 0 0 1-.368-.806 3.856 3.856 0 0 1-.121-.971Zm6.964 3.358h1.174v-4.926a2.39 2.39 0 0 1 .279-.406 2.35 2.35 0 0 1 .356-.324c.157-.106.328-.188.514-.247.186-.064.387-.096.603-.096.25 0 .47.03.66.089.195.06.36.155.495.286.132.131.231.303.299.514.067.212.101.47.101.775V339h1.175v-4.361c0-.457-.057-.85-.172-1.181a2.125 2.125 0 0 0-.476-.825 1.872 1.872 0 0 0-.755-.476 2.978 2.978 0 0 0-.978-.152 2.651 2.651 0 0 0-1.422.432 2.411 2.411 0 0 0-.387.317c-.118.118-.228.25-.33.393l-.082-1.015h-1.054V339Zm10.588-8.531h-1.181v1.663h-1.803v.908h1.803v3.732c0 .423.055.785.165 1.085.114.297.269.538.464.724.194.19.423.33.685.419.267.085.552.127.857.127.182 0 .364-.009.546-.025.186-.017.362-.043.527-.077.165-.029.317-.065.457-.108.139-.046.258-.099.355-.158l-.165-.832-.279.064a11.966 11.966 0 0 1-.755.12 4.133 4.133 0 0 1-.394.019c-.174 0-.339-.021-.495-.063a1.018 1.018 0 0 1-.686-.635 1.847 1.847 0 0 1-.101-.66v-3.732H216v-.908h-2.615v-1.663Zm8.061 8.658c.669 0 1.23-.133 1.682-.4.457-.271.8-.58 1.029-.927l-.718-.558a2.424 2.424 0 0 1-.812.673 2.39 2.39 0 0 1-1.117.253c-.318 0-.607-.059-.87-.177a2.013 2.013 0 0 1-.673-.489 2.22 2.22 0 0 1-.431-.673 3.078 3.078 0 0 1-.197-.882v-.045h4.907v-.527c0-.478-.062-.922-.184-1.333a3.036 3.036 0 0 0-.546-1.072 2.527 2.527 0 0 0-.927-.705c-.368-.173-.8-.26-1.295-.26-.394 0-.779.08-1.155.241a3.091 3.091 0 0 0-.997.692 3.427 3.427 0 0 0-.711 1.117c-.178.436-.266.931-.266 1.486v.266c0 .478.08.921.241 1.327.161.406.385.757.673 1.054.287.296.632.526 1.034.691.407.165.851.248 1.333.248Zm-.152-6.157c.3 0 .559.055.774.165.22.11.402.254.546.431.144.178.256.39.337.635.08.241.12.468.12.679v.058h-3.694c.047-.318.127-.597.241-.838.119-.246.263-.453.432-.622.169-.166.36-.29.571-.375a1.72 1.72 0 0 1 .673-.133Zm4.926 6.03h1.174v-4.926c.08-.148.174-.283.279-.406.11-.123.229-.231.356-.324.156-.106.328-.188.514-.247.186-.064.387-.096.603-.096.25 0 .47.03.66.089.195.06.36.155.495.286.131.131.231.303.299.514.067.212.101.47.101.775V339h1.174v-4.361c0-.457-.057-.85-.171-1.181a2.138 2.138 0 0 0-.476-.825 1.872 1.872 0 0 0-.755-.476 2.978 2.978 0 0 0-.978-.152 2.663 2.663 0 0 0-1.422.432 2.411 2.411 0 0 0-.387.317c-.118.118-.228.25-.33.393l-.083-1.015h-1.053V339Zm7.585-3.491v.133c0 .491.066.95.197 1.378.131.423.315.791.552 1.104.237.313.523.559.857.736.339.178.715.267 1.13.267a2.67 2.67 0 0 0 1.111-.216c.317-.144.59-.355.819-.635l.05.724h1.08v-9.75h-1.175v3.561a2.216 2.216 0 0 0-.8-.597 2.56 2.56 0 0 0-1.072-.209c-.419 0-.798.087-1.137.26a2.544 2.544 0 0 0-.863.724 3.38 3.38 0 0 0-.558 1.111 4.93 4.93 0 0 0-.191 1.409Zm1.174.133v-.133c0-.335.036-.652.108-.952.072-.305.184-.574.337-.807.148-.228.338-.41.571-.545.237-.136.521-.204.851-.204.385 0 .706.091.965.273.258.178.463.407.615.686v3.186c-.152.301-.357.54-.615.718-.259.178-.584.266-.978.266-.326 0-.605-.065-.838-.196a1.685 1.685 0 0 1-.571-.546 2.432 2.432 0 0 1-.337-.794 4.072 4.072 0 0 1-.108-.952Z"/></g><path stroke="#4B5563" stroke-dasharray="1 1" d="M153.5 357v10M153.5 371v10"/><g clip-path="url(#g)"><path fill="#6B7280" d="m159.353 392.509-3.362-3.362a.5.5 0 0 0-.354-.147H149c-.277 0-.5.223-.5.5v13c0 .277.223.5.5.5h10c.277 0 .5-.223.5-.5v-9.636a.503.503 0 0 0-.147-.355Zm-1.006.585h-2.941v-2.941l2.941 2.941Zm.028 8.781h-8.75v-11.75h4.719v3.375a.656.656 0 0 0 .656.656h3.375v7.719Z"/><path fill="#9CA3AF" d="m182.53 397.229 1.815 3.771h1.238l.006-.076-1.961-3.948a3.53 3.53 0 0 0 .698-.4c.212-.157.394-.337.546-.54a2.47 2.47 0 0 0 .489-1.504c0-.466-.083-.87-.248-1.213a2.38 2.38 0 0 0-.666-.863 2.969 2.969 0 0 0-1.003-.514 4.525 4.525 0 0 0-1.219-.184h-2.71V401h1.168v-3.771h1.847Zm-1.847-.964v-3.542h1.542c.284.004.544.044.781.12.241.076.448.189.622.337.173.152.309.34.406.565.098.22.146.478.146.774 0 .279-.051.527-.152.743a1.628 1.628 0 0 1-.413.539 1.934 1.934 0 0 1-.615.343 2.54 2.54 0 0 1-.743.121h-1.574Zm11.679.463v-.997h-3.859v-2.97h4.443v-1.003h-5.617V401h5.674v-.997h-4.5v-3.275h3.859Zm7.135 1.879.73 2.393h1.168l-2.933-9.242h-.983L194.495 401h1.174l.743-2.393h3.085Zm-2.768-1.022 1.238-4.012 1.219 4.012h-2.457Zm6.043 3.415h2.14a4.936 4.936 0 0 0 1.237-.159c.386-.101.73-.247 1.035-.438.288-.182.548-.402.781-.66.233-.258.425-.546.577-.863.149-.305.261-.639.337-1.003.08-.364.121-.749.121-1.155v-.68a5.659 5.659 0 0 0-.134-1.193 4.343 4.343 0 0 0-.355-1.028 3.257 3.257 0 0 0-.699-.971 3.468 3.468 0 0 0-.996-.686 4.067 4.067 0 0 0-.889-.292 4.823 4.823 0 0 0-1.015-.114h-2.14V401Zm1.194-8.277h.946c.292.004.56.038.806.101.245.059.467.144.666.254a2.2 2.2 0 0 1 .705.584c.195.237.349.504.463.8.089.228.155.476.197.743.047.262.072.537.076.825v.692a5.559 5.559 0 0 1-.07.819 3.716 3.716 0 0 1-.19.723 2.762 2.762 0 0 1-.4.749c-.165.22-.362.406-.59.559a2.573 2.573 0 0 1-.743.343c-.275.08-.582.122-.92.127h-.946v-7.319Zm8.023-.965h-1.453V401h1.142v-3.688l-.095-3.726 1.568 4.843h.673l1.707-4.976-.095 3.859V401h1.143v-9.242h-1.46l-1.625 4.621-1.505-4.621Zm11.604 4.97v-.997h-3.86v-2.97h4.444v-1.003h-5.618V401h5.675v-.997h-4.501v-3.275h3.86Zm4.767 3.51c0 .246.076.455.228.629.157.169.388.254.692.254.301 0 .531-.085.692-.254a.878.878 0 0 0 .241-.629.907.907 0 0 0-.241-.641c-.156-.178-.387-.266-.692-.266-.309 0-.539.088-.692.266a.955.955 0 0 0-.228.641Zm7.052-8.48h-1.454V401h1.143v-3.688l-.095-3.726 1.568 4.843h.673l1.707-4.976-.095 3.859V401h1.142v-9.242h-1.459l-1.625 4.621-1.505-4.621Zm6.399 9.242h2.139a4.95 4.95 0 0 0 1.238-.159 3.704 3.704 0 0 0 1.034-.438c.288-.182.548-.402.781-.66a3.64 3.64 0 0 0 .578-.863 4.3 4.3 0 0 0 .336-1.003c.08-.364.121-.749.121-1.155v-.68a5.659 5.659 0 0 0-.134-1.193 4.343 4.343 0 0 0-.355-1.028 3.254 3.254 0 0 0-.698-.971 3.487 3.487 0 0 0-.997-.686 4.067 4.067 0 0 0-.889-.292 4.823 4.823 0 0 0-1.015-.114h-2.139V401Zm1.193-8.277h.946c.292.004.56.038.806.101.245.059.467.144.666.254.28.148.515.343.705.584.195.237.349.504.463.8.089.228.155.476.197.743.047.262.072.537.076.825v.692a5.559 5.559 0 0 1-.07.819 3.716 3.716 0 0 1-.19.723 2.762 2.762 0 0 1-.4.749c-.165.22-.362.406-.59.559a2.573 2.573 0 0 1-.743.343c-.275.08-.582.122-.92.127h-.946v-7.319Z"/></g><path stroke="#4B5563" stroke-dasharray="1 1" d="M153.5 411v10"/><g clip-path="url(#h)"><path fill="#6B7280" d="m159.353 432.509-3.362-3.362a.5.5 0 0 0-.354-.147H149c-.277 0-.5.223-.5.5v13c0 .277.223.5.5.5h10c.277 0 .5-.223.5-.5v-9.636a.503.503 0 0 0-.147-.355Zm-1.006.585h-2.941v-2.941l2.941 2.941Zm.028 8.781h-8.75v-11.75h4.719v3.375a.656.656 0 0 0 .656.656h3.375v7.719Z"/><path fill="#9CA3AF" d="M179.252 443.641h1.175v-3.301c.084.093.175.18.273.26.097.076.201.146.311.21.182.101.385.179.609.234.229.055.474.083.736.083a2.406 2.406 0 0 0 2-1.003c.228-.313.402-.681.52-1.104.119-.428.178-.887.178-1.378v-.133a5.24 5.24 0 0 0-.178-1.409 3.328 3.328 0 0 0-.52-1.111 2.423 2.423 0 0 0-.851-.724 2.528 2.528 0 0 0-1.168-.26c-.249 0-.484.027-.704.082a2.196 2.196 0 0 0-.591.229 2.194 2.194 0 0 0-.66.565l-.057-.749h-1.073v9.509Zm4.628-6.132v.133c0 .334-.038.654-.114.959a2.508 2.508 0 0 1-.337.806 1.75 1.75 0 0 1-.584.558 1.666 1.666 0 0 1-.844.203c-.203 0-.389-.025-.559-.076a1.718 1.718 0 0 1-.45-.209 1.405 1.405 0 0 1-.318-.279 2.378 2.378 0 0 1-.247-.356v-3.307c.08-.144.173-.275.279-.394.106-.118.226-.218.362-.298.123-.08.26-.142.412-.184.157-.042.326-.064.508-.064.33 0 .614.068.851.204.237.135.434.317.59.545.153.233.265.502.337.807.076.3.114.617.114.952Zm7.7 3.491h1.225v-.102a3.207 3.207 0 0 1-.178-.666 4.566 4.566 0 0 1-.064-.73v-3.193c0-.385-.069-.721-.209-1.009a2.096 2.096 0 0 0-.571-.724 2.506 2.506 0 0 0-.87-.425 3.878 3.878 0 0 0-1.085-.146c-.428 0-.811.059-1.149.178a2.81 2.81 0 0 0-.851.463 2.143 2.143 0 0 0-.546.654 1.674 1.674 0 0 0-.19.736h1.18c0-.144.034-.281.102-.412.072-.136.171-.252.298-.35.127-.097.282-.175.464-.234a2.04 2.04 0 0 1 .628-.089c.25 0 .474.031.673.095.203.063.375.152.514.266.14.119.248.261.324.426.076.165.114.351.114.558v.54h-1.282a5.55 5.55 0 0 0-1.301.14 3 3 0 0 0-.991.419c-.275.19-.488.427-.641.71a2.114 2.114 0 0 0-.222.991c0 .287.055.556.165.806.114.245.275.457.483.635.203.182.45.325.742.431.297.106.627.159.991.159.224 0 .435-.023.634-.07a2.772 2.772 0 0 0 1.041-.47c.148-.105.282-.218.4-.336.013.144.032.284.057.419.03.131.068.241.115.33Zm-2.076-.895c-.229 0-.43-.03-.603-.089a1.195 1.195 0 0 1-.432-.247.995.995 0 0 1-.26-.369 1.299 1.299 0 0 1-.083-.469c0-.178.032-.337.096-.476.067-.14.165-.261.292-.362.177-.144.417-.25.717-.318.305-.072.66-.108 1.066-.108h1.092v1.391a1.712 1.712 0 0 1-.279.393 2.05 2.05 0 0 1-.419.33 2.4 2.4 0 0 1-.546.235 2.247 2.247 0 0 1-.641.089Zm8.296.07c-.368 0-.677-.072-.926-.216a1.748 1.748 0 0 1-.591-.578 2.43 2.43 0 0 1-.33-.787 4.286 4.286 0 0 1-.095-.895v-.266c0-.297.032-.591.095-.883a2.51 2.51 0 0 1 .33-.793c.153-.233.351-.421.597-.565.25-.148.556-.222.92-.222.237 0 .457.04.66.12a1.557 1.557 0 0 1 .883.819c.089.182.135.377.139.584h1.111c0-.347-.07-.673-.209-.977a2.436 2.436 0 0 0-.578-.794 2.801 2.801 0 0 0-.889-.52 3.044 3.044 0 0 0-1.117-.197c-.52 0-.975.093-1.364.279-.39.186-.714.436-.972.749a3.25 3.25 0 0 0-.59 1.098 4.3 4.3 0 0 0-.197 1.302v.266c0 .457.066.893.197 1.308.131.41.328.772.59 1.085.258.318.582.569.972.756.389.186.844.279 1.364.279a3.015 3.015 0 0 0 1.936-.692c.258-.207.464-.449.616-.724a1.81 1.81 0 0 0 .241-.876h-1.111a1.082 1.082 0 0 1-.152.534c-.093.16-.218.3-.374.419a1.785 1.785 0 0 1-.54.285 1.89 1.89 0 0 1-.616.102Zm6.938-2.381 2.52 3.206h1.492l-3.206-4.005 2.781-2.863h-1.429l-2.253 2.26-.768.825v-5.967h-1.181V441h1.181v-2.374l.863-.832ZM215.002 441h1.226v-.102a3.146 3.146 0 0 1-.178-.666 4.453 4.453 0 0 1-.064-.73v-3.193c0-.385-.069-.721-.209-1.009a2.096 2.096 0 0 0-.571-.724 2.506 2.506 0 0 0-.87-.425 3.88 3.88 0 0 0-1.086-.146c-.427 0-.81.059-1.148.178a2.81 2.81 0 0 0-.851.463 2.143 2.143 0 0 0-.546.654 1.66 1.66 0 0 0-.19.736h1.18c0-.144.034-.281.102-.412.072-.136.171-.252.298-.35.127-.097.282-.175.464-.234a2.04 2.04 0 0 1 .628-.089c.25 0 .474.031.673.095.203.063.374.152.514.266.14.119.248.261.324.426.076.165.114.351.114.558v.54h-1.282a5.55 5.55 0 0 0-1.301.14 2.991 2.991 0 0 0-.991.419c-.275.19-.488.427-.641.71a2.114 2.114 0 0 0-.222.991c0 .287.055.556.165.806.114.245.275.457.482.635.204.182.451.325.743.431.296.106.626.159.99.159.225 0 .436-.023.635-.07a2.772 2.772 0 0 0 1.041-.47c.148-.105.282-.218.4-.336.013.144.032.284.057.419.03.131.068.241.114.33Zm-2.075-.895c-.229 0-.43-.03-.603-.089a1.195 1.195 0 0 1-.432-.247.995.995 0 0 1-.26-.369 1.299 1.299 0 0 1-.083-.469c0-.178.032-.337.096-.476.067-.14.165-.261.292-.362.177-.144.416-.25.717-.318.304-.072.66-.108 1.066-.108h1.092v1.391a1.712 1.712 0 0 1-.279.393 2.05 2.05 0 0 1-.419.33 2.4 2.4 0 0 1-.546.235 2.247 2.247 0 0 1-.641.089Zm5.154-2.596v.133c0 .491.064.95.19 1.378.127.423.309.791.546 1.104.233.313.519.559.857.736.339.178.718.267 1.137.267.249 0 .482-.028.698-.083.216-.05.412-.124.59-.222.114-.063.22-.137.318-.222.101-.085.196-.178.285-.279v.59c0 .296-.042.559-.127.787a1.51 1.51 0 0 1-.362.572c-.16.156-.353.275-.577.355-.225.08-.476.121-.756.121-.156 0-.313-.017-.469-.051a2.148 2.148 0 0 1-.933-.445 2.816 2.816 0 0 1-.445-.438l-.609.705c.156.224.343.413.558.565.22.152.449.273.686.362.233.093.463.159.692.197a3.492 3.492 0 0 0 1.79-.127c.355-.127.662-.313.92-.559.254-.245.451-.544.591-.895.144-.351.215-.753.215-1.206v-6.722h-1.066l-.057.749a2.23 2.23 0 0 0-.26-.279 2.209 2.209 0 0 0-.914-.502 2.845 2.845 0 0 0-.756-.095c-.427 0-.81.087-1.149.26a2.544 2.544 0 0 0-.863.724 3.363 3.363 0 0 0-.546 1.111 5.08 5.08 0 0 0-.184 1.409Zm1.174.133v-.133c0-.335.034-.652.102-.952.072-.305.184-.574.336-.807.148-.228.339-.41.572-.545a1.68 1.68 0 0 1 .85-.204c.195 0 .373.026.533.077.161.046.307.112.438.196.132.089.248.193.35.311.101.119.19.25.266.394v3.148a2.248 2.248 0 0 1-.266.407 1.772 1.772 0 0 1-.343.317 1.66 1.66 0 0 1-.445.21c-.16.046-.342.069-.545.069a1.68 1.68 0 0 1-.838-.196 1.688 1.688 0 0 1-.572-.546 2.452 2.452 0 0 1-.336-.794 4.301 4.301 0 0 1-.102-.952Zm9.884 3.485c.668 0 1.229-.133 1.682-.4.457-.271.8-.58 1.028-.927l-.717-.558a2.438 2.438 0 0 1-.813.673 2.39 2.39 0 0 1-1.117.253c-.317 0-.607-.059-.869-.177a2.003 2.003 0 0 1-.673-.489 2.242 2.242 0 0 1-.432-.673 3.112 3.112 0 0 1-.197-.882v-.045h4.907v-.527c0-.478-.061-.922-.184-1.333a3.036 3.036 0 0 0-.546-1.072 2.51 2.51 0 0 0-.927-.705c-.368-.173-.8-.26-1.295-.26-.393 0-.778.08-1.155.241a3.102 3.102 0 0 0-.997.692 3.408 3.408 0 0 0-.71 1.117 3.902 3.902 0 0 0-.267 1.486v.266c0 .478.08.921.241 1.327a3.029 3.029 0 0 0 1.708 1.745c.406.165.85.248 1.333.248Zm-.153-6.157c.301 0 .559.055.775.165.22.11.402.254.546.431.144.178.256.39.336.635.08.241.121.468.121.679v.058h-3.695c.047-.318.127-.597.242-.838.118-.246.262-.453.431-.622.169-.166.36-.29.571-.375a1.72 1.72 0 0 1 .673-.133Zm6.97 5.268c0 .246.076.455.229.629.156.169.387.254.691.254.301 0 .532-.085.692-.254a.88.88 0 0 0 .242-.629.908.908 0 0 0-.242-.641c-.156-.178-.387-.266-.692-.266-.308 0-.539.088-.691.266a.95.95 0 0 0-.229.641Zm6.557-6.106v1.022h2.292v5.89c0 .326-.043.599-.127.819a1.359 1.359 0 0 1-.337.54c-.144.135-.313.23-.508.285-.194.06-.402.089-.622.089-.059 0-.141-.002-.247-.006-.102 0-.207-.004-.318-.013a4.083 4.083 0 0 1-.336-.025 2.97 2.97 0 0 1-.273-.032l-.082.965c.105.017.207.032.304.044.098.017.195.03.292.039a11.73 11.73 0 0 0 .743.025c.423 0 .8-.061 1.13-.184a2.24 2.24 0 0 0 .85-.527c.229-.229.402-.512.521-.851.123-.338.184-.727.184-1.168v-6.912h-3.466Zm2.127-1.809c0 .19.057.351.171.482.114.127.29.191.527.191.237 0 .415-.064.533-.191a.69.69 0 0 0 .178-.482.693.693 0 0 0-.178-.483c-.118-.135-.296-.203-.533-.203-.237 0-.413.068-.527.203a.712.712 0 0 0-.171.483Zm9.451 6.855c0 .11-.021.214-.063.311a.864.864 0 0 1-.184.267 1.35 1.35 0 0 1-.546.311 2.784 2.784 0 0 1-.819.108c-.199 0-.4-.021-.603-.064a1.713 1.713 0 0 1-.552-.215 1.378 1.378 0 0 1-.426-.4 1.24 1.24 0 0 1-.19-.61h-1.174c0 .292.065.574.196.844.136.271.331.508.584.711.25.208.557.375.921.502a3.88 3.88 0 0 0 1.244.184 4.12 4.12 0 0 0 1.124-.146c.342-.097.636-.235.882-.413.245-.177.436-.391.571-.641.14-.249.21-.527.21-.831 0-.284-.062-.534-.184-.749a1.745 1.745 0 0 0-.521-.572 3.352 3.352 0 0 0-.844-.412 8.852 8.852 0 0 0-1.136-.311 7.372 7.372 0 0 1-.8-.197 1.915 1.915 0 0 1-.495-.229.731.731 0 0 1-.267-.285.826.826 0 0 1-.076-.362c0-.131.032-.258.095-.381a.949.949 0 0 1 .286-.324c.122-.093.277-.167.463-.222.191-.055.411-.082.66-.082.241 0 .457.034.648.101.194.068.359.157.495.267.135.11.241.237.317.381a.888.888 0 0 1 .114.431h1.175c0-.3-.066-.579-.197-.838a2.025 2.025 0 0 0-.546-.685 2.617 2.617 0 0 0-.863-.457 3.694 3.694 0 0 0-1.143-.165c-.393 0-.755.053-1.085.159a2.762 2.762 0 0 0-.844.431 2.002 2.002 0 0 0-.553.641 1.614 1.614 0 0 0-.196.781c0 .284.063.533.19.749.127.212.307.396.54.552.228.161.503.299.825.413.326.114.685.212 1.079.292.321.063.59.135.806.216.216.076.389.161.52.254a.822.822 0 0 1 .28.311c.055.11.082.235.082.374Zm2.914-1.676v.14c0 .495.072.954.216 1.378.144.423.351.791.622 1.104a2.8 2.8 0 0 0 .977.736c.39.178.828.267 1.314.267a3.07 3.07 0 0 0 1.302-.267 2.86 2.86 0 0 0 .983-.736c.267-.313.472-.681.616-1.104.144-.424.216-.883.216-1.378v-.14c0-.495-.072-.954-.216-1.377a3.332 3.332 0 0 0-.616-1.111c-.27-.313-.6-.558-.99-.736a3.023 3.023 0 0 0-1.307-.273 3.01 3.01 0 0 0-1.302.273 2.813 2.813 0 0 0-.977.736 3.275 3.275 0 0 0-.622 1.111 4.247 4.247 0 0 0-.216 1.377Zm1.174.14v-.14c0-.334.04-.653.121-.958.08-.309.203-.58.368-.813.161-.232.362-.416.603-.552.241-.139.525-.209.851-.209.325 0 .609.07.85.209.246.136.451.32.616.552.161.233.281.504.362.813.084.305.127.624.127.958v.14c0 .339-.041.662-.121.971-.08.305-.201.574-.362.806-.165.233-.37.417-.615.553a1.704 1.704 0 0 1-.845.203c-.326 0-.611-.068-.857-.203a1.782 1.782 0 0 1-.609-.553 2.45 2.45 0 0 1-.368-.806 3.81 3.81 0 0 1-.121-.971Zm6.964 3.358h1.174v-4.926a2.28 2.28 0 0 1 .279-.406c.11-.123.229-.231.356-.324.156-.106.328-.188.514-.247.186-.064.387-.096.603-.096.25 0 .47.03.66.089.195.06.36.155.495.286.131.131.231.303.298.514.068.212.102.47.102.775V441h1.174v-4.361c0-.457-.057-.85-.171-1.181a2.138 2.138 0 0 0-.476-.825 1.872 1.872 0 0 0-.755-.476 2.978 2.978 0 0 0-.978-.152 2.652 2.652 0 0 0-1.422.432 2.411 2.411 0 0 0-.387.317c-.119.118-.229.25-.33.393l-.083-1.015h-1.053V441Z"/></g><path stroke="#4B5563" stroke-dasharray="1 1" d="M153.5 451v10"/><g clip-path="url(#i)"><path fill="#6B7280" d="m159.353 472.509-3.362-3.362a.5.5 0 0 0-.354-.147H149c-.277 0-.5.223-.5.5v13c0 .277.223.5.5.5h10c.277 0 .5-.223.5-.5v-9.636a.503.503 0 0 0-.147-.355Zm-1.006.585h-2.941v-2.941l2.941 2.941Zm.028 8.781h-8.75v-11.75h4.719v3.375a.656.656 0 0 0 .656.656h3.375v7.719Z"/><path fill="#9CA3AF" d="M181.322 480.238c0 .246.076.455.228.629.157.169.388.254.692.254.301 0 .531-.085.692-.254a.878.878 0 0 0 .241-.629.907.907 0 0 0-.241-.641c-.156-.178-.387-.266-.692-.266-.309 0-.539.088-.692.266a.955.955 0 0 0-.228.641Zm7.807 0c0 .246.077.455.229.629.156.169.387.254.692.254.3 0 .531-.085.692-.254a.878.878 0 0 0 .241-.629.907.907 0 0 0-.241-.641c-.157-.178-.388-.266-.692-.266-.309 0-.54.088-.692.266a.956.956 0 0 0-.229.641Zm7.808 0c0 .246.076.455.229.629.156.169.387.254.691.254.301 0 .532-.085.692-.254a.88.88 0 0 0 .242-.629.908.908 0 0 0-.242-.641c-.156-.178-.387-.266-.692-.266-.308 0-.539.088-.691.266a.95.95 0 0 0-.229.641Zm7.808 0c0 .246.076.455.228.629.157.169.387.254.692.254.3 0 .531-.085.692-.254a.878.878 0 0 0 .241-.629.907.907 0 0 0-.241-.641c-.157-.178-.387-.266-.692-.266-.309 0-.54.088-.692.266a.955.955 0 0 0-.228.641Zm7.807 0c0 .246.076.455.229.629.156.169.387.254.692.254.3 0 .531-.085.692-.254a.883.883 0 0 0 .241-.629.912.912 0 0 0-.241-.641c-.157-.178-.388-.266-.692-.266-.309 0-.54.088-.692.266a.95.95 0 0 0-.229.641Zm7.808 0c0 .246.076.455.228.629.157.169.388.254.692.254.301 0 .531-.085.692-.254a.878.878 0 0 0 .241-.629.907.907 0 0 0-.241-.641c-.156-.178-.387-.266-.692-.266-.309 0-.539.088-.692.266a.955.955 0 0 0-.228.641Zm7.807 0c0 .246.077.455.229.629.157.169.387.254.692.254.3 0 .531-.085.692-.254a.878.878 0 0 0 .241-.629.907.907 0 0 0-.241-.641c-.157-.178-.387-.266-.692-.266-.309 0-.54.088-.692.266a.956.956 0 0 0-.229.641Z"/></g><defs><clipPath id="a"><rect width="119" height="38" x="138" y="74" fill="#fff" rx="4"/></clipPath><clipPath id="b"><rect width="113" height="41" x="132" y="130" fill="#fff" rx="4"/></clipPath><clipPath id="d"><rect width="103" height="38" x="138" y="189" fill="#fff" rx="4"/></clipPath><clipPath id="e"><rect width="72" height="38" x="138" y="245" fill="#fff" rx="4"/></clipPath><clipPath id="f"><rect width="111" height="38" x="138" y="315" fill="#fff" rx="4"/></clipPath><clipPath id="g"><rect width="119" height="22" x="138" y="385" fill="#fff" rx="4"/></clipPath><clipPath id="h"><rect width="142" height="22" x="138" y="425" fill="#fff" rx="4"/></clipPath><clipPath id="i"><rect width="103" height="22" x="138" y="465" fill="#fff" rx="4"/></clipPath><filter id="c" width="46.888" height="13.726" x="185.1" y="146.004" color-interpolation-filters="sRGB" filterUnits="userSpaceOnUse"><feFlood flood-opacity="0" result="BackgroundImageFix"/><feColorMatrix in="SourceAlpha" result="hardAlpha" values="0 0 0 0 0 0 0 0 0 0 0 0 0 0 0 0 0 0 127 0"/><feOffset dy="1"/><feComposite in2="hardAlpha" operator="out"/><feColorMatrix values="0 0 0 0 0 0 0 0 0 0 0 0 0 0 0 0 0 0 0.5 0"/><feBlend in2="BackgroundImageFix" result="effect1_dropShadow_54_1491"/><feBlend in="SourceGraphic" in2="effect1_dropShadow_54_1491" result="shape"/></filter></defs></svg>