<svg xmlns="http://www.w3.org/2000/svg" width="446" height="471" fill="none"><g clip-path="url(#a)"><rect width="32" height="38" x="100" y="58" fill="#1F2937" rx="4"/><path fill="#9CA3AF" d="M121.75 73.662h-5.609l-1.833-1.753a.129.129 0 0 0-.086-.034h-3.972a.5.5 0 0 0-.5.5v9.25a.5.5 0 0 0 .5.5h11.5a.5.5 0 0 0 .5-.5v-7.463a.5.5 0 0 0-.5-.5ZM121.125 81h-10.25v-8h2.945l1.869 1.787h5.436V81ZM143.514 81.238c0 .246.076.455.229.629.156.169.387.254.692.254.3 0 .531-.085.691-.254a.877.877 0 0 0 .242-.629.908.908 0 0 0-.242-.64c-.156-.179-.387-.267-.691-.267-.309 0-.54.088-.692.266a.95.95 0 0 0-.229.641Zm8.69-.063c-.368 0-.677-.072-.927-.216a1.754 1.754 0 0 1-.59-.578 2.436 2.436 0 0 1-.33-.787 4.225 4.225 0 0 1-.095-.895v-.266c0-.297.031-.59.095-.883.068-.292.178-.556.33-.793.152-.233.351-.421.597-.565.249-.148.556-.222.92-.222.237 0 .457.04.66.12.208.08.385.19.533.33.149.14.265.303.35.49.088.181.135.376.139.583h1.111c0-.347-.07-.673-.209-.977a2.454 2.454 0 0 0-.578-.794 2.799 2.799 0 0 0-.889-.52 3.065 3.065 0 0 0-1.117-.197c-.52 0-.975.093-1.365.28a2.81 2.81 0 0 0-.971.748 3.238 3.238 0 0 0-.59 1.098 4.295 4.295 0 0 0-.197 1.302v.266c0 .457.066.893.197 1.308.131.41.328.772.59 1.085.258.318.582.57.971.756.39.186.845.279 1.365.279.364 0 .713-.061 1.047-.184.335-.127.631-.296.889-.508a2.44 2.44 0 0 0 .616-.724c.156-.279.237-.57.241-.876h-1.111c-.004.19-.055.369-.152.534-.093.16-.218.3-.375.419a1.77 1.77 0 0 1-.539.285 1.896 1.896 0 0 1-.616.102Zm5.066-6.043v1.022h2.335v4.83h-2.335V82h5.751v-1.016h-2.241v-5.852h-3.51Zm2.183-1.803c0 .19.057.35.172.476.118.127.296.19.533.19.232 0 .408-.063.527-.19a.673.673 0 0 0 .177-.476.833.833 0 0 0-.05-.292.55.55 0 0 0-.153-.222.548.548 0 0 0-.209-.127.782.782 0 0 0-.292-.05c-.11 0-.21.016-.299.05a.59.59 0 0 0-.361.355.887.887 0 0 0-.045.286Zm9.941 1.676c-.5 0-.946.11-1.34.33a3.143 3.143 0 0 0-1.003.889l-.006-.172-.051-.92h-1.117V82h1.181v-4.405c.076-.212.171-.402.285-.572a1.86 1.86 0 0 1 .413-.438c.173-.135.376-.236.609-.304.233-.072.493-.108.781-.108.224 0 .438.013.641.038.207.021.425.057.654.108l.159-1.15a2.1 2.1 0 0 0-.534-.12 5.324 5.324 0 0 0-.672-.044Zm6.233 6.17c-.368 0-.677-.072-.927-.216a1.754 1.754 0 0 1-.59-.578 2.415 2.415 0 0 1-.33-.787 4.225 4.225 0 0 1-.095-.895v-.266c0-.297.031-.59.095-.883a2.49 2.49 0 0 1 .33-.793c.152-.233.351-.421.597-.565.249-.148.556-.222.92-.222.237 0 .457.04.66.12.207.08.385.19.533.33.148.14.265.303.349.49.089.181.136.376.14.583h1.111c0-.347-.07-.673-.21-.977a2.437 2.437 0 0 0-.577-.794 2.799 2.799 0 0 0-.889-.52 3.065 3.065 0 0 0-1.117-.197c-.521 0-.975.093-1.365.28a2.81 2.81 0 0 0-.971.748 3.238 3.238 0 0 0-.59 1.098 4.264 4.264 0 0 0-.197 1.302v.266c0 .457.065.893.197 1.308.131.41.328.772.59 1.085.258.318.582.57.971.756.39.186.844.279 1.365.279.364 0 .713-.061 1.047-.184.335-.127.631-.296.889-.508.258-.207.463-.448.616-.724.156-.279.237-.57.241-.876h-1.111c-.004.19-.055.369-.152.534-.093.16-.218.3-.375.419a1.77 1.77 0 0 1-.539.285 1.896 1.896 0 0 1-.616.102Zm5.065-8.925v1.022h2.336v7.712h-2.336V82h5.751v-1.016h-2.24V72.25h-3.511Zm10.658 9.877c.669 0 1.229-.133 1.682-.4.457-.27.8-.58 1.029-.927l-.718-.558c-.216.279-.486.503-.812.673-.326.169-.698.253-1.117.253-.318 0-.608-.059-.87-.177a2 2 0 0 1-.673-.489 2.24 2.24 0 0 1-.432-.673 3.112 3.112 0 0 1-.196-.882v-.045h4.906v-.526c0-.479-.061-.923-.184-1.334a3.01 3.01 0 0 0-.546-1.072 2.524 2.524 0 0 0-.926-.705c-.368-.173-.8-.26-1.295-.26-.394 0-.779.08-1.156.241-.372.16-.704.392-.996.692a3.423 3.423 0 0 0-.711 1.117 3.9 3.9 0 0 0-.267 1.485v.267c0 .478.081.92.242 1.327a3.028 3.028 0 0 0 1.707 1.746 3.51 3.51 0 0 0 1.333.247Zm-.152-6.157a1.629 1.629 0 0 1 1.32.597c.144.177.256.389.336.634.081.241.121.468.121.68v.056h-3.694c.046-.317.127-.596.241-.837.118-.246.262-.453.432-.622a1.73 1.73 0 0 1 .571-.375 1.72 1.72 0 0 1 .673-.133Zm7.852 5.205c-.368 0-.677-.072-.927-.216a1.754 1.754 0 0 1-.59-.578 2.393 2.393 0 0 1-.33-.787 4.226 4.226 0 0 1-.096-.895v-.266c0-.297.032-.59.096-.883.067-.292.177-.556.33-.793.152-.233.351-.421.596-.565.25-.148.557-.222.921-.222.237 0 .457.04.66.12.207.08.385.19.533.33.148.14.265.303.349.49.089.181.136.376.14.583h1.111c0-.347-.07-.673-.21-.977a2.437 2.437 0 0 0-.577-.794 2.799 2.799 0 0 0-.889-.52 3.069 3.069 0 0 0-1.117-.197c-.521 0-.976.093-1.365.28a2.81 2.81 0 0 0-.971.748 3.22 3.22 0 0 0-.59 1.098 4.264 4.264 0 0 0-.197 1.302v.266c0 .457.065.893.197 1.308.131.41.327.772.59 1.085.258.318.582.57.971.756.389.186.844.279 1.365.279.364 0 .713-.061 1.047-.184.334-.127.631-.296.889-.508.258-.207.463-.448.616-.724.156-.279.237-.57.241-.876h-1.111c-.004.19-.055.369-.152.534-.094.16-.218.3-.375.419a1.77 1.77 0 0 1-.539.285 1.9 1.9 0 0 1-.616.102Zm5.065-6.043v1.022h2.336v4.83h-2.336V82h5.751v-1.016h-2.241v-5.852h-3.51Zm2.184-1.803c0 .19.057.35.171.476.119.127.296.19.533.19.233 0 .409-.063.527-.19a.669.669 0 0 0 .178-.476.81.81 0 0 0-.051-.292.548.548 0 0 0-.152-.222.545.545 0 0 0-.21-.127.779.779 0 0 0-.292-.05.83.83 0 0 0-.298.05.603.603 0 0 0-.362.355.915.915 0 0 0-.044.286Z"/></g><path stroke="#4B5563" stroke-dasharray="1 1" d="M115.5 100v10"/><g clip-path="url(#b)"><path fill="#881337" fill-opacity=".2" d="M94.5 114.5h39v40h-39z"/><path fill="#9F1239" d="M120.5 133.438h-1.688v-1.776a.5.5 0 0 0-.5-.5h-4.921l-1.833-1.753a.131.131 0 0 0-.086-.034H107.5c-.277 0-.5.223-.5.5v9.25c0 .277.223.5.5.5h10.906a.5.5 0 0 0 .464-.313l2.094-5.187a.499.499 0 0 0-.464-.687Zm-12.375-2.938h2.945l1.869 1.787h4.749v1.151h-7.969a.5.5 0 0 0-.464.312l-1.13 2.8v-6.05Zm9.927 8h-9.568l1.614-4h9.569l-1.615 4Z"/><path stroke="#E11D48" d="M94.5 114.5h39v40h-39z"/><path fill="#881337" fill-opacity=".5" d="M134 114h73v41h-73z"/><g filter="url(#c)"><path fill="#fff" d="M147.1 137.844V140h2.198v-2.156H147.1Zm8.95-1.484c0 .299-.028.588-.084.868-.056.28-.149.532-.28.756-.13.215-.308.387-.532.518-.214.131-.485.196-.812.196-.308 0-.574-.065-.798-.196a1.987 1.987 0 0 1-.546-.532 2.493 2.493 0 0 1-.308-.756 3.705 3.705 0 0 1-.098-.84c0-.299.028-.583.084-.854.066-.28.164-.527.294-.742.14-.215.322-.387.546-.518.224-.131.5-.196.826-.196.327 0 .598.065.812.196.215.131.388.303.518.518.14.205.238.448.294.728.056.271.084.555.084.854Zm.028 2.716V140h1.89v-9.996h-1.988v3.64h-.028a2.078 2.078 0 0 0-.924-.798 2.734 2.734 0 0 0-1.218-.28c-.532 0-.998.107-1.4.322a3.004 3.004 0 0 0-1.008.826 3.842 3.842 0 0 0-.602 1.204 5 5 0 0 0-.196 1.4c0 .504.066.989.196 1.456.14.467.341.882.602 1.246.271.355.612.639 1.022.854.411.205.887.308 1.428.308.476 0 .901-.084 1.274-.252a2.08 2.08 0 0 0 .924-.854h.028Zm8.265-3.472h-3.234c.009-.14.037-.299.084-.476.056-.177.145-.345.266-.504.131-.159.299-.289.504-.392.215-.112.481-.168.798-.168.485 0 .845.131 1.078.392.243.261.411.644.504 1.148Zm-3.234 1.26h5.222a5.109 5.109 0 0 0-.14-1.61 3.871 3.871 0 0 0-.644-1.372 3.086 3.086 0 0 0-1.12-.952c-.457-.243-.994-.364-1.61-.364-.551 0-1.055.098-1.512.294a3.535 3.535 0 0 0-1.162.812 3.461 3.461 0 0 0-.756 1.204 4.231 4.231 0 0 0-.266 1.512c0 .56.084 1.073.252 1.54.177.467.425.868.742 1.204.317.336.705.597 1.162.784.457.177.971.266 1.54.266.821 0 1.521-.187 2.1-.56.579-.373 1.008-.994 1.288-1.862h-1.75c-.065.224-.243.439-.532.644-.289.196-.635.294-1.036.294-.56 0-.989-.145-1.288-.434-.299-.289-.462-.756-.49-1.4Zm7.941.784h-1.89c.019.485.126.891.322 1.218.205.317.462.574.77.77.317.196.677.336 1.078.42a5.995 5.995 0 0 0 2.436 0c.401-.075.756-.21 1.064-.406a2.26 2.26 0 0 0 .742-.77c.196-.327.294-.728.294-1.204 0-.336-.065-.616-.196-.84a1.702 1.702 0 0 0-.518-.574 2.632 2.632 0 0 0-.742-.378 7.984 7.984 0 0 0-.84-.238c-.28-.065-.555-.126-.826-.182a8.394 8.394 0 0 1-.728-.182 1.63 1.63 0 0 1-.504-.28.545.545 0 0 1-.196-.434c0-.149.037-.266.112-.35a.726.726 0 0 1 .266-.21c.112-.047.233-.075.364-.084a2.54 2.54 0 0 1 .364-.028c.355 0 .663.07.924.21.261.131.406.387.434.77h1.89c-.037-.448-.154-.817-.35-1.106a2.175 2.175 0 0 0-.714-.714 3.032 3.032 0 0 0-.994-.378 5.606 5.606 0 0 0-1.134-.112c-.392 0-.775.037-1.148.112a2.957 2.957 0 0 0-1.008.364 2.008 2.008 0 0 0-.728.7c-.177.299-.266.681-.266 1.148 0 .317.065.588.196.812.131.215.303.397.518.546.215.14.457.257.728.35.28.084.565.159.854.224.709.149 1.26.299 1.652.448.401.149.602.373.602.672a.768.768 0 0 1-.126.448 1.044 1.044 0 0 1-.322.28 1.698 1.698 0 0 1-.42.154 2.351 2.351 0 0 1-1.008-.028 1.592 1.592 0 0 1-.476-.21 1.358 1.358 0 0 1-.35-.378 1.18 1.18 0 0 1-.126-.56Zm8.023-6.006v-1.638h-1.988v1.638h1.988Zm-1.988 1.12V140h1.988v-7.238h-1.988Zm6.928 5.53c-.308 0-.565-.065-.77-.196a1.616 1.616 0 0 1-.504-.504 2.312 2.312 0 0 1-.266-.686 4.42 4.42 0 0 1-.07-.784c0-.271.028-.527.084-.77a2.01 2.01 0 0 1 .294-.658c.14-.196.308-.35.504-.462.205-.112.448-.168.728-.168.326 0 .597.061.812.182.214.121.387.285.518.49.13.205.224.443.28.714a4 4 0 0 1 .084.84c0 .261-.038.513-.112.756a1.907 1.907 0 0 1-.308.63c-.14.187-.318.336-.532.448a1.582 1.582 0 0 1-.742.168Zm3.584 1.246v-6.776h-1.89v.966h-.028c-.243-.42-.546-.719-.91-.896-.355-.177-.77-.266-1.246-.266-.504 0-.952.098-1.344.294a2.854 2.854 0 0 0-.966.798 3.527 3.527 0 0 0-.602 1.148 4.576 4.576 0 0 0-.196 1.344c0 .495.056.966.168 1.414.121.439.308.826.56 1.162.252.327.574.588.966.784.392.187.858.28 1.4.28.438 0 .854-.089 1.246-.266.401-.187.709-.471.924-.854h.028v.952c.009.513-.117.938-.378 1.274-.252.336-.658.504-1.218.504a1.91 1.91 0 0 1-.938-.224c-.271-.14-.453-.397-.546-.77h-1.974c.028.411.14.761.336 1.05.205.299.457.541.756.728.308.187.644.322 1.008.406.373.093.737.14 1.092.14.83 0 1.493-.112 1.988-.336.494-.224.872-.499 1.134-.826.261-.317.429-.663.504-1.036a4.59 4.59 0 0 0 .126-.994Zm1.6-6.776V140h1.988v-3.794c0-.737.122-1.265.364-1.582.243-.327.635-.49 1.176-.49.476 0 .808.149.994.448.187.289.28.733.28 1.33V140h1.988v-4.452c0-.448-.042-.854-.126-1.218a2.202 2.202 0 0 0-.406-.938 1.859 1.859 0 0 0-.812-.602c-.336-.149-.77-.224-1.302-.224-.42 0-.83.098-1.232.294a2.24 2.24 0 0 0-.98.91h-.042v-1.008h-1.89Z"/></g></g><rect width="112" height="40" x="94.5" y="114.5" stroke="#E11D48" rx="3.5"/><path stroke="#4B5563" stroke-dasharray="1 1" d="M115.5 159v10"/><g clip-path="url(#d)"><rect width="32" height="38" x="100" y="173" fill="#1F2937" rx="4"/><path fill="#9CA3AF" d="M121.75 188.662h-5.609l-1.833-1.753a.131.131 0 0 0-.086-.034h-3.972c-.277 0-.5.223-.5.5v9.25c0 .277.223.5.5.5h11.5c.277 0 .5-.223.5-.5v-7.463a.5.5 0 0 0-.5-.5Zm-.625 7.338h-10.25v-8h2.945l1.869 1.787h5.436V196ZM143.322 196.238c0 .246.076.455.228.629.157.169.388.254.692.254.301 0 .531-.085.692-.254a.878.878 0 0 0 .241-.629.907.907 0 0 0-.241-.641c-.156-.178-.387-.266-.692-.266-.309 0-.539.088-.692.266a.955.955 0 0 0-.228.641Zm5.548-2.729v.133c0 .491.063.95.19 1.378.127.423.309.791.546 1.104.233.313.518.559.857.736.338.178.717.267 1.136.267.25 0 .483-.028.698-.083.216-.05.413-.124.591-.222.114-.063.22-.137.317-.222.102-.085.197-.178.286-.279v.59c0 .296-.043.559-.127.787a1.523 1.523 0 0 1-.362.572 1.579 1.579 0 0 1-.578.355c-.224.08-.476.121-.755.121a2.21 2.21 0 0 1-.47-.051 2.062 2.062 0 0 1-.47-.153 2.172 2.172 0 0 1-.463-.292 2.855 2.855 0 0 1-.444-.438l-.61.705c.157.224.343.413.559.565.22.152.449.273.686.362.232.093.463.159.691.197a3.486 3.486 0 0 0 1.79-.127c.356-.127.663-.313.921-.559a2.51 2.51 0 0 0 .59-.895c.144-.351.216-.753.216-1.206v-6.722h-1.066l-.057.749a2.314 2.314 0 0 0-.261-.279 1.828 1.828 0 0 0-.285-.223 2.215 2.215 0 0 0-.629-.279 2.832 2.832 0 0 0-.755-.095c-.428 0-.811.087-1.149.26a2.535 2.535 0 0 0-.863.724 3.363 3.363 0 0 0-.546 1.111 5.08 5.08 0 0 0-.184 1.409Zm1.174.133v-.133c0-.335.034-.652.102-.952.071-.305.184-.574.336-.807.148-.228.338-.41.571-.545.237-.136.521-.204.851-.204.194 0 .372.026.533.077.161.046.307.112.438.196.131.089.248.193.349.311.102.119.191.25.267.394v3.148a2.2 2.2 0 0 1-.267.407 1.744 1.744 0 0 1-.343.317 1.653 1.653 0 0 1-.444.21 1.988 1.988 0 0 1-.546.069c-.326 0-.605-.065-.838-.196a1.685 1.685 0 0 1-.571-.546 2.43 2.43 0 0 1-.336-.794 4.301 4.301 0 0 1-.102-.952Zm7.033-3.51v1.022h2.336v4.83h-2.336V197h5.751v-1.016h-2.241v-5.852h-3.51Zm2.184-1.803c0 .191.057.349.171.476.119.127.296.191.533.191.233 0 .409-.064.527-.191a.668.668 0 0 0 .178-.476.81.81 0 0 0-.051-.292.544.544 0 0 0-.152-.222.55.55 0 0 0-.21-.127.777.777 0 0 0-.292-.051.828.828 0 0 0-.298.051.604.604 0 0 0-.362.355.92.92 0 0 0-.044.286Zm8.22.14H166.3v1.663h-1.802v.908h1.802v3.732c0 .423.055.785.165 1.085.115.297.269.538.464.724.194.19.423.33.685.419.267.085.553.127.857.127.182 0 .364-.009.546-.025.186-.017.362-.043.527-.077.165-.029.317-.065.457-.108.14-.046.258-.099.355-.158l-.165-.832-.279.064a12.415 12.415 0 0 1-.755.12 4.133 4.133 0 0 1-.394.019c-.173 0-.338-.021-.495-.063a.999.999 0 0 1-.406-.222 1.007 1.007 0 0 1-.279-.413 1.823 1.823 0 0 1-.102-.66v-3.732h2.615v-.908h-2.615v-1.663Zm6.202 2.685v-3.904h-1.175V197h1.175v-4.989a2.174 2.174 0 0 1 .641-.667 1.975 1.975 0 0 1 1.13-.343 1.83 1.83 0 0 1 .685.108c.199.072.364.182.495.33.123.136.216.307.28.515.063.203.095.44.095.711V197h1.174v-4.323c0-.461-.057-.859-.171-1.193a2.186 2.186 0 0 0-.476-.838 1.842 1.842 0 0 0-.756-.482 2.848 2.848 0 0 0-1.758-.039 2.34 2.34 0 0 0-.667.337 2.481 2.481 0 0 0-.361.311 2.414 2.414 0 0 0-.311.381ZM184.842 197h1.066v-6.868h-1.18v4.926a1.912 1.912 0 0 1-.242.412 1.465 1.465 0 0 1-.33.318c-.152.11-.332.196-.539.26a2.584 2.584 0 0 1-.705.089c-.224 0-.423-.03-.597-.089a.942.942 0 0 1-.431-.311 1.433 1.433 0 0 1-.267-.584 4.06 4.06 0 0 1-.089-.927v-4.094h-1.174v4.081c0 .512.055.953.165 1.321.114.364.275.664.482.901.208.237.457.413.749.527.292.11.618.165.978.165a2.45 2.45 0 0 0 1.187-.279 2.48 2.48 0 0 0 .857-.794l.07.946Zm9.102-3.358v-.133c0-.36-.029-.701-.089-1.022a4.132 4.132 0 0 0-.26-.889 3.49 3.49 0 0 0-.381-.641 2.34 2.34 0 0 0-.488-.495 2.511 2.511 0 0 0-1.498-.457 2.94 2.94 0 0 0-.661.07 2.086 2.086 0 0 0-.939.463 2.153 2.153 0 0 0-.324.33v-3.618h-1.174V197h1.079l.057-.781a2.491 2.491 0 0 0 .508.489c.195.135.413.239.654.311.245.072.516.108.812.108.258 0 .497-.032.718-.095.224-.064.429-.153.615-.267.258-.165.478-.372.66-.622.187-.254.337-.539.451-.857.085-.241.148-.499.191-.774a5.35 5.35 0 0 0 .069-.87Zm-1.174-.133v.133c0 .203-.013.402-.038.597a3.028 3.028 0 0 1-.121.546 2.445 2.445 0 0 1-.273.609 1.553 1.553 0 0 1-.425.451 1.483 1.483 0 0 1-.432.216c-.16.046-.338.069-.533.069-.203 0-.389-.025-.558-.076a1.643 1.643 0 0 1-.457-.228 1.965 1.965 0 0 1-.362-.337 2.536 2.536 0 0 1-.267-.425v-3.002a2.12 2.12 0 0 1 .26-.419c.106-.132.227-.246.362-.343a1.797 1.797 0 0 1 1.01-.299 1.9 1.9 0 0 1 .507.064c.153.042.29.102.413.178.178.105.328.251.451.438.122.186.222.391.298.615.055.182.095.377.121.584.029.203.044.413.044.629Z"/></g><path stroke="#4B5563" stroke-dasharray="1 1" d="M115.5 215v10"/><g clip-path="url(#e)"><rect width="32" height="38" x="100" y="229" fill="#1F2937" rx="4"/><path fill="#9CA3AF" d="M121.75 244.662h-5.609l-1.833-1.753a.131.131 0 0 0-.086-.034h-3.972c-.277 0-.5.223-.5.5v9.25c0 .277.223.5.5.5h11.5c.277 0 .5-.223.5-.5v-7.463a.5.5 0 0 0-.5-.5Zm-.625 7.338h-10.25v-8h2.945l1.869 1.787h5.436V252ZM145.906 253h1.225v-.102a3.21 3.21 0 0 1-.177-.666 4.453 4.453 0 0 1-.064-.73v-3.193c0-.385-.07-.721-.209-1.009a2.087 2.087 0 0 0-.572-.724 2.493 2.493 0 0 0-.869-.425 3.885 3.885 0 0 0-1.086-.146c-.427 0-.81.059-1.149.178a2.816 2.816 0 0 0-.85.463 2.143 2.143 0 0 0-.546.654 1.676 1.676 0 0 0-.191.736h1.181c0-.144.034-.281.102-.412.072-.136.171-.252.298-.35.127-.097.281-.175.463-.234.187-.06.396-.089.629-.089.249 0 .474.031.673.095.203.063.374.152.514.266.139.119.247.261.324.426.076.165.114.351.114.558v.54h-1.282c-.479 0-.912.046-1.302.14a2.994 2.994 0 0 0-.99.419c-.275.19-.489.427-.641.71a2.114 2.114 0 0 0-.222.991c0 .287.055.556.165.806.114.245.275.457.482.635.203.182.451.325.743.431.296.106.626.159.99.159.224 0 .436-.023.635-.07a2.81 2.81 0 0 0 1.041-.47c.148-.105.281-.218.4-.336.013.144.032.284.057.419.03.131.068.241.114.33Zm-2.075-.895c-.229 0-.43-.03-.603-.089a1.195 1.195 0 0 1-.432-.247.995.995 0 0 1-.26-.369 1.299 1.299 0 0 1-.083-.469c0-.178.032-.337.095-.476.068-.14.165-.261.292-.362.178-.144.417-.25.718-.318.304-.072.66-.108 1.066-.108h1.092v1.391a1.712 1.712 0 0 1-.279.393 2.078 2.078 0 0 1-.419.33 2.4 2.4 0 0 1-.546.235 2.247 2.247 0 0 1-.641.089Zm5.363 3.536h1.175v-3.301c.084.093.175.18.273.26.097.076.201.146.311.21.182.101.385.179.609.234.229.055.474.083.736.083a2.406 2.406 0 0 0 2-1.003c.228-.313.402-.681.52-1.104.119-.428.178-.887.178-1.378v-.133a5.24 5.24 0 0 0-.178-1.409 3.328 3.328 0 0 0-.52-1.111 2.423 2.423 0 0 0-.851-.724 2.53 2.53 0 0 0-1.168-.26c-.249 0-.484.027-.704.082a2.196 2.196 0 0 0-.591.229 2.194 2.194 0 0 0-.66.565l-.057-.749h-1.073v9.509Zm4.628-6.132v.133c0 .334-.038.654-.114.959a2.53 2.53 0 0 1-.337.806 1.75 1.75 0 0 1-.584.558 1.666 1.666 0 0 1-.844.203c-.203 0-.389-.025-.559-.076a1.718 1.718 0 0 1-.45-.209 1.405 1.405 0 0 1-.318-.279 2.378 2.378 0 0 1-.247-.356v-3.307c.08-.144.173-.275.279-.394.106-.118.226-.218.362-.298.122-.08.26-.142.412-.184.157-.042.326-.064.508-.064.33 0 .614.068.851.204.237.135.434.317.59.545.152.233.265.502.337.807.076.3.114.617.114.952Zm3.37-3.377v1.022h2.336v4.83h-2.336V253h5.751v-1.016h-2.24v-5.852h-3.511Zm2.184-1.803c0 .191.057.349.171.476.119.127.297.191.534.191.232 0 .408-.064.526-.191a.668.668 0 0 0 .178-.476.81.81 0 0 0-.051-.292.535.535 0 0 0-.152-.222.553.553 0 0 0-.209-.127.78.78 0 0 0-.292-.051c-.11 0-.21.017-.299.051a.604.604 0 0 0-.362.355.92.92 0 0 0-.044.286Z"/></g><path stroke="#4B5563" stroke-dasharray="1 1" d="M115.5 271v10M115.5 285v10"/><g clip-path="url(#f)"><rect width="32" height="38" x="100" y="299" fill="#1F2937" rx="4"/><path fill="#9CA3AF" d="M121.75 314.662h-5.609l-1.833-1.753a.131.131 0 0 0-.086-.034h-3.972c-.277 0-.5.223-.5.5v9.25c0 .277.223.5.5.5h11.5c.277 0 .5-.223.5-.5v-7.463a.5.5 0 0 0-.5-.5Zm-.625 7.338h-10.25v-8h2.945l1.869 1.787h5.436V322ZM143.126 323h1.181v-5.96h2.647v-.908h-2.647v-.483c0-.287.036-.539.108-.755.076-.216.186-.391.33-.527.135-.131.304-.228.507-.292.208-.068.445-.101.711-.101.263 0 .508.023.737.069.232.043.436.094.609.153l.14-.971a5.39 5.39 0 0 0-.324-.077 6.057 6.057 0 0 0-.806-.139 3.968 3.968 0 0 0-.502-.032c-.406 0-.774.057-1.104.171-.33.115-.612.284-.844.508a2.302 2.302 0 0 0-.553.838c-.127.33-.19.715-.19 1.155v.483h-1.892v.908h1.892V323Zm10.556-6.995c-.499 0-.946.11-1.339.33a3.12 3.12 0 0 0-1.003.889l-.007-.172-.05-.92h-1.117V323h1.18v-4.405c.076-.212.172-.402.286-.572.118-.173.256-.319.412-.438.174-.135.377-.237.61-.304.233-.072.493-.108.781-.108.224 0 .438.013.641.038.207.021.425.057.653.108l.159-1.149a2.086 2.086 0 0 0-.533-.121 5.451 5.451 0 0 0-.673-.044Zm2.977 3.497v.14c0 .495.072.954.216 1.378.144.423.351.791.622 1.104.267.313.593.559.978.736.389.178.827.267 1.314.267.482 0 .916-.089 1.301-.267.385-.177.713-.423.984-.736.266-.313.472-.681.615-1.104.144-.424.216-.883.216-1.378v-.14c0-.495-.072-.954-.216-1.377a3.33 3.33 0 0 0-.615-1.111 2.866 2.866 0 0 0-.991-.736 3.02 3.02 0 0 0-1.307-.273c-.483 0-.916.091-1.301.273a2.826 2.826 0 0 0-.978.736 3.275 3.275 0 0 0-.622 1.111 4.247 4.247 0 0 0-.216 1.377Zm1.174.14v-.14c0-.334.041-.653.121-.958a2.48 2.48 0 0 1 .368-.813c.161-.232.362-.416.603-.552.242-.139.525-.209.851-.209.326 0 .609.07.85.209.246.136.451.32.616.552.161.233.282.504.362.813.085.305.127.624.127.958v.14c0 .339-.04.662-.121.971-.08.305-.201.574-.361.806a1.851 1.851 0 0 1-.616.553 1.7 1.7 0 0 1-.844.203c-.326 0-.612-.068-.857-.203a1.776 1.776 0 0 1-.61-.553 2.47 2.47 0 0 1-.368-.806 3.856 3.856 0 0 1-.121-.971Zm6.964 3.358h1.174v-4.926a2.39 2.39 0 0 1 .279-.406 2.35 2.35 0 0 1 .356-.324c.157-.106.328-.188.514-.247.186-.064.387-.096.603-.096.25 0 .47.03.66.089.195.06.36.155.495.286.132.131.231.303.299.514.067.212.101.47.101.775V323h1.175v-4.361c0-.457-.057-.85-.172-1.181a2.125 2.125 0 0 0-.476-.825 1.872 1.872 0 0 0-.755-.476 2.978 2.978 0 0 0-.978-.152 2.651 2.651 0 0 0-1.422.432 2.411 2.411 0 0 0-.387.317c-.118.118-.228.25-.33.393l-.082-1.015h-1.054V323Zm10.588-8.531h-1.181v1.663h-1.803v.908h1.803v3.732c0 .423.055.785.165 1.085.114.297.269.538.464.724.194.19.423.33.685.419.267.085.552.127.857.127.182 0 .364-.009.546-.025.186-.017.362-.043.527-.077.165-.029.317-.065.457-.108.139-.046.258-.099.355-.158l-.165-.832-.279.064a11.966 11.966 0 0 1-.755.12 4.133 4.133 0 0 1-.394.019c-.174 0-.339-.021-.495-.063a1.018 1.018 0 0 1-.686-.635 1.847 1.847 0 0 1-.101-.66v-3.732H178v-.908h-2.615v-1.663Zm8.061 8.658c.669 0 1.23-.133 1.682-.4.457-.271.8-.58 1.029-.927l-.718-.558a2.424 2.424 0 0 1-.812.673 2.39 2.39 0 0 1-1.117.253c-.318 0-.607-.059-.87-.177a2.013 2.013 0 0 1-.673-.489 2.22 2.22 0 0 1-.431-.673 3.078 3.078 0 0 1-.197-.882v-.045h4.907v-.527c0-.478-.062-.922-.184-1.333a3.036 3.036 0 0 0-.546-1.072 2.527 2.527 0 0 0-.927-.705c-.368-.173-.8-.26-1.295-.26-.394 0-.779.08-1.155.241a3.091 3.091 0 0 0-.997.692 3.427 3.427 0 0 0-.711 1.117c-.178.436-.266.931-.266 1.486v.266c0 .478.08.921.241 1.327.161.406.385.757.673 1.054.287.296.632.526 1.034.691.407.165.851.248 1.333.248Zm-.152-6.157c.3 0 .559.055.774.165.22.11.402.254.546.431.144.178.256.39.337.635.08.241.12.468.12.679v.058h-3.694c.047-.318.127-.597.241-.838.119-.246.263-.453.432-.622.169-.166.36-.29.571-.375a1.72 1.72 0 0 1 .673-.133Zm4.926 6.03h1.174v-4.926c.08-.148.174-.283.279-.406.11-.123.229-.231.356-.324.156-.106.328-.188.514-.247.186-.064.387-.096.603-.096.25 0 .47.03.66.089.195.06.36.155.495.286.131.131.231.303.299.514.067.212.101.47.101.775V323h1.174v-4.361c0-.457-.057-.85-.171-1.181a2.138 2.138 0 0 0-.476-.825 1.872 1.872 0 0 0-.755-.476 2.978 2.978 0 0 0-.978-.152 2.663 2.663 0 0 0-1.422.432 2.411 2.411 0 0 0-.387.317c-.118.118-.228.25-.33.393l-.083-1.015h-1.053V323Zm7.585-3.491v.133c0 .491.066.95.197 1.378.131.423.315.791.552 1.104.237.313.523.559.857.736.339.178.715.267 1.13.267a2.67 2.67 0 0 0 1.111-.216c.317-.144.59-.355.819-.635l.05.724h1.08v-9.75h-1.175v3.561a2.216 2.216 0 0 0-.8-.597 2.56 2.56 0 0 0-1.072-.209c-.419 0-.798.087-1.137.26a2.544 2.544 0 0 0-.863.724 3.38 3.38 0 0 0-.558 1.111 4.93 4.93 0 0 0-.191 1.409Zm1.174.133v-.133c0-.335.036-.652.108-.952.072-.305.184-.574.337-.807.148-.228.338-.41.571-.545.237-.136.521-.204.851-.204.385 0 .706.091.965.273.258.178.463.407.615.686v3.186c-.152.301-.357.54-.615.718-.259.178-.584.266-.978.266-.326 0-.605-.065-.838-.196a1.685 1.685 0 0 1-.571-.546 2.432 2.432 0 0 1-.337-.794 4.072 4.072 0 0 1-.108-.952Z"/></g><path stroke="#4B5563" stroke-dasharray="1 1" d="M115.5 341v10M115.5 355v10"/><g clip-path="url(#g)"><path fill="#6B7280" d="m121.353 376.509-3.362-3.362a.5.5 0 0 0-.354-.147H111c-.277 0-.5.223-.5.5v13c0 .277.223.5.5.5h10c.277 0 .5-.223.5-.5v-9.636a.503.503 0 0 0-.147-.355Zm-1.006.585h-2.941v-2.941l2.941 2.941Zm.028 8.781h-8.75v-11.75h4.719v3.375a.656.656 0 0 0 .656.656h3.375v7.719Z"/><path fill="#9CA3AF" d="m144.53 381.229 1.815 3.771h1.238l.006-.076-1.961-3.948a3.53 3.53 0 0 0 .698-.4c.212-.157.394-.337.546-.54a2.47 2.47 0 0 0 .489-1.504c0-.466-.083-.87-.248-1.213a2.38 2.38 0 0 0-.666-.863 2.969 2.969 0 0 0-1.003-.514 4.525 4.525 0 0 0-1.219-.184h-2.71V385h1.168v-3.771h1.847Zm-1.847-.964v-3.542h1.542c.284.004.544.044.781.12.241.076.448.189.622.337.173.152.309.34.406.565.098.22.146.478.146.774 0 .279-.051.527-.152.743a1.628 1.628 0 0 1-.413.539 1.934 1.934 0 0 1-.615.343 2.54 2.54 0 0 1-.743.121h-1.574Zm11.679.463v-.997h-3.859v-2.97h4.443v-1.003h-5.617V385h5.674v-.997h-4.5v-3.275h3.859Zm7.135 1.879.73 2.393h1.168l-2.933-9.242h-.983L156.495 385h1.174l.743-2.393h3.085Zm-2.768-1.022 1.238-4.012 1.219 4.012h-2.457Zm6.043 3.415h2.14a4.936 4.936 0 0 0 1.237-.159c.386-.101.73-.247 1.035-.438.288-.182.548-.402.781-.66.233-.258.425-.546.577-.863.149-.305.261-.639.337-1.003.08-.364.121-.749.121-1.155v-.68a5.659 5.659 0 0 0-.134-1.193 4.343 4.343 0 0 0-.355-1.028 3.257 3.257 0 0 0-.699-.971 3.468 3.468 0 0 0-.996-.686 4.067 4.067 0 0 0-.889-.292 4.823 4.823 0 0 0-1.015-.114h-2.14V385Zm1.194-8.277h.946c.292.004.56.038.806.101.245.059.467.144.666.254a2.2 2.2 0 0 1 .705.584c.195.237.349.504.463.8.089.228.155.476.197.743.047.262.072.537.076.825v.692a5.559 5.559 0 0 1-.07.819 3.716 3.716 0 0 1-.19.723 2.762 2.762 0 0 1-.4.749c-.165.22-.362.406-.59.559a2.573 2.573 0 0 1-.743.343c-.275.08-.582.122-.92.127h-.946v-7.319Zm8.023-.965h-1.453V385h1.142v-3.688l-.095-3.726 1.568 4.843h.673l1.707-4.976-.095 3.859V385h1.143v-9.242h-1.46l-1.625 4.621-1.505-4.621Zm11.604 4.97v-.997h-3.86v-2.97h4.444v-1.003h-5.618V385h5.675v-.997h-4.501v-3.275h3.86Zm4.767 3.51c0 .246.076.455.228.629.157.169.388.254.692.254.301 0 .531-.085.692-.254a.878.878 0 0 0 .241-.629.907.907 0 0 0-.241-.641c-.156-.178-.387-.266-.692-.266-.309 0-.539.088-.692.266a.955.955 0 0 0-.228.641Zm7.052-8.48h-1.454V385h1.143v-3.688l-.095-3.726 1.568 4.843h.673l1.707-4.976-.095 3.859V385h1.142v-9.242h-1.459l-1.625 4.621-1.505-4.621Zm6.399 9.242h2.139a4.95 4.95 0 0 0 1.238-.159 3.704 3.704 0 0 0 1.034-.438c.288-.182.548-.402.781-.66a3.64 3.64 0 0 0 .578-.863 4.3 4.3 0 0 0 .336-1.003c.08-.364.121-.749.121-1.155v-.68a5.659 5.659 0 0 0-.134-1.193 4.343 4.343 0 0 0-.355-1.028 3.254 3.254 0 0 0-.698-.971 3.487 3.487 0 0 0-.997-.686 4.067 4.067 0 0 0-.889-.292 4.823 4.823 0 0 0-1.015-.114h-2.139V385Zm1.193-8.277h.946c.292.004.56.038.806.101.245.059.467.144.666.254.28.148.515.343.705.584.195.237.349.504.463.8.089.228.155.476.197.743.047.262.072.537.076.825v.692a5.559 5.559 0 0 1-.07.819 3.716 3.716 0 0 1-.19.723 2.762 2.762 0 0 1-.4.749c-.165.22-.362.406-.59.559a2.573 2.573 0 0 1-.743.343c-.275.08-.582.122-.92.127h-.946v-7.319Z"/></g><path stroke="#4B5563" stroke-dasharray="1 1" d="M115.5 395v10"/><g clip-path="url(#h)"><path fill="#6B7280" d="m121.353 416.509-3.362-3.362a.5.5 0 0 0-.354-.147H111c-.277 0-.5.223-.5.5v13c0 .277.223.5.5.5h10c.277 0 .5-.223.5-.5v-9.636a.503.503 0 0 0-.147-.355Zm-1.006.585h-2.941v-2.941l2.941 2.941Zm.028 8.781h-8.75v-11.75h4.719v3.375a.656.656 0 0 0 .656.656h3.375v7.719Z"/><path fill="#9CA3AF" d="M141.252 427.641h1.175v-3.301c.084.093.175.18.273.26.097.076.201.146.311.21.182.101.385.179.609.234.229.055.474.083.736.083a2.406 2.406 0 0 0 2-1.003c.228-.313.402-.681.52-1.104.119-.428.178-.887.178-1.378v-.133a5.24 5.24 0 0 0-.178-1.409 3.328 3.328 0 0 0-.52-1.111 2.423 2.423 0 0 0-.851-.724 2.528 2.528 0 0 0-1.168-.26c-.249 0-.484.027-.704.082a2.196 2.196 0 0 0-.591.229 2.194 2.194 0 0 0-.66.565l-.057-.749h-1.073v9.509Zm4.628-6.132v.133c0 .334-.038.654-.114.959a2.508 2.508 0 0 1-.337.806 1.75 1.75 0 0 1-.584.558 1.666 1.666 0 0 1-.844.203c-.203 0-.389-.025-.559-.076a1.718 1.718 0 0 1-.45-.209 1.405 1.405 0 0 1-.318-.279 2.378 2.378 0 0 1-.247-.356v-3.307c.08-.144.173-.275.279-.394.106-.118.226-.218.362-.298.123-.08.26-.142.412-.184.157-.042.326-.064.508-.064.33 0 .614.068.851.204.237.135.434.317.59.545.153.233.265.502.337.807.076.3.114.617.114.952Zm7.7 3.491h1.225v-.102a3.207 3.207 0 0 1-.178-.666 4.566 4.566 0 0 1-.064-.73v-3.193c0-.385-.069-.721-.209-1.009a2.096 2.096 0 0 0-.571-.724 2.506 2.506 0 0 0-.87-.425 3.878 3.878 0 0 0-1.085-.146c-.428 0-.811.059-1.149.178a2.81 2.81 0 0 0-.851.463 2.143 2.143 0 0 0-.546.654 1.674 1.674 0 0 0-.19.736h1.18c0-.144.034-.281.102-.412.072-.136.171-.252.298-.35.127-.097.282-.175.464-.234a2.04 2.04 0 0 1 .628-.089c.25 0 .474.031.673.095.203.063.375.152.514.266.14.119.248.261.324.426.076.165.114.351.114.558v.54h-1.282a5.55 5.55 0 0 0-1.301.14 3 3 0 0 0-.991.419c-.275.19-.488.427-.641.71a2.114 2.114 0 0 0-.222.991c0 .287.055.556.165.806.114.245.275.457.483.635.203.182.45.325.742.431.297.106.627.159.991.159.224 0 .435-.023.634-.07a2.772 2.772 0 0 0 1.041-.47c.148-.105.282-.218.4-.336.013.144.032.284.057.419.03.131.068.241.115.33Zm-2.076-.895c-.229 0-.43-.03-.603-.089a1.195 1.195 0 0 1-.432-.247.995.995 0 0 1-.26-.369 1.299 1.299 0 0 1-.083-.469c0-.178.032-.337.096-.476.067-.14.165-.261.292-.362.177-.144.417-.25.717-.318.305-.072.66-.108 1.066-.108h1.092v1.391a1.712 1.712 0 0 1-.279.393 2.05 2.05 0 0 1-.419.33 2.4 2.4 0 0 1-.546.235 2.247 2.247 0 0 1-.641.089Zm8.296.07c-.368 0-.677-.072-.926-.216a1.748 1.748 0 0 1-.591-.578 2.43 2.43 0 0 1-.33-.787 4.286 4.286 0 0 1-.095-.895v-.266c0-.297.032-.591.095-.883a2.51 2.51 0 0 1 .33-.793c.153-.233.351-.421.597-.565.25-.148.556-.222.92-.222.237 0 .457.04.66.12a1.557 1.557 0 0 1 .883.819c.089.182.135.377.139.584h1.111c0-.347-.07-.673-.209-.977a2.436 2.436 0 0 0-.578-.794 2.801 2.801 0 0 0-.889-.52 3.044 3.044 0 0 0-1.117-.197c-.52 0-.975.093-1.364.279-.39.186-.714.436-.972.749a3.25 3.25 0 0 0-.59 1.098 4.3 4.3 0 0 0-.197 1.302v.266c0 .457.066.893.197 1.308.131.41.328.772.59 1.085.258.318.582.569.972.756.389.186.844.279 1.364.279a3.015 3.015 0 0 0 1.936-.692c.258-.207.464-.449.616-.724a1.81 1.81 0 0 0 .241-.876h-1.111a1.082 1.082 0 0 1-.152.534c-.093.16-.218.3-.374.419a1.785 1.785 0 0 1-.54.285 1.89 1.89 0 0 1-.616.102Zm6.938-2.381 2.52 3.206h1.492l-3.206-4.005 2.781-2.863h-1.429l-2.253 2.26-.768.825v-5.967h-1.181V425h1.181v-2.374l.863-.832ZM177.002 425h1.226v-.102a3.146 3.146 0 0 1-.178-.666 4.453 4.453 0 0 1-.064-.73v-3.193c0-.385-.069-.721-.209-1.009a2.096 2.096 0 0 0-.571-.724 2.506 2.506 0 0 0-.87-.425 3.88 3.88 0 0 0-1.086-.146c-.427 0-.81.059-1.148.178a2.81 2.81 0 0 0-.851.463 2.143 2.143 0 0 0-.546.654 1.66 1.66 0 0 0-.19.736h1.18c0-.144.034-.281.102-.412.072-.136.171-.252.298-.35.127-.097.282-.175.464-.234a2.04 2.04 0 0 1 .628-.089c.25 0 .474.031.673.095.203.063.374.152.514.266.14.119.248.261.324.426.076.165.114.351.114.558v.54h-1.282a5.55 5.55 0 0 0-1.301.14 2.991 2.991 0 0 0-.991.419c-.275.19-.488.427-.641.71a2.114 2.114 0 0 0-.222.991c0 .287.055.556.165.806.114.245.275.457.482.635.204.182.451.325.743.431.296.106.626.159.99.159.225 0 .436-.023.635-.07a2.772 2.772 0 0 0 1.041-.47c.148-.105.282-.218.4-.336.013.144.032.284.057.419.03.131.068.241.114.33Zm-2.075-.895c-.229 0-.43-.03-.603-.089a1.195 1.195 0 0 1-.432-.247.995.995 0 0 1-.26-.369 1.299 1.299 0 0 1-.083-.469c0-.178.032-.337.096-.476.067-.14.165-.261.292-.362.177-.144.416-.25.717-.318.304-.072.66-.108 1.066-.108h1.092v1.391a1.712 1.712 0 0 1-.279.393 2.05 2.05 0 0 1-.419.33 2.4 2.4 0 0 1-.546.235 2.247 2.247 0 0 1-.641.089Zm5.154-2.596v.133c0 .491.064.95.19 1.378.127.423.309.791.546 1.104.233.313.519.559.857.736.339.178.718.267 1.137.267.249 0 .482-.028.698-.083.216-.05.412-.124.59-.222.114-.063.22-.137.318-.222.101-.085.196-.178.285-.279v.59c0 .296-.042.559-.127.787a1.51 1.51 0 0 1-.362.572c-.16.156-.353.275-.577.355-.225.08-.476.121-.756.121-.156 0-.313-.017-.469-.051a2.148 2.148 0 0 1-.933-.445 2.816 2.816 0 0 1-.445-.438l-.609.705c.156.224.343.413.558.565.22.152.449.273.686.362.233.093.463.159.692.197a3.492 3.492 0 0 0 1.79-.127c.355-.127.662-.313.92-.559.254-.245.451-.544.591-.895.144-.351.215-.753.215-1.206v-6.722h-1.066l-.057.749a2.23 2.23 0 0 0-.26-.279 2.209 2.209 0 0 0-.914-.502 2.845 2.845 0 0 0-.756-.095c-.427 0-.81.087-1.149.26a2.544 2.544 0 0 0-.863.724 3.363 3.363 0 0 0-.546 1.111 5.08 5.08 0 0 0-.184 1.409Zm1.174.133v-.133c0-.335.034-.652.102-.952.072-.305.184-.574.336-.807.148-.228.339-.41.572-.545a1.68 1.68 0 0 1 .85-.204c.195 0 .373.026.533.077.161.046.307.112.438.196.132.089.248.193.35.311.101.119.19.25.266.394v3.148a2.248 2.248 0 0 1-.266.407 1.772 1.772 0 0 1-.343.317 1.66 1.66 0 0 1-.445.21c-.16.046-.342.069-.545.069a1.68 1.68 0 0 1-.838-.196 1.688 1.688 0 0 1-.572-.546 2.452 2.452 0 0 1-.336-.794 4.301 4.301 0 0 1-.102-.952Zm9.884 3.485c.668 0 1.229-.133 1.682-.4.457-.271.8-.58 1.028-.927l-.717-.558a2.438 2.438 0 0 1-.813.673 2.39 2.39 0 0 1-1.117.253c-.317 0-.607-.059-.869-.177a2.003 2.003 0 0 1-.673-.489 2.242 2.242 0 0 1-.432-.673 3.112 3.112 0 0 1-.197-.882v-.045h4.907v-.527c0-.478-.061-.922-.184-1.333a3.036 3.036 0 0 0-.546-1.072 2.51 2.51 0 0 0-.927-.705c-.368-.173-.8-.26-1.295-.26-.393 0-.778.08-1.155.241a3.102 3.102 0 0 0-.997.692 3.408 3.408 0 0 0-.71 1.117 3.902 3.902 0 0 0-.267 1.486v.266c0 .478.08.921.241 1.327a3.029 3.029 0 0 0 1.708 1.745c.406.165.85.248 1.333.248Zm-.153-6.157c.301 0 .559.055.775.165.22.11.402.254.546.431.144.178.256.39.336.635.08.241.121.468.121.679v.058h-3.695c.047-.318.127-.597.242-.838.118-.246.262-.453.431-.622.169-.166.36-.29.571-.375a1.72 1.72 0 0 1 .673-.133Zm6.97 5.268c0 .246.076.455.229.629.156.169.387.254.691.254.301 0 .532-.085.692-.254a.88.88 0 0 0 .242-.629.908.908 0 0 0-.242-.641c-.156-.178-.387-.266-.692-.266-.308 0-.539.088-.691.266a.95.95 0 0 0-.229.641Zm6.557-6.106v1.022h2.292v5.89c0 .326-.043.599-.127.819a1.359 1.359 0 0 1-.337.54c-.144.135-.313.23-.508.285-.194.06-.402.089-.622.089-.059 0-.141-.002-.247-.006-.102 0-.207-.004-.318-.013a4.083 4.083 0 0 1-.336-.025 2.97 2.97 0 0 1-.273-.032l-.082.965c.105.017.207.032.304.044.098.017.195.03.292.039a11.73 11.73 0 0 0 .743.025c.423 0 .8-.061 1.13-.184a2.24 2.24 0 0 0 .85-.527c.229-.229.402-.512.521-.851.123-.338.184-.727.184-1.168v-6.912h-3.466Zm2.127-1.809c0 .19.057.351.171.482.114.127.29.191.527.191.237 0 .415-.064.533-.191a.69.69 0 0 0 .178-.482.693.693 0 0 0-.178-.483c-.118-.135-.296-.203-.533-.203-.237 0-.413.068-.527.203a.712.712 0 0 0-.171.483Zm9.451 6.855c0 .11-.021.214-.063.311a.864.864 0 0 1-.184.267 1.35 1.35 0 0 1-.546.311 2.784 2.784 0 0 1-.819.108c-.199 0-.4-.021-.603-.064a1.713 1.713 0 0 1-.552-.215 1.378 1.378 0 0 1-.426-.4 1.24 1.24 0 0 1-.19-.61h-1.174c0 .292.065.574.196.844.136.271.331.508.584.711.25.208.557.375.921.502a3.88 3.88 0 0 0 1.244.184 4.12 4.12 0 0 0 1.124-.146c.342-.097.636-.235.882-.413.245-.177.436-.391.571-.641.14-.249.21-.527.21-.831 0-.284-.062-.534-.184-.749a1.745 1.745 0 0 0-.521-.572 3.352 3.352 0 0 0-.844-.412 8.852 8.852 0 0 0-1.136-.311 7.372 7.372 0 0 1-.8-.197 1.915 1.915 0 0 1-.495-.229.731.731 0 0 1-.267-.285.826.826 0 0 1-.076-.362c0-.131.032-.258.095-.381a.949.949 0 0 1 .286-.324c.122-.093.277-.167.463-.222.191-.055.411-.082.66-.082.241 0 .457.034.648.101.194.068.359.157.495.267.135.11.241.237.317.381a.888.888 0 0 1 .114.431h1.175c0-.3-.066-.579-.197-.838a2.025 2.025 0 0 0-.546-.685 2.617 2.617 0 0 0-.863-.457 3.694 3.694 0 0 0-1.143-.165c-.393 0-.755.053-1.085.159a2.762 2.762 0 0 0-.844.431 2.002 2.002 0 0 0-.553.641 1.614 1.614 0 0 0-.196.781c0 .284.063.533.19.749.127.212.307.396.54.552.228.161.503.299.825.413.326.114.685.212 1.079.292.321.063.59.135.806.216.216.076.389.161.52.254a.822.822 0 0 1 .28.311c.055.11.082.235.082.374Zm2.914-1.676v.14c0 .495.072.954.216 1.378.144.423.351.791.622 1.104a2.8 2.8 0 0 0 .977.736c.39.178.828.267 1.314.267a3.07 3.07 0 0 0 1.302-.267 2.86 2.86 0 0 0 .983-.736c.267-.313.472-.681.616-1.104.144-.424.216-.883.216-1.378v-.14c0-.495-.072-.954-.216-1.377a3.332 3.332 0 0 0-.616-1.111c-.27-.313-.6-.558-.99-.736a3.023 3.023 0 0 0-1.307-.273 3.01 3.01 0 0 0-1.302.273 2.813 2.813 0 0 0-.977.736 3.275 3.275 0 0 0-.622 1.111 4.247 4.247 0 0 0-.216 1.377Zm1.174.14v-.14c0-.334.04-.653.121-.958.08-.309.203-.58.368-.813.161-.232.362-.416.603-.552.241-.139.525-.209.851-.209.325 0 .609.07.85.209.246.136.451.32.616.552.161.233.281.504.362.813.084.305.127.624.127.958v.14c0 .339-.041.662-.121.971-.08.305-.201.574-.362.806-.165.233-.37.417-.615.553a1.704 1.704 0 0 1-.845.203c-.326 0-.611-.068-.857-.203a1.782 1.782 0 0 1-.609-.553 2.45 2.45 0 0 1-.368-.806 3.81 3.81 0 0 1-.121-.971Zm6.964 3.358h1.174v-4.926a2.28 2.28 0 0 1 .279-.406c.11-.123.229-.231.356-.324.156-.106.328-.188.514-.247.186-.064.387-.096.603-.096.25 0 .47.03.66.089.195.06.36.155.495.286.131.131.231.303.298.514.068.212.102.47.102.775V425h1.174v-4.361c0-.457-.057-.85-.171-1.181a2.138 2.138 0 0 0-.476-.825 1.872 1.872 0 0 0-.755-.476 2.978 2.978 0 0 0-.978-.152 2.652 2.652 0 0 0-1.422.432 2.411 2.411 0 0 0-.387.317c-.119.118-.229.25-.33.393l-.083-1.015h-1.053V425Z"/></g><path stroke="#4B5563" stroke-dasharray="1 1" d="M115.5 435v10"/><g clip-path="url(#i)"><path fill="#6B7280" d="m121.353 456.509-3.362-3.362a.5.5 0 0 0-.354-.147H111c-.277 0-.5.223-.5.5v13c0 .277.223.5.5.5h10c.277 0 .5-.223.5-.5v-9.636a.503.503 0 0 0-.147-.355Zm-1.006.585h-2.941v-2.941l2.941 2.941Zm.028 8.781h-8.75v-11.75h4.719v3.375a.656.656 0 0 0 .656.656h3.375v7.719Z"/><path fill="#9CA3AF" d="M143.322 464.238c0 .246.076.455.228.629.157.169.388.254.692.254.301 0 .531-.085.692-.254a.878.878 0 0 0 .241-.629.907.907 0 0 0-.241-.641c-.156-.178-.387-.266-.692-.266-.309 0-.539.088-.692.266a.955.955 0 0 0-.228.641Zm7.807 0c0 .246.077.455.229.629.156.169.387.254.692.254.3 0 .531-.085.692-.254a.878.878 0 0 0 .241-.629.907.907 0 0 0-.241-.641c-.157-.178-.388-.266-.692-.266-.309 0-.54.088-.692.266a.956.956 0 0 0-.229.641Zm7.808 0c0 .246.076.455.229.629.156.169.387.254.691.254.301 0 .532-.085.692-.254a.88.88 0 0 0 .242-.629.908.908 0 0 0-.242-.641c-.156-.178-.387-.266-.692-.266-.308 0-.539.088-.691.266a.95.95 0 0 0-.229.641Zm7.808 0c0 .246.076.455.228.629.157.169.387.254.692.254.3 0 .531-.085.692-.254a.878.878 0 0 0 .241-.629.907.907 0 0 0-.241-.641c-.157-.178-.387-.266-.692-.266-.309 0-.54.088-.692.266a.955.955 0 0 0-.228.641Zm7.807 0c0 .246.076.455.229.629.156.169.387.254.692.254.3 0 .531-.085.692-.254a.883.883 0 0 0 .241-.629.912.912 0 0 0-.241-.641c-.157-.178-.388-.266-.692-.266-.309 0-.54.088-.692.266a.95.95 0 0 0-.229.641Zm7.808 0c0 .246.076.455.228.629.157.169.388.254.692.254.301 0 .531-.085.692-.254a.878.878 0 0 0 .241-.629.907.907 0 0 0-.241-.641c-.156-.178-.387-.266-.692-.266-.309 0-.539.088-.692.266a.955.955 0 0 0-.228.641Zm7.807 0c0 .246.077.455.229.629.157.169.387.254.692.254.3 0 .531-.085.692-.254a.878.878 0 0 0 .241-.629.907.907 0 0 0-.241-.641c-.157-.178-.387-.266-.692-.266-.309 0-.54.088-.692.266a.956.956 0 0 0-.229.641Z"/></g><g clip-path="url(#j)"><path fill="#E11D48" d="m280.353 91.51-3.362-3.363a.501.501 0 0 0-.354-.147H270a.5.5 0 0 0-.5.5v13c0 .277.223.5.5.5h10c.277 0 .5-.223.5-.5v-9.636a.502.502 0 0 0-.147-.355Zm-1.006.584h-2.941v-2.94l2.941 2.94Zm.028 8.781h-8.75v-11.75h4.719V92.5a.656.656 0 0 0 .656.656h3.375v7.719Z"/><path fill="#9CA3AF" d="M306.061 96.464V94.3c0-.588-.068-1.109-.204-1.562a3.29 3.29 0 0 0-.584-1.155 2.486 2.486 0 0 0-.945-.71 3.064 3.064 0 0 0-1.264-.249c-.469 0-.89.083-1.263.248-.368.16-.679.398-.933.711a3.233 3.233 0 0 0-.59 1.155c-.136.453-.203.974-.203 1.562v2.164c0 .589.067 1.111.203 1.568.135.453.332.834.59 1.143.258.317.574.556.946.717.372.157.793.235 1.263.235.474 0 .895-.08 1.263-.241.368-.161.68-.398.933-.711.254-.31.449-.69.584-1.143.136-.457.204-.98.204-1.568Zm-4.806-.234v-2.19c0-.432.043-.81.127-1.137.089-.33.222-.599.4-.806.148-.165.328-.29.54-.374.216-.09.463-.134.742-.134.276 0 .517.04.724.121.212.08.389.201.533.362.148.156.265.353.349.59.089.233.151.502.184.806l-3.599 2.761Zm3.625.482c0 .453-.047.846-.14 1.18-.089.335-.23.606-.425.813-.144.152-.32.269-.527.35-.207.08-.444.12-.711.12-.254 0-.482-.036-.685-.108a1.436 1.436 0 0 1-.521-.33 1.737 1.737 0 0 1-.381-.578 3.187 3.187 0 0 1-.203-.819l3.593-2.748v2.12Zm5.23 2.526c0 .246.077.455.229.629.156.169.387.254.692.254.3 0 .531-.085.692-.254a.88.88 0 0 0 .241-.629.911.911 0 0 0-.241-.64c-.157-.179-.388-.267-.692-.267-.309 0-.54.088-.692.266a.954.954 0 0 0-.229.641Zm5.758 3.403h1.174V99.34c.085.093.176.18.273.26.097.076.201.146.311.21.182.101.385.18.609.234.229.055.474.083.737.083.431 0 .814-.089 1.149-.267a2.45 2.45 0 0 0 .85-.736c.229-.313.402-.681.521-1.105.118-.427.177-.886.177-1.377v-.133c0-.512-.059-.982-.177-1.41a3.331 3.331 0 0 0-.521-1.11 2.415 2.415 0 0 0-.85-.724 2.527 2.527 0 0 0-1.168-.26c-.25 0-.485.027-.705.082-.216.051-.413.127-.59.229-.127.068-.246.15-.356.248-.11.093-.211.198-.304.317l-.058-.75h-1.072v9.51Zm4.627-6.132v.133c0 .334-.038.654-.114.959a2.5 2.5 0 0 1-.337.806 1.75 1.75 0 0 1-.584.558 1.673 1.673 0 0 1-.844.203 1.755 1.755 0 0 1-1.009-.286 1.406 1.406 0 0 1-.317-.279 2.26 2.26 0 0 1-.248-.355v-3.307c.08-.144.173-.275.279-.394.106-.118.227-.218.362-.298.123-.08.26-.142.413-.184a1.94 1.94 0 0 1 .508-.064c.33 0 .613.068.85.204.237.135.434.317.59.546a2.5 2.5 0 0 1 .337.806c.076.3.114.617.114.952Zm7.687-3.504c-.499 0-.946.11-1.339.33-.39.216-.724.512-1.003.889l-.007-.172-.05-.92h-1.117V100h1.18v-4.405a2.58 2.58 0 0 1 .286-.572c.118-.173.256-.32.412-.438.174-.135.377-.236.61-.304.233-.072.493-.108.781-.108.224 0 .438.013.641.038.207.021.425.057.653.108l.159-1.15a2.08 2.08 0 0 0-.533-.12 5.339 5.339 0 0 0-.673-.044Zm2.977 3.497v.14c0 .495.072.954.216 1.377.144.424.351.792.622 1.105.267.313.593.559.978.736.389.178.827.267 1.314.267.482 0 .916-.089 1.301-.267.385-.177.713-.423.984-.736.266-.313.472-.681.615-1.105a4.25 4.25 0 0 0 .216-1.377v-.14a4.25 4.25 0 0 0-.216-1.377 3.326 3.326 0 0 0-.615-1.11 2.862 2.862 0 0 0-.991-.737 3.021 3.021 0 0 0-1.307-.273c-.483 0-.916.09-1.301.273a2.822 2.822 0 0 0-.978.736 3.271 3.271 0 0 0-.622 1.111 4.25 4.25 0 0 0-.216 1.377Zm1.174.14v-.14c0-.334.041-.653.121-.958.081-.309.203-.58.368-.813.161-.232.362-.416.603-.552.242-.14.525-.21.851-.21.326 0 .609.07.85.21.246.136.451.32.616.552.161.233.282.504.362.813.085.305.127.624.127.958v.14c0 .339-.04.662-.121.971-.08.305-.201.574-.361.806a1.845 1.845 0 0 1-.616.553 1.696 1.696 0 0 1-.844.203c-.326 0-.612-.068-.857-.203a1.77 1.77 0 0 1-.61-.553 2.48 2.48 0 0 1-.368-.806 3.86 3.86 0 0 1-.121-.97Zm9.89 2.533c-.368 0-.677-.072-.927-.216a1.754 1.754 0 0 1-.59-.578 2.436 2.436 0 0 1-.33-.787 4.225 4.225 0 0 1-.095-.895v-.266c0-.297.031-.59.095-.883.068-.292.178-.556.33-.793.152-.233.351-.421.597-.565.249-.148.556-.222.92-.222.237 0 .457.04.66.12a1.55 1.55 0 0 1 .883.819c.088.182.135.377.139.584h1.111c0-.347-.07-.673-.209-.977a2.454 2.454 0 0 0-.578-.794 2.799 2.799 0 0 0-.889-.52 3.065 3.065 0 0 0-1.117-.197c-.52 0-.975.093-1.365.28a2.81 2.81 0 0 0-.971.748 3.238 3.238 0 0 0-.59 1.098 4.295 4.295 0 0 0-.197 1.302v.266c0 .457.066.893.197 1.308.131.41.328.772.59 1.085.258.318.582.57.971.756.39.186.845.279 1.365.279.364 0 .713-.061 1.048-.184a3.16 3.16 0 0 0 .888-.508 2.44 2.44 0 0 0 .616-.724c.156-.279.237-.57.241-.876h-1.111c-.004.19-.055.369-.152.534-.093.16-.218.3-.375.419a1.77 1.77 0 0 1-.539.285 1.896 1.896 0 0 1-.616.102Zm7.916.952c.668 0 1.229-.133 1.682-.4.457-.27.8-.58 1.028-.927l-.717-.558c-.216.279-.487.503-.813.673-.326.169-.698.253-1.117.253-.317 0-.607-.059-.869-.177a1.991 1.991 0 0 1-.673-.489 2.24 2.24 0 0 1-.432-.673 3.111 3.111 0 0 1-.197-.882v-.045h4.907v-.526c0-.479-.061-.923-.184-1.334a3.042 3.042 0 0 0-.546-1.072 2.52 2.52 0 0 0-.927-.705c-.368-.173-.8-.26-1.295-.26-.393 0-.778.08-1.155.241a3.09 3.09 0 0 0-.997.692 3.405 3.405 0 0 0-.71 1.117 3.9 3.9 0 0 0-.267 1.485v.267c0 .478.08.92.241 1.327.161.406.385.757.673 1.053.288.297.633.527 1.035.692.406.165.85.248 1.333.248Zm-.153-6.157c.301 0 .559.055.775.165.22.11.402.254.546.431.144.178.256.39.336.635.08.241.121.468.121.68v.056h-3.695c.047-.317.127-.596.242-.837.118-.246.262-.453.431-.622.169-.165.36-.29.571-.375.212-.089.436-.133.673-.133Zm9.49 4.208c0 .11-.021.214-.063.311a.88.88 0 0 1-.184.267 1.366 1.366 0 0 1-.546.31 2.787 2.787 0 0 1-.819.109c-.199 0-.4-.021-.603-.064a1.722 1.722 0 0 1-.553-.216 1.37 1.37 0 0 1-.425-.4 1.236 1.236 0 0 1-.19-.609h-1.175c0 .292.066.574.197.845.136.27.33.507.584.71.25.208.557.375.921.502.364.123.778.184 1.244.184.406 0 .781-.049 1.123-.146.343-.097.637-.235.883-.413.245-.177.436-.391.571-.64.14-.25.209-.528.209-.832 0-.284-.061-.534-.184-.75a1.741 1.741 0 0 0-.52-.57 3.352 3.352 0 0 0-.844-.413 8.873 8.873 0 0 0-1.137-.311 7.365 7.365 0 0 1-.799-.197 1.944 1.944 0 0 1-.496-.229.735.735 0 0 1-.266-.285.823.823 0 0 1-.076-.362c0-.131.031-.258.095-.38a.94.94 0 0 1 .285-.325c.123-.093.278-.167.464-.222.19-.055.41-.082.66-.082.241 0 .457.034.647.101.195.068.36.157.496.267.135.11.241.237.317.38.076.14.114.284.114.432h1.175c0-.3-.066-.58-.197-.838a2.02 2.02 0 0 0-.546-.685 2.622 2.622 0 0 0-.863-.457 3.694 3.694 0 0 0-1.143-.165c-.394 0-.755.053-1.085.159-.326.105-.608.25-.845.431a1.983 1.983 0 0 0-.552.641 1.61 1.61 0 0 0-.197.781c0 .284.064.533.191.75.127.21.307.395.539.551.229.161.504.299.825.413a8.28 8.28 0 0 0 1.08.292c.321.063.59.135.806.216.216.076.389.16.52.254a.837.837 0 0 1 .28.31c.055.11.082.236.082.375Zm7.808 0c0 .11-.021.214-.064.311a.846.846 0 0 1-.184.267 1.352 1.352 0 0 1-.546.31 2.783 2.783 0 0 1-.819.109c-.199 0-.4-.021-.603-.064a1.708 1.708 0 0 1-.552-.216 1.37 1.37 0 0 1-.425-.4 1.237 1.237 0 0 1-.191-.609h-1.174c0 .292.066.574.197.845.135.27.33.507.584.71.25.208.556.375.92.502.364.123.779.184 1.244.184.407 0 .781-.049 1.124-.146.343-.097.637-.235.882-.413.246-.177.436-.391.572-.64a1.68 1.68 0 0 0 .209-.832c0-.284-.061-.534-.184-.75a1.745 1.745 0 0 0-.521-.57 3.335 3.335 0 0 0-.844-.413 8.855 8.855 0 0 0-1.136-.311 7.39 7.39 0 0 1-.8-.197 1.952 1.952 0 0 1-.495-.229.739.739 0 0 1-.267-.285.837.837 0 0 1-.076-.362c0-.131.032-.258.095-.38a.942.942 0 0 1 .286-.325c.123-.093.277-.167.463-.222.191-.055.411-.082.661-.082.241 0 .457.034.647.101.195.068.36.157.495.267.136.11.241.237.318.38.076.14.114.284.114.432h1.174c0-.3-.065-.58-.197-.838a2.028 2.028 0 0 0-.545-.685 2.618 2.618 0 0 0-.864-.457 3.683 3.683 0 0 0-1.142-.165c-.394 0-.756.053-1.086.159-.326.105-.607.25-.844.431a1.983 1.983 0 0 0-.552.641 1.61 1.61 0 0 0-.197.781c0 .284.063.533.19.75.127.21.307.395.54.551.228.161.503.299.825.413.326.114.686.212 1.079.292.322.063.591.135.806.216.216.076.39.16.521.254a.834.834 0 0 1 .279.31c.055.11.083.236.083.375Zm5.287 1.06c0 .246.076.455.229.629.156.169.387.254.692.254.3 0 .531-.085.692-.254a.88.88 0 0 0 .241-.629.911.911 0 0 0-.241-.64c-.157-.179-.388-.267-.692-.267-.309 0-.54.088-.692.266a.95.95 0 0 0-.229.641Zm6.304-6.106h-1.054V100h1.117v-5.465a.985.985 0 0 1 .095-.19.727.727 0 0 1 .406-.292c.106-.035.229-.052.369-.052.127 0 .237.017.33.051.097.03.177.078.241.146a.63.63 0 0 1 .146.273c.034.11.051.237.051.381V100h1.117v-5.269a.988.988 0 0 1 .076-.285.737.737 0 0 1 .159-.235.743.743 0 0 1 .254-.152c.101-.038.222-.058.361-.058.132 0 .246.017.343.051a.637.637 0 0 1 .254.153.726.726 0 0 1 .146.273c.034.11.051.237.051.38V100h1.117v-5.129c0-.33-.038-.616-.114-.857a1.497 1.497 0 0 0-.33-.596 1.234 1.234 0 0 0-.483-.305 1.801 1.801 0 0 0-.641-.108 1.921 1.921 0 0 0-.482.07c-.144.042-.275.1-.394.171a1.592 1.592 0 0 0-.469.495 1.286 1.286 0 0 0-.172-.285 1.019 1.019 0 0 0-.216-.216 1.197 1.197 0 0 0-.387-.172 1.731 1.731 0 0 0-.489-.063 1.635 1.635 0 0 0-.825.21 1.56 1.56 0 0 0-.546.564l-.031-.647Zm7.045 3.377v.133c0 .491.066.95.197 1.377.131.424.315.792.552 1.105.237.313.523.559.857.736.339.178.716.267 1.13.267.423 0 .794-.072 1.111-.216.317-.144.59-.355.819-.635l.051.724h1.079v-9.75h-1.174v3.561a2.213 2.213 0 0 0-.8-.597 2.557 2.557 0 0 0-1.073-.21 2.452 2.452 0 0 0-2 .985c-.241.309-.427.679-.558 1.11a4.932 4.932 0 0 0-.191 1.41Zm1.175.133v-.133c0-.335.036-.652.108-.952.072-.305.184-.574.336-.806.148-.229.339-.411.571-.546a1.69 1.69 0 0 1 .851-.204c.385 0 .707.091.965.273.258.178.463.407.616.686v3.187c-.153.3-.358.539-.616.717-.258.177-.584.266-.978.266-.326 0-.605-.065-.838-.196a1.683 1.683 0 0 1-.571-.546 2.45 2.45 0 0 1-.336-.794 4.074 4.074 0 0 1-.108-.952Z"/></g><path stroke="#E11D48" stroke-dasharray="1 1" d="M274.5 110v10"/><g clip-path="url(#k)"><path fill="#E11D48" d="m280.353 131.509-3.362-3.362a.5.5 0 0 0-.354-.147H270c-.277 0-.5.223-.5.5v13c0 .277.223.5.5.5h10c.277 0 .5-.223.5-.5v-9.636a.503.503 0 0 0-.147-.355Zm-1.006.585h-2.941v-2.941l2.941 2.941Zm.028 8.781h-8.75v-11.75h4.719v3.375a.656.656 0 0 0 .656.656h3.375v7.719Z"/><path fill="#9CA3AF" d="M304.164 140v-9.242h-.096l-3.497 1.346v1.072l2.418-.92V140h1.175Zm6.043-.762c0 .246.076.455.228.629.157.169.387.254.692.254.3 0 .531-.085.692-.254a.878.878 0 0 0 .241-.629.907.907 0 0 0-.241-.641c-.157-.178-.387-.266-.692-.266-.309 0-.54.088-.692.266a.955.955 0 0 0-.228.641Zm10.264-6.233c-.5 0-.946.11-1.34.33a3.141 3.141 0 0 0-1.003.889l-.006-.172-.051-.92h-1.117V140h1.181v-4.405a2.59 2.59 0 0 1 .285-.572c.119-.173.256-.319.413-.438.174-.135.377-.237.609-.304.233-.072.493-.108.781-.108.224 0 .438.013.641.038.208.021.426.057.654.108l.159-1.149a2.097 2.097 0 0 0-.533-.121 5.451 5.451 0 0 0-.673-.044Zm6.341 7.122c.669 0 1.229-.133 1.682-.4.457-.271.8-.58 1.028-.927l-.717-.558a2.434 2.434 0 0 1-.812.673 2.395 2.395 0 0 1-1.118.253c-.317 0-.607-.059-.869-.177a2.003 2.003 0 0 1-.673-.489 2.242 2.242 0 0 1-.432-.673 3.113 3.113 0 0 1-.196-.882v-.045h4.906v-.527c0-.478-.061-.922-.184-1.333-.118-.41-.3-.768-.546-1.072a2.515 2.515 0 0 0-.926-.705c-.369-.173-.8-.26-1.295-.26-.394 0-.779.08-1.156.241a3.098 3.098 0 0 0-.996.692 3.427 3.427 0 0 0-.711 1.117 3.902 3.902 0 0 0-.267 1.486v.266c0 .478.081.921.241 1.327.161.406.386.757.673 1.054.288.296.633.526 1.035.691a3.51 3.51 0 0 0 1.333.248Zm-.152-6.157c.3 0 .558.055.774.165.22.11.402.254.546.431.144.178.256.39.336.635.081.241.121.468.121.679v.058h-3.694c.046-.318.127-.597.241-.838a2.22 2.22 0 0 1 .432-.622 1.72 1.72 0 0 1 .571-.375c.211-.089.436-.133.673-.133Zm9.489 4.208c0 .11-.021.214-.063.311a.864.864 0 0 1-.184.267 1.35 1.35 0 0 1-.546.311 2.784 2.784 0 0 1-.819.108c-.199 0-.4-.021-.603-.064a1.713 1.713 0 0 1-.552-.215 1.374 1.374 0 0 1-.425-.4 1.24 1.24 0 0 1-.191-.61h-1.174c0 .292.065.574.197.844.135.271.33.508.584.711.249.208.556.375.92.502a3.88 3.88 0 0 0 1.244.184 4.12 4.12 0 0 0 1.124-.146c.342-.097.637-.235.882-.413.245-.177.436-.391.571-.641.14-.249.21-.527.21-.831 0-.284-.062-.534-.184-.749a1.745 1.745 0 0 0-.521-.572 3.352 3.352 0 0 0-.844-.412 8.807 8.807 0 0 0-1.136-.311 7.372 7.372 0 0 1-.8-.197 1.932 1.932 0 0 1-.495-.229.731.731 0 0 1-.267-.285.826.826 0 0 1-.076-.362c0-.131.032-.258.095-.381a.949.949 0 0 1 .286-.324c.123-.093.277-.167.463-.222.191-.055.411-.082.66-.082.242 0 .457.034.648.101.194.068.36.157.495.267.135.11.241.237.317.381a.879.879 0 0 1 .115.431h1.174c0-.3-.066-.579-.197-.838a2.025 2.025 0 0 0-.546-.685 2.617 2.617 0 0 0-.863-.457 3.69 3.69 0 0 0-1.143-.165c-.393 0-.755.053-1.085.159a2.762 2.762 0 0 0-.844.431 2.002 2.002 0 0 0-.553.641 1.614 1.614 0 0 0-.196.781c0 .284.063.533.19.749.127.212.307.396.54.552.228.161.503.299.825.413.326.114.685.212 1.079.292.322.063.59.135.806.216.216.076.389.161.521.254a.827.827 0 0 1 .279.311c.055.11.082.235.082.374Zm6.278 1.949c.669 0 1.23-.133 1.682-.4.457-.271.8-.58 1.029-.927l-.718-.558a2.424 2.424 0 0 1-.812.673 2.39 2.39 0 0 1-1.117.253c-.318 0-.608-.059-.87-.177a2.013 2.013 0 0 1-.673-.489 2.22 2.22 0 0 1-.431-.673 3.078 3.078 0 0 1-.197-.882v-.045h4.907v-.527c0-.478-.062-.922-.185-1.333-.118-.41-.3-.768-.545-1.072a2.527 2.527 0 0 0-.927-.705c-.368-.173-.8-.26-1.295-.26-.394 0-.779.08-1.155.241a3.091 3.091 0 0 0-.997.692 3.427 3.427 0 0 0-.711 1.117c-.178.436-.266.931-.266 1.486v.266c0 .478.08.921.241 1.327.161.406.385.757.673 1.054.287.296.632.526 1.034.691a3.51 3.51 0 0 0 1.333.248Zm-.152-6.157c.3 0 .558.055.774.165.22.11.402.254.546.431.144.178.256.39.337.635.08.241.12.468.12.679v.058h-3.694c.046-.318.127-.597.241-.838.119-.246.262-.453.432-.622a1.72 1.72 0 0 1 .571-.375 1.72 1.72 0 0 1 .673-.133Zm9.439 6.03h1.225v-.102a3.27 3.27 0 0 1-.178-.666 4.56 4.56 0 0 1-.063-.73v-3.193c0-.385-.07-.721-.21-1.009a2.084 2.084 0 0 0-.571-.724 2.489 2.489 0 0 0-.87-.425 3.878 3.878 0 0 0-1.085-.146c-.427 0-.81.059-1.149.178a2.822 2.822 0 0 0-.851.463 2.125 2.125 0 0 0-.545.654 1.662 1.662 0 0 0-.191.736h1.181c0-.144.034-.281.101-.412.072-.136.172-.252.299-.35.127-.097.281-.175.463-.234.186-.06.396-.089.628-.089.25 0 .474.031.673.095.203.063.375.152.514.266.14.119.248.261.324.426.076.165.114.351.114.558v.54h-1.282a5.55 5.55 0 0 0-1.301.14 2.994 2.994 0 0 0-.99.419c-.275.19-.489.427-.641.71a2.102 2.102 0 0 0-.223.991c0 .287.055.556.165.806.115.245.276.457.483.635.203.182.451.325.743.431.296.106.626.159.99.159.224 0 .436-.023.635-.07a2.81 2.81 0 0 0 1.041-.47c.148-.105.281-.218.399-.336.013.144.032.284.058.419.029.131.067.241.114.33Zm-2.076-.895c-.228 0-.429-.03-.603-.089a1.199 1.199 0 0 1-.431-.247.998.998 0 0 1-.261-.369 1.298 1.298 0 0 1-.082-.469c0-.178.031-.337.095-.476.068-.14.165-.261.292-.362.178-.144.417-.25.717-.318.305-.072.66-.108 1.067-.108h1.091v1.391c-.067.135-.16.266-.279.393a2.024 2.024 0 0 1-.419.33 2.4 2.4 0 0 1-.546.235 2.242 2.242 0 0 1-.641.089Zm9.871-6.1c-.5 0-.946.11-1.34.33a3.128 3.128 0 0 0-1.002.889l-.007-.172-.051-.92h-1.117V140h1.181v-4.405a2.59 2.59 0 0 1 .285-.572 1.9 1.9 0 0 1 .413-.438c.174-.135.377-.237.609-.304.233-.072.493-.108.781-.108.225 0 .438.013.641.038.208.021.426.057.654.108l.159-1.149a2.097 2.097 0 0 0-.533-.121 5.451 5.451 0 0 0-.673-.044Zm6.233 6.17c-.368 0-.677-.072-.927-.216a1.754 1.754 0 0 1-.59-.578 2.43 2.43 0 0 1-.33-.787 4.286 4.286 0 0 1-.095-.895v-.266c0-.297.032-.591.095-.883a2.51 2.51 0 0 1 .33-.793c.152-.233.351-.421.597-.565.249-.148.556-.222.92-.222.237 0 .457.04.66.12a1.557 1.557 0 0 1 .883.819c.089.182.135.377.139.584h1.111c0-.347-.07-.673-.209-.977a2.45 2.45 0 0 0-.578-.794 2.801 2.801 0 0 0-.889-.52 3.048 3.048 0 0 0-1.117-.197c-.52 0-.975.093-1.365.279a2.81 2.81 0 0 0-.971.749 3.25 3.25 0 0 0-.59 1.098 4.3 4.3 0 0 0-.197 1.302v.266c0 .457.066.893.197 1.308.131.41.328.772.59 1.085.258.318.582.569.971.756.39.186.845.279 1.365.279a3.015 3.015 0 0 0 1.936-.692c.258-.207.464-.449.616-.724a1.81 1.81 0 0 0 .241-.876h-1.111a1.082 1.082 0 0 1-.152.534c-.093.16-.218.3-.375.419a1.768 1.768 0 0 1-.539.285 1.89 1.89 0 0 1-.616.102Zm6.056-5.021v-3.904h-1.174V140h1.174v-4.989a2.226 2.226 0 0 1 .641-.667 1.975 1.975 0 0 1 1.13-.343c.258-.004.487.032.685.108.199.072.364.182.496.33.122.136.215.307.279.515.063.203.095.44.095.711V140h1.174v-4.323c0-.461-.057-.859-.171-1.193a2.186 2.186 0 0 0-.476-.838 1.832 1.832 0 0 0-.755-.482 2.85 2.85 0 0 0-1.759-.039 2.322 2.322 0 0 0-.666.337 2.437 2.437 0 0 0-.362.311 2.47 2.47 0 0 0-.311.381Zm8.677 5.084c0 .246.076.455.229.629.156.169.387.254.692.254.3 0 .531-.085.691-.254a.88.88 0 0 0 .242-.629.908.908 0 0 0-.242-.641c-.156-.178-.387-.266-.691-.266-.309 0-.54.088-.692.266a.95.95 0 0 0-.229.641Zm6.303-6.106h-1.053V140h1.117v-5.465a.972.972 0 0 1 .095-.191.72.72 0 0 1 .406-.292c.106-.034.229-.051.368-.051.127 0 .237.017.331.051a.552.552 0 0 1 .387.419c.034.11.05.237.05.381V140h1.118v-5.269a.954.954 0 0 1 .076-.285.74.74 0 0 1 .159-.235.736.736 0 0 1 .253-.152c.102-.038.223-.058.362-.058.131 0 .246.017.343.051a.636.636 0 0 1 .254.153.741.741 0 0 1 .146.273c.034.11.051.237.051.38V140h1.117v-5.129c0-.33-.038-.616-.114-.857a1.532 1.532 0 0 0-.33-.597 1.248 1.248 0 0 0-.483-.304 1.8 1.8 0 0 0-.641-.108 1.88 1.88 0 0 0-.482.07 1.647 1.647 0 0 0-.394.171 1.652 1.652 0 0 0-.47.495 1.225 1.225 0 0 0-.171-.285 1.028 1.028 0 0 0-.216-.216 1.2 1.2 0 0 0-.387-.172 1.747 1.747 0 0 0-.489-.063 1.635 1.635 0 0 0-.825.209 1.568 1.568 0 0 0-.546.565l-.032-.647Zm7.046 3.377v.133c0 .491.066.95.197 1.378.131.423.315.791.552 1.104.237.313.523.559.857.736.339.178.715.267 1.13.267.423 0 .794-.072 1.111-.216.317-.144.59-.355.819-.635l.051.724h1.079v-9.75h-1.175v3.561a2.221 2.221 0 0 0-.799-.597 2.568 2.568 0 0 0-1.073-.209c-.419 0-.798.087-1.136.26a2.538 2.538 0 0 0-.864.724 3.38 3.38 0 0 0-.558 1.111 4.93 4.93 0 0 0-.191 1.409Zm1.175.133v-.133c0-.335.036-.652.107-.952.072-.305.185-.574.337-.807.148-.228.338-.41.571-.545.237-.136.521-.204.851-.204.385 0 .706.091.965.273.258.178.463.407.615.686v3.186c-.152.301-.357.54-.615.718-.259.178-.584.266-.978.266-.326 0-.605-.065-.838-.196a1.685 1.685 0 0 1-.571-.546 2.454 2.454 0 0 1-.337-.794 4.127 4.127 0 0 1-.107-.952Z"/></g><path stroke="#E11D48" stroke-dasharray="1 1" d="M274.5 150v10"/><g clip-path="url(#l)"><path fill="#E11D48" d="m280.353 171.509-3.362-3.362a.5.5 0 0 0-.354-.147H270c-.277 0-.5.223-.5.5v13c0 .277.223.5.5.5h10c.277 0 .5-.223.5-.5v-9.636a.503.503 0 0 0-.147-.355Zm-1.006.585h-2.941v-2.941l2.941 2.941Zm.028 8.781h-8.75v-11.75h4.719v3.375a.656.656 0 0 0 .656.656h3.375v7.719Z"/><path fill="#9CA3AF" d="M305.908 180v-.958h-4.64l2.482-2.692c.233-.254.453-.508.66-.762.212-.258.398-.518.559-.78.156-.263.281-.527.374-.794a2.622 2.622 0 0 0-.057-1.841 2.289 2.289 0 0 0-.552-.812 2.511 2.511 0 0 0-.889-.533 3.281 3.281 0 0 0-1.174-.197 3.34 3.34 0 0 0-1.27.228 2.796 2.796 0 0 0-.933.616 2.606 2.606 0 0 0-.59.908 2.971 2.971 0 0 0-.203 1.098h1.18c0-.288.036-.548.108-.781a1.49 1.49 0 0 1 .902-.971c.228-.089.497-.133.806-.133.254 0 .48.044.679.133.203.085.377.201.521.349.139.148.245.324.317.527.076.199.114.413.114.641 0 .186-.023.368-.07.546a2.364 2.364 0 0 1-.234.552c-.11.199-.256.415-.438.648-.182.232-.409.499-.68.8l-3.027 3.364V180h6.055Zm4.183-.762c0 .246.076.455.229.629.156.169.387.254.692.254.3 0 .531-.085.692-.254a.883.883 0 0 0 .241-.629.912.912 0 0 0-.241-.641c-.157-.178-.388-.266-.692-.266-.309 0-.54.088-.692.266a.95.95 0 0 0-.229.641Zm10.277.762h1.225v-.102a3.21 3.21 0 0 1-.177-.666 4.453 4.453 0 0 1-.064-.73v-3.193c0-.385-.07-.721-.209-1.009a2.098 2.098 0 0 0-.572-.724 2.493 2.493 0 0 0-.869-.425 3.885 3.885 0 0 0-1.086-.146c-.427 0-.81.059-1.149.178a2.804 2.804 0 0 0-.85.463 2.143 2.143 0 0 0-.546.654 1.676 1.676 0 0 0-.191.736h1.181c0-.144.034-.281.102-.412.072-.136.171-.252.298-.35.127-.097.281-.175.463-.234.187-.06.396-.089.629-.089.249 0 .474.031.673.095.203.063.374.152.514.266.139.119.247.261.323.426.077.165.115.351.115.558v.54h-1.282c-.479 0-.912.046-1.302.14a2.994 2.994 0 0 0-.99.419c-.275.19-.489.427-.641.71a2.114 2.114 0 0 0-.222.991c0 .287.055.556.165.806.114.245.275.457.482.635.203.182.451.325.743.431.296.106.626.159.99.159.224 0 .436-.023.635-.07a2.81 2.81 0 0 0 1.041-.47c.148-.105.281-.218.4-.336.012.144.032.284.057.419.03.131.068.241.114.33Zm-2.076-.895c-.228 0-.429-.03-.603-.089a1.199 1.199 0 0 1-.431-.247.995.995 0 0 1-.26-.369 1.299 1.299 0 0 1-.083-.469c0-.178.032-.337.095-.476.068-.14.165-.261.292-.362.178-.144.417-.25.718-.318.304-.072.66-.108 1.066-.108h1.092v1.391a1.687 1.687 0 0 1-.28.393 2.024 2.024 0 0 1-.419.33 2.41 2.41 0 0 1-.545.235 2.249 2.249 0 0 1-.642.089Zm9.871-6.1c-.499 0-.946.11-1.339.33a3.12 3.12 0 0 0-1.003.889l-.007-.172-.05-.92h-1.118V180h1.181v-4.405c.076-.212.172-.402.286-.572.118-.173.256-.319.412-.438.174-.135.377-.237.61-.304.233-.072.493-.108.781-.108.224 0 .438.013.641.038.207.021.425.057.653.108l.159-1.149a2.086 2.086 0 0 0-.533-.121 5.451 5.451 0 0 0-.673-.044Zm6.233 6.17c-.368 0-.677-.072-.926-.216a1.757 1.757 0 0 1-.591-.578 2.43 2.43 0 0 1-.33-.787 4.286 4.286 0 0 1-.095-.895v-.266c0-.297.032-.591.095-.883a2.51 2.51 0 0 1 .33-.793c.153-.233.352-.421.597-.565.25-.148.557-.222.92-.222.237 0 .458.04.661.12a1.557 1.557 0 0 1 .882.819c.089.182.135.377.14.584h1.11c0-.347-.069-.673-.209-.977a2.436 2.436 0 0 0-.578-.794 2.796 2.796 0 0 0-.888-.52 3.054 3.054 0 0 0-1.118-.197c-.52 0-.975.093-1.364.279a2.8 2.8 0 0 0-.971.749c-.263.318-.46.684-.591 1.098a4.3 4.3 0 0 0-.197 1.302v.266c0 .457.066.893.197 1.308.131.41.328.772.591 1.085.258.318.581.569.971.756.389.186.844.279 1.364.279a3.01 3.01 0 0 0 1.048-.184c.334-.127.63-.296.889-.508.258-.207.463-.449.615-.724a1.81 1.81 0 0 0 .241-.876h-1.11a1.083 1.083 0 0 1-.153.534c-.093.16-.218.3-.374.419a1.785 1.785 0 0 1-.54.285 1.89 1.89 0 0 1-.616.102Zm6.056-5.021v-3.904h-1.174V180h1.174v-4.989a2.231 2.231 0 0 1 .641-.667 1.99 1.99 0 0 1 1.13-.343c.258-.004.487.032.686.108.199.072.364.182.495.33.123.136.216.307.279.515.064.203.095.44.095.711V180h1.175v-4.323c0-.461-.057-.859-.172-1.193a2.173 2.173 0 0 0-.476-.838 1.832 1.832 0 0 0-.755-.482 2.85 2.85 0 0 0-1.758-.039 2.315 2.315 0 0 0-.667.337 2.437 2.437 0 0 0-.362.311 2.47 2.47 0 0 0-.311.381Zm6.818-1.022v1.022h2.335v4.83h-2.335V180h5.751v-1.016h-2.241v-5.852h-3.51Zm2.183-1.803c0 .191.057.349.172.476.118.127.296.191.533.191.232 0 .408-.064.527-.191a.671.671 0 0 0 .177-.476.832.832 0 0 0-.05-.292.547.547 0 0 0-.153-.222.553.553 0 0 0-.209-.127.78.78 0 0 0-.292-.051c-.11 0-.21.017-.299.051a.59.59 0 0 0-.361.355.893.893 0 0 0-.045.286Zm8.22.14h-1.18v1.663h-1.803v.908h1.803v3.732c0 .423.055.785.165 1.085.114.297.268.538.463.724.195.19.423.33.686.419.266.085.552.127.857.127.182 0 .364-.009.545-.025.187-.017.362-.043.527-.077.165-.029.318-.065.457-.108.14-.046.258-.099.356-.158l-.165-.832-.28.064a11.664 11.664 0 0 1-.755.12 4.097 4.097 0 0 1-.393.019 1.91 1.91 0 0 1-.496-.063 1.026 1.026 0 0 1-.685-.635 1.823 1.823 0 0 1-.102-.66v-3.732h2.616v-.908h-2.616v-1.663Zm8.062 8.658c.668 0 1.229-.133 1.682-.4.457-.271.8-.58 1.028-.927l-.717-.558a2.444 2.444 0 0 1-.812.673 2.395 2.395 0 0 1-1.118.253c-.317 0-.607-.059-.869-.177a2.003 2.003 0 0 1-.673-.489 2.242 2.242 0 0 1-.432-.673 3.147 3.147 0 0 1-.197-.882v-.045h4.907v-.527c0-.478-.061-.922-.184-1.333-.118-.41-.3-.768-.546-1.072a2.51 2.51 0 0 0-.927-.705c-.368-.173-.799-.26-1.294-.26-.394 0-.779.08-1.156.241a3.098 3.098 0 0 0-.996.692 3.394 3.394 0 0 0-.711 1.117 3.902 3.902 0 0 0-.267 1.486v.266c0 .478.081.921.241 1.327a3.029 3.029 0 0 0 1.708 1.745c.406.165.85.248 1.333.248Zm-.152-6.157c.3 0 .558.055.774.165.22.11.402.254.546.431.144.178.256.39.336.635.081.241.121.468.121.679v.058h-3.694c.046-.318.126-.597.241-.838.118-.246.262-.453.431-.622.17-.166.36-.29.572-.375.211-.089.436-.133.673-.133Zm7.852 5.205c-.369 0-.678-.072-.927-.216a1.757 1.757 0 0 1-.591-.578 2.43 2.43 0 0 1-.33-.787 4.286 4.286 0 0 1-.095-.895v-.266c0-.297.032-.591.095-.883a2.51 2.51 0 0 1 .33-.793c.153-.233.352-.421.597-.565.25-.148.557-.222.921-.222.237 0 .457.04.66.12a1.557 1.557 0 0 1 .882.819c.089.182.135.377.14.584h1.111c0-.347-.07-.673-.21-.977a2.436 2.436 0 0 0-.578-.794 2.785 2.785 0 0 0-.888-.52 3.052 3.052 0 0 0-1.117-.197c-.521 0-.976.093-1.365.279a2.81 2.81 0 0 0-.971.749c-.263.318-.46.684-.591 1.098a4.3 4.3 0 0 0-.196 1.302v.266c0 .457.065.893.196 1.308.131.41.328.772.591 1.085.258.318.582.569.971.756.389.186.844.279 1.365.279.364 0 .713-.061 1.047-.184.334-.127.63-.296.889-.508.258-.207.463-.449.615-.724.157-.279.237-.571.242-.876h-1.111a1.083 1.083 0 0 1-.153.534c-.093.16-.218.3-.374.419a1.785 1.785 0 0 1-.54.285 1.89 1.89 0 0 1-.615.102Zm7.661-7.706h-1.18v1.663h-1.803v.908h1.803v3.732c0 .423.055.785.165 1.085.114.297.268.538.463.724.195.19.423.33.685.419.267.085.553.127.857.127.182 0 .364-.009.546-.025.187-.017.362-.043.527-.077.165-.029.318-.065.457-.108.14-.046.258-.099.356-.158l-.165-.832-.28.064a12.028 12.028 0 0 1-.755.12 4.118 4.118 0 0 1-.394.019c-.173 0-.338-.021-.495-.063a1.016 1.016 0 0 1-.685-.635 1.823 1.823 0 0 1-.102-.66v-3.732h2.615v-.908h-2.615v-1.663Zm9.553 8.531h1.067v-6.868h-1.181v4.926a1.908 1.908 0 0 1-.241.412 1.465 1.465 0 0 1-.33.318c-.152.11-.332.196-.54.26a2.571 2.571 0 0 1-.704.089c-.225 0-.423-.03-.597-.089a.95.95 0 0 1-.432-.311 1.446 1.446 0 0 1-.266-.584 4.06 4.06 0 0 1-.089-.927v-4.094h-1.174v4.081c0 .512.055.953.165 1.321.114.364.275.664.482.901.207.237.457.413.749.527.292.11.618.165.978.165.448 0 .844-.093 1.187-.279.342-.191.628-.455.857-.794l.069.946Zm7.783-6.995c-.5 0-.946.11-1.34.33a3.141 3.141 0 0 0-1.003.889l-.006-.172-.051-.92h-1.117V180h1.181v-4.405a2.59 2.59 0 0 1 .285-.572c.119-.173.256-.319.413-.438.173-.135.377-.237.609-.304.233-.072.493-.108.781-.108.224 0 .438.013.641.038.208.021.425.057.654.108l.159-1.149a2.106 2.106 0 0 0-.534-.121 5.435 5.435 0 0 0-.672-.044Zm6.341 7.122c.669 0 1.229-.133 1.682-.4.457-.271.8-.58 1.028-.927l-.717-.558a2.444 2.444 0 0 1-.812.673 2.395 2.395 0 0 1-1.118.253c-.317 0-.607-.059-.869-.177a2.003 2.003 0 0 1-.673-.489 2.242 2.242 0 0 1-.432-.673 3.113 3.113 0 0 1-.196-.882v-.045h4.906v-.527c0-.478-.061-.922-.184-1.333-.118-.41-.3-.768-.546-1.072a2.515 2.515 0 0 0-.926-.705c-.369-.173-.8-.26-1.295-.26-.394 0-.779.08-1.156.241a3.098 3.098 0 0 0-.996.692 3.427 3.427 0 0 0-.711 1.117 3.902 3.902 0 0 0-.267 1.486v.266c0 .478.081.921.241 1.327.161.406.386.757.673 1.054.288.296.633.526 1.035.691a3.51 3.51 0 0 0 1.333.248Zm-.152-6.157c.3 0 .558.055.774.165.22.11.402.254.546.431.144.178.256.39.336.635.081.241.121.468.121.679v.058h-3.694c.046-.318.127-.597.241-.838.118-.246.262-.453.431-.622.17-.166.36-.29.572-.375.211-.089.436-.133.673-.133Zm6.969 5.268c0 .246.077.455.229.629.156.169.387.254.692.254.3 0 .531-.085.692-.254a.883.883 0 0 0 .241-.629.912.912 0 0 0-.241-.641c-.157-.178-.388-.266-.692-.266-.309 0-.54.088-.692.266a.956.956 0 0 0-.229.641Zm6.304-6.106h-1.054V180h1.117v-5.465a.972.972 0 0 1 .095-.191.72.72 0 0 1 .406-.292 1.21 1.21 0 0 1 .369-.051c.127 0 .237.017.33.051a.552.552 0 0 1 .387.419c.034.11.051.237.051.381V180h1.117v-5.269a.985.985 0 0 1 .076-.285.74.74 0 0 1 .159-.235.731.731 0 0 1 .254-.152c.101-.038.222-.058.361-.058.132 0 .246.017.343.051a.636.636 0 0 1 .254.153.727.727 0 0 1 .146.273c.034.11.051.237.051.38V180h1.117v-5.129c0-.33-.038-.616-.114-.857a1.507 1.507 0 0 0-.33-.597 1.24 1.24 0 0 0-.483-.304 1.8 1.8 0 0 0-.641-.108 1.88 1.88 0 0 0-.482.07 1.647 1.647 0 0 0-.394.171 1.652 1.652 0 0 0-.469.495 1.264 1.264 0 0 0-.172-.285 1.005 1.005 0 0 0-.216-.216 1.2 1.2 0 0 0-.387-.172 1.747 1.747 0 0 0-.489-.063 1.638 1.638 0 0 0-.825.209 1.568 1.568 0 0 0-.546.565l-.031-.647Zm7.045 3.377v.133c0 .491.066.95.197 1.378.131.423.315.791.552 1.104.237.313.523.559.857.736.339.178.716.267 1.13.267.423 0 .794-.072 1.111-.216a2.24 2.24 0 0 0 .819-.635l.051.724h1.079v-9.75h-1.174v3.561a2.225 2.225 0 0 0-.8-.597 2.568 2.568 0 0 0-1.073-.209c-.419 0-.798.087-1.136.26a2.538 2.538 0 0 0-.864.724 3.38 3.38 0 0 0-.558 1.111 4.93 4.93 0 0 0-.191 1.409Zm1.175.133v-.133c0-.335.036-.652.108-.952.072-.305.184-.574.336-.807.148-.228.339-.41.571-.545.237-.136.521-.204.851-.204.385 0 .707.091.965.273.258.178.463.407.616.686v3.186c-.153.301-.358.54-.616.718-.258.178-.584.266-.978.266-.326 0-.605-.065-.838-.196a1.694 1.694 0 0 1-.571-.546 2.452 2.452 0 0 1-.336-.794 4.072 4.072 0 0 1-.108-.952Z"/></g><path stroke="#E11D48" stroke-dasharray="1 1" d="M274.5 190v10"/><g clip-path="url(#m)"><path fill="#E11D48" d="m280.353 211.509-3.362-3.362a.5.5 0 0 0-.354-.147H270c-.277 0-.5.223-.5.5v13c0 .277.223.5.5.5h10c.277 0 .5-.223.5-.5v-9.636a.503.503 0 0 0-.147-.355Zm-1.006.585h-2.941v-2.941l2.941 2.941Zm.028 8.781h-8.75v-11.75h4.719v3.375a.656.656 0 0 0 .656.656h3.375v7.719Z"/><path fill="#9CA3AF" d="M301.649 214.814v.952h.838c.292 0 .558.034.8.102.245.067.455.171.628.311.169.139.3.315.394.527.097.207.146.454.146.742 0 .292-.043.546-.127.762a1.417 1.417 0 0 1-.349.533 1.474 1.474 0 0 1-.553.324 2.402 2.402 0 0 1-.723.101c-.267 0-.51-.038-.73-.114a1.588 1.588 0 0 1-.553-.324 1.446 1.446 0 0 1-.355-.507 1.756 1.756 0 0 1-.121-.661h-1.174c0 .407.076.769.229 1.086.156.317.366.586.628.806.262.22.571.387.927.502.359.114.742.171 1.149.171.414 0 .799-.059 1.155-.178.36-.123.671-.3.933-.533.262-.228.468-.51.616-.844.148-.335.222-.718.222-1.149 0-.212-.025-.425-.076-.641a1.983 1.983 0 0 0-.248-.616 2.036 2.036 0 0 0-.489-.527 2.403 2.403 0 0 0-.749-.381 2.32 2.32 0 0 0 1.086-.907c.114-.178.199-.362.254-.553a1.98 1.98 0 0 0 .082-.552c0-.427-.067-.804-.203-1.13a2.23 2.23 0 0 0-.571-.819 2.412 2.412 0 0 0-.882-.495 3.589 3.589 0 0 0-1.137-.171c-.427 0-.816.068-1.168.203a2.741 2.741 0 0 0-.895.54 2.505 2.505 0 0 0-.584.818 2.447 2.447 0 0 0-.203.991h1.181c0-.242.04-.46.12-.654a1.443 1.443 0 0 1 .864-.819c.207-.076.436-.114.685-.114.258 0 .487.034.686.101.203.064.372.161.508.292.139.136.245.307.317.514.072.204.108.443.108.718 0 .232-.04.446-.121.641-.08.194-.196.362-.349.501-.156.14-.349.25-.577.33a2.3 2.3 0 0 1-.781.121h-.838Zm8.48 4.424c0 .246.077.455.229.629.156.169.387.254.692.254.3 0 .531-.085.692-.254a.878.878 0 0 0 .241-.629.907.907 0 0 0-.241-.641c-.157-.178-.388-.266-.692-.266-.309 0-.54.088-.692.266a.956.956 0 0 0-.229.641Zm10.29.762h1.066v-6.868h-1.18v4.926a1.912 1.912 0 0 1-.242.412 1.465 1.465 0 0 1-.33.318c-.152.11-.332.196-.539.26a2.579 2.579 0 0 1-.705.089c-.224 0-.423-.03-.596-.089a.94.94 0 0 1-.432-.311 1.446 1.446 0 0 1-.267-.584 4.06 4.06 0 0 1-.089-.927v-4.094h-1.174v4.081c0 .512.055.953.165 1.321.114.364.275.664.483.901.207.237.457.413.749.527.292.11.617.165.977.165a2.45 2.45 0 0 0 1.187-.279c.343-.191.629-.455.857-.794l.07.946Zm3.466-6.868v1.022h2.336v4.83h-2.336V220h5.751v-1.016h-2.241v-5.852h-3.51Zm2.183-1.803c0 .191.057.349.172.476.118.127.296.191.533.191.233 0 .408-.064.527-.191a.672.672 0 0 0 .178-.476.81.81 0 0 0-.051-.292.547.547 0 0 0-.153-.222.546.546 0 0 0-.209-.127.78.78 0 0 0-.292-.051c-.11 0-.21.017-.298.051a.602.602 0 0 0-.362.355.893.893 0 0 0-.045.286Zm7.484 7.909c0 .246.076.455.229.629.156.169.387.254.692.254.3 0 .531-.085.692-.254a.883.883 0 0 0 .241-.629.912.912 0 0 0-.241-.641c-.157-.178-.388-.266-.692-.266-.309 0-.54.088-.692.266a.95.95 0 0 0-.229.641Zm6.303-6.106h-1.053V220h1.117v-5.465a.972.972 0 0 1 .095-.191.72.72 0 0 1 .406-.292 1.21 1.21 0 0 1 .369-.051c.127 0 .237.017.33.051a.552.552 0 0 1 .387.419c.034.11.051.237.051.381V220h1.117v-5.269a.985.985 0 0 1 .076-.285.74.74 0 0 1 .159-.235.731.731 0 0 1 .254-.152c.101-.038.222-.058.361-.058.132 0 .246.017.343.051a.636.636 0 0 1 .254.153.727.727 0 0 1 .146.273c.034.11.051.237.051.38V220h1.117v-5.129c0-.33-.038-.616-.114-.857a1.507 1.507 0 0 0-.33-.597 1.24 1.24 0 0 0-.483-.304 1.8 1.8 0 0 0-.641-.108 1.88 1.88 0 0 0-.482.07 1.647 1.647 0 0 0-.394.171 1.652 1.652 0 0 0-.47.495 1.225 1.225 0 0 0-.171-.285 1.005 1.005 0 0 0-.216-.216 1.2 1.2 0 0 0-.387-.172 1.747 1.747 0 0 0-.489-.063 1.638 1.638 0 0 0-.825.209 1.568 1.568 0 0 0-.546.565l-.032-.647Zm7.046 3.377v.133c0 .491.066.95.197 1.378.131.423.315.791.552 1.104.237.313.523.559.857.736.339.178.715.267 1.13.267.423 0 .794-.072 1.111-.216.317-.144.59-.355.819-.635l.051.724h1.079v-9.75h-1.175v3.561a2.213 2.213 0 0 0-.799-.597 2.568 2.568 0 0 0-1.073-.209c-.419 0-.798.087-1.136.26a2.538 2.538 0 0 0-.864.724 3.38 3.38 0 0 0-.558 1.111 4.93 4.93 0 0 0-.191 1.409Zm1.175.133v-.133c0-.335.036-.652.108-.952.072-.305.184-.574.336-.807.148-.228.339-.41.571-.545.237-.136.521-.204.851-.204.385 0 .707.091.965.273.258.178.463.407.615.686v3.186c-.152.301-.357.54-.615.718-.258.178-.584.266-.978.266-.326 0-.605-.065-.838-.196a1.694 1.694 0 0 1-.571-.546 2.452 2.452 0 0 1-.336-.794 4.072 4.072 0 0 1-.108-.952Z"/></g><path stroke="#E11D48" stroke-dasharray="1 1" d="M274.5 230v10"/><g clip-path="url(#n)"><path fill="#E11D48" d="m280.353 251.509-3.362-3.362a.5.5 0 0 0-.354-.147H270c-.277 0-.5.223-.5.5v13c0 .277.223.5.5.5h10c.277 0 .5-.223.5-.5v-9.636a.503.503 0 0 0-.147-.355Zm-1.006.585h-2.941v-2.941l2.941 2.941Zm.028 8.781h-8.75v-11.75h4.719v3.375a.656.656 0 0 0 .656.656h3.375v7.719Z"/><path fill="#9CA3AF" d="M305.135 256.896v-6.138h-1.251l-4.138 6.405v.691h4.214V260h1.175v-2.146h1.288v-.958h-1.288Zm-4.088 0 2.723-4.221.19-.356v4.577h-2.913Zm9.179 2.342c0 .246.076.455.228.629.157.169.387.254.692.254.3 0 .531-.085.692-.254a.878.878 0 0 0 .241-.629.907.907 0 0 0-.241-.641c-.157-.178-.387-.266-.692-.266-.309 0-.54.088-.692.266a.955.955 0 0 0-.228.641Zm8.69-.063c-.369 0-.678-.072-.927-.216a1.757 1.757 0 0 1-.591-.578 2.43 2.43 0 0 1-.33-.787 4.286 4.286 0 0 1-.095-.895v-.266c0-.297.032-.591.095-.883a2.51 2.51 0 0 1 .33-.793c.153-.233.352-.421.597-.565.25-.148.557-.222.921-.222.237 0 .457.04.66.12a1.557 1.557 0 0 1 .882.819c.089.182.135.377.14.584h1.11c0-.347-.069-.673-.209-.977a2.436 2.436 0 0 0-.578-.794 2.796 2.796 0 0 0-.888-.52 3.052 3.052 0 0 0-1.117-.197c-.521 0-.976.093-1.365.279a2.8 2.8 0 0 0-.971.749c-.263.318-.46.684-.591 1.098a4.3 4.3 0 0 0-.197 1.302v.266c0 .457.066.893.197 1.308.131.41.328.772.591 1.085.258.318.581.569.971.756.389.186.844.279 1.365.279a3.01 3.01 0 0 0 1.047-.184c.334-.127.63-.296.889-.508.258-.207.463-.449.615-.724a1.81 1.81 0 0 0 .241-.876h-1.11a1.083 1.083 0 0 1-.153.534c-.093.16-.218.3-.374.419a1.785 1.785 0 0 1-.54.285 1.89 1.89 0 0 1-.615.102Zm5.065-8.925v1.022h2.336v7.712h-2.336V260h5.751v-1.016h-2.241v-8.734h-3.51Zm7.808 2.882v1.022h2.336v4.83h-2.336V260h5.751v-1.016h-2.241v-5.852h-3.51Zm2.183-1.803c0 .191.057.349.172.476.118.127.296.191.533.191.233 0 .408-.064.527-.191a.671.671 0 0 0 .177-.476.832.832 0 0 0-.05-.292.547.547 0 0 0-.153-.222.553.553 0 0 0-.209-.127.78.78 0 0 0-.292-.051c-.11 0-.21.017-.299.051a.59.59 0 0 0-.361.355.893.893 0 0 0-.045.286Zm7.484 7.909c0 .246.076.455.229.629.156.169.387.254.691.254.301 0 .532-.085.692-.254a.88.88 0 0 0 .242-.629.908.908 0 0 0-.242-.641c-.156-.178-.387-.266-.692-.266-.308 0-.539.088-.691.266a.95.95 0 0 0-.229.641Zm6.303-6.106h-1.053V260h1.117v-5.465a.972.972 0 0 1 .095-.191.72.72 0 0 1 .406-.292c.106-.034.229-.051.368-.051.127 0 .237.017.33.051a.55.55 0 0 1 .242.146.64.64 0 0 1 .146.273c.034.11.05.237.05.381V260h1.118v-5.269a.954.954 0 0 1 .076-.285.754.754 0 0 1 .158-.235.75.75 0 0 1 .254-.152c.102-.038.223-.058.362-.058.131 0 .246.017.343.051a.636.636 0 0 1 .254.153.741.741 0 0 1 .146.273c.034.11.051.237.051.38V260h1.117v-5.129c0-.33-.038-.616-.114-.857a1.532 1.532 0 0 0-.33-.597 1.248 1.248 0 0 0-.483-.304 1.8 1.8 0 0 0-.641-.108 1.874 1.874 0 0 0-.482.07 1.647 1.647 0 0 0-.394.171 1.652 1.652 0 0 0-.47.495 1.225 1.225 0 0 0-.171-.285 1.053 1.053 0 0 0-.216-.216 1.2 1.2 0 0 0-.387-.172 1.747 1.747 0 0 0-.489-.063 1.633 1.633 0 0 0-.825.209 1.568 1.568 0 0 0-.546.565l-.032-.647Zm7.046 3.377v.133c0 .491.066.95.197 1.378.131.423.315.791.552 1.104.237.313.523.559.857.736.339.178.715.267 1.13.267a2.67 2.67 0 0 0 1.111-.216c.317-.144.59-.355.819-.635l.05.724h1.08v-9.75h-1.175v3.561a2.216 2.216 0 0 0-.8-.597 2.56 2.56 0 0 0-1.072-.209c-.419 0-.798.087-1.137.26a2.544 2.544 0 0 0-.863.724 3.38 3.38 0 0 0-.558 1.111 4.93 4.93 0 0 0-.191 1.409Zm1.174.133v-.133c0-.335.036-.652.108-.952.072-.305.184-.574.337-.807.148-.228.338-.41.571-.545.237-.136.521-.204.851-.204.385 0 .706.091.965.273.258.178.463.407.615.686v3.186c-.152.301-.357.54-.615.718-.259.178-.584.266-.978.266-.326 0-.605-.065-.838-.196a1.685 1.685 0 0 1-.571-.546 2.432 2.432 0 0 1-.337-.794 4.072 4.072 0 0 1-.108-.952Z"/></g><path stroke="#E11D48" stroke-dasharray="1 1" d="M263 136.5h-55"/><path fill="#4B5563" d="M3.239 4.106 1.46.18H.328L2.76 5.084 2.777 8H3.7l.016-2.917L6.15.18H5.022L3.239 4.106Zm4.023.935v.118c0 .419.06.807.182 1.165s.298.67.527.935c.225.265.501.472.827.623.33.15.7.225 1.112.225.408 0 .775-.075 1.1-.225.327-.15.604-.358.833-.623.226-.265.4-.577.521-.935a3.6 3.6 0 0 0 .183-1.165V5.04a3.6 3.6 0 0 0-.183-1.166 2.823 2.823 0 0 0-.52-.94 2.423 2.423 0 0 0-.839-.623 2.56 2.56 0 0 0-1.106-.23c-.408-.001-.775.076-1.101.23-.326.15-.602.358-.827.623a2.77 2.77 0 0 0-.527.94 3.599 3.599 0 0 0-.182 1.166Zm.993.118V5.04c0-.283.034-.554.102-.812.068-.26.172-.49.312-.687.136-.197.306-.353.51-.467.204-.118.444-.178.72-.178.276 0 .516.06.72.178.207.114.381.27.52.467.137.197.239.426.307.687.071.258.107.529.107.812v.118c0 .286-.034.56-.102.821-.068.258-.17.486-.306.683-.14.197-.313.352-.521.467a1.435 1.435 0 0 1-.714.172c-.276 0-.518-.058-.725-.172a1.5 1.5 0 0 1-.516-.467 2.089 2.089 0 0 1-.312-.683 3.25 3.25 0 0 1-.102-.821ZM17.977 8h.902V2.188h-.999v4.168a1.623 1.623 0 0 1-.204.35 1.244 1.244 0 0 1-.279.268 1.546 1.546 0 0 1-.457.22c-.175.05-.374.076-.596.076a1.56 1.56 0 0 1-.505-.076.8.8 0 0 1-.365-.263 1.22 1.22 0 0 1-.226-.494 3.42 3.42 0 0 1-.075-.784V2.188h-.993v3.454c0 .433.046.806.14 1.117.096.308.232.562.407.763.176.2.387.35.634.446.247.093.523.14.828.14.379 0 .714-.08 1.004-.237.29-.161.532-.385.725-.671l.06.8Zm6.585-5.919c-.422 0-.8.093-1.133.28a2.65 2.65 0 0 0-.849.751l-.005-.145-.043-.779h-.946V8h1V4.272c.064-.179.145-.34.241-.483a1.571 1.571 0 0 1 .865-.628c.197-.061.417-.092.66-.092.19 0 .371.011.543.033.175.017.36.048.553.09l.134-.971c-.1-.043-.25-.077-.45-.102a4.512 4.512 0 0 0-.57-.038Zm9.4 8.153h.993V7.441c.072.08.149.153.231.22.082.065.17.124.263.178.154.086.326.152.516.199.193.046.4.07.623.07.365 0 .69-.076.972-.226.286-.15.526-.358.72-.623.193-.265.34-.577.44-.935.1-.361.15-.75.15-1.165v-.113c0-.433-.05-.83-.15-1.192a2.818 2.818 0 0 0-.44-.94 2.045 2.045 0 0 0-.72-.613 2.137 2.137 0 0 0-.988-.22c-.212 0-.41.023-.596.07-.183.043-.35.107-.5.193a1.838 1.838 0 0 0-.559.478l-.048-.634h-.908v8.046Zm3.915-5.188v.113c0 .283-.032.553-.097.81-.06.259-.156.486-.284.683a1.484 1.484 0 0 1-.495.473c-.2.114-.438.171-.714.171a1.489 1.489 0 0 1-.854-.242c-.1-.064-.19-.143-.268-.236a1.962 1.962 0 0 1-.21-.3V3.719a1.86 1.86 0 0 1 .236-.333c.09-.1.192-.184.307-.252.103-.068.22-.12.349-.156.132-.036.275-.054.43-.054.279 0 .519.058.72.172.2.115.366.269.499.462.128.197.223.424.284.682.065.254.097.523.097.806Zm6.504-2.965c-.422 0-.8.093-1.133.28a2.65 2.65 0 0 0-.849.751l-.005-.145-.043-.779h-.945V8h.999V4.272c.064-.179.145-.34.242-.483a1.569 1.569 0 0 1 .864-.628c.197-.061.417-.092.66-.092.19 0 .371.011.543.033.176.017.36.048.554.09l.134-.971a1.77 1.77 0 0 0-.451-.102 4.513 4.513 0 0 0-.57-.038Zm2.52 2.96v.118c0 .419.06.807.182 1.165s.297.67.526.935c.226.265.502.472.828.623.329.15.7.225 1.111.225.408 0 .776-.075 1.101-.225.326-.15.604-.358.833-.623.226-.265.4-.577.52-.935.123-.358.183-.746.183-1.165V5.04c0-.42-.06-.808-.182-1.166a2.82 2.82 0 0 0-.521-.94 2.421 2.421 0 0 0-.838-.623 2.559 2.559 0 0 0-1.106-.23c-.409-.001-.776.076-1.101.23-.326.15-.602.358-.828.623a2.77 2.77 0 0 0-.526.94 3.6 3.6 0 0 0-.183 1.166Zm.993.118V5.04c0-.283.034-.554.102-.812.068-.26.172-.49.312-.687.136-.197.306-.353.51-.467.204-.118.444-.178.72-.178.275 0 .515.06.72.178.207.114.38.27.52.467.136.197.238.426.306.687.072.258.108.529.108.812v.118c0 .286-.034.56-.102.821-.068.258-.17.486-.306.683a1.55 1.55 0 0 1-.521.467 1.435 1.435 0 0 1-.715.172c-.275 0-.517-.058-.725-.172a1.5 1.5 0 0 1-.515-.467 2.089 2.089 0 0 1-.312-.683 3.252 3.252 0 0 1-.102-.821Zm6.564-2.97v.864h1.939v4.985c0 .275-.036.506-.108.692-.068.19-.163.342-.285.457a1.024 1.024 0 0 1-.43.242c-.164.05-.34.075-.526.075-.05 0-.12-.002-.21-.005-.085 0-.175-.004-.268-.011a3.668 3.668 0 0 1-.284-.022 2.448 2.448 0 0 1-.231-.027l-.07.817c.09.014.175.027.258.037.082.015.164.026.247.033a8.519 8.519 0 0 0 .628.021c.358 0 .677-.052.956-.156.283-.1.523-.248.72-.445.193-.194.34-.434.44-.72.104-.287.156-.616.156-.988v-5.85h-2.932ZM56.257.657a.6.6 0 0 0 .145.408c.096.107.245.161.446.161.2 0 .35-.054.45-.161.101-.111.151-.247.151-.408A.587.587 0 0 0 57.3.25c-.1-.115-.25-.172-.451-.172-.2 0-.35.057-.446.172a.6.6 0 0 0-.145.408Zm6.703 7.45c.566 0 1.04-.113 1.423-.339.387-.23.677-.49.87-.784l-.606-.473a2.05 2.05 0 0 1-.688.57 2.02 2.02 0 0 1-.945.214c-.269 0-.514-.05-.736-.15a1.69 1.69 0 0 1-.57-.414 1.89 1.89 0 0 1-.365-.569 2.63 2.63 0 0 1-.166-.747V5.38h4.152v-.446c0-.405-.052-.78-.156-1.128a2.56 2.56 0 0 0-.462-.908 2.136 2.136 0 0 0-.784-.596c-.312-.147-.677-.22-1.096-.22-.333 0-.659.068-.978.204a2.61 2.61 0 0 0-.843.586c-.25.257-.45.573-.601.945-.15.369-.226.788-.226 1.257v.225c0 .405.068.78.204 1.123.136.344.326.64.57.891.243.251.535.446.875.586.344.14.72.21 1.128.21Zm-.129-5.21a1.376 1.376 0 0 1 1.117.505c.122.15.217.329.285.536.068.205.102.396.102.575v.048h-3.126c.04-.268.107-.504.204-.708.1-.208.222-.384.365-.527a1.47 1.47 0 0 1 .484-.317c.179-.075.368-.113.57-.113Zm6.644 4.404c-.311 0-.573-.061-.784-.183a1.482 1.482 0 0 1-.5-.489 2.05 2.05 0 0 1-.279-.666 3.605 3.605 0 0 1-.08-.757v-.226c0-.25.026-.5.08-.746.057-.247.15-.471.28-.672.128-.196.297-.356.504-.478.212-.125.471-.188.78-.188.2 0 .386.034.558.103a1.305 1.305 0 0 1 .747.693c.075.153.114.318.117.494h.94c0-.294-.059-.57-.177-.828a2.066 2.066 0 0 0-.489-.671 2.368 2.368 0 0 0-.752-.44 2.595 2.595 0 0 0-.945-.167c-.44 0-.825.079-1.155.236-.33.158-.603.37-.821.634a2.738 2.738 0 0 0-.5.93c-.111.35-.166.717-.166 1.1v.226c0 .387.055.756.166 1.106.111.348.278.654.5.919.218.268.492.482.821.64.33.157.715.235 1.155.235a2.551 2.551 0 0 0 1.638-.585c.219-.175.392-.38.521-.612.133-.237.2-.484.204-.742h-.94a.913.913 0 0 1-.129.452 1.19 1.19 0 0 1-.316.354 1.503 1.503 0 0 1-.457.242 1.606 1.606 0 0 1-.52.086Zm6.483-6.52h-.999v1.406h-1.525v.769h1.525v3.158c0 .358.046.664.14.918.096.25.227.455.392.613.164.16.358.279.58.354.225.072.467.107.725.107a4.985 4.985 0 0 0 .908-.086c.14-.025.268-.055.386-.09.118-.04.219-.085.301-.135l-.14-.704c-.06.015-.14.033-.236.054a9.634 9.634 0 0 1-.64.102 3.57 3.57 0 0 1-.332.016 1.6 1.6 0 0 1-.419-.054.861.861 0 0 1-.58-.537 1.554 1.554 0 0 1-.086-.558V2.957h2.213v-.769h-2.213V.781ZM116.162 36.726a1 1 0 0 0 1.414-.027l6.243-6.483a1 1 0 0 0-1.441-1.388l-5.549 5.763-5.763-5.548a1 1 0 1 0-1.387 1.44l6.483 6.243Zm.625-4.342-1 .019 1-.02ZM87.037 5.45c.335-.015.668-.025 1-.028l-.02-2c-.355.004-.713.014-1.071.03l.09 1.998Zm2.996.024c.67.041 1.332.107 1.988.196l.269-1.982a29.484 29.484 0 0 0-2.133-.21l-.124 1.996Zm3.954.536c.655.138 1.3.3 1.938.483l.554-1.921a29.265 29.265 0 0 0-2.08-.52l-.412 1.958Zm3.834 1.106c.626.232 1.241.486 1.846.76l.828-1.82a29.29 29.29 0 0 0-1.98-.816l-.694 1.876Zm3.631 1.653c.585.32 1.158.66 1.717 1.02l1.083-1.68a29.352 29.352 0 0 0-1.841-1.095l-.959 1.755Zm3.355 2.163c.533.4 1.05.82 1.552 1.257l1.314-1.508a29.675 29.675 0 0 0-1.664-1.348l-1.202 1.599Zm3.009 2.623c.469.472.921.962 1.355 1.467l1.517-1.303a29.853 29.853 0 0 0-1.452-1.573l-1.42 1.409Zm2.6 3.028c.395.535.772 1.084 1.129 1.648l1.69-1.07a29.763 29.763 0 0 0-1.211-1.767l-1.608 1.19Zm2.135 3.372c.313.585.606 1.183.878 1.793l1.827-.813a29.346 29.346 0 0 0-.942-1.924l-1.763.944Zm1.622 3.645c.225.624.427 1.258.607 1.902l1.927-.538a29.767 29.767 0 0 0-.652-2.042l-1.882.678Zm1.073 3.842c.131.649.24 1.306.324 1.971l1.984-.252a29.934 29.934 0 0 0-.347-2.115l-1.961.396Zm.505 3.96c.018.331.03.665.036 1l2-.038c-.007-.359-.02-.716-.039-1.072l-1.997.11Zm.036 1 .018.905 1.999-.038-.017-.905-2 .038Zm.052 2.716.017.905 2-.038-.018-.905-1.999.038Z"/><defs><clipPath id="a"><rect width="119" height="38" x="100" y="58" fill="#fff" rx="4"/></clipPath><clipPath id="b"><rect width="113" height="41" x="94" y="114" fill="#fff" rx="4"/></clipPath><clipPath id="d"><rect width="103" height="38" x="100" y="173" fill="#fff" rx="4"/></clipPath><clipPath id="e"><rect width="72" height="38" x="100" y="229" fill="#fff" rx="4"/></clipPath><clipPath id="f"><rect width="111" height="38" x="100" y="299" fill="#fff" rx="4"/></clipPath><clipPath id="g"><rect width="119" height="22" x="100" y="369" fill="#fff" rx="4"/></clipPath><clipPath id="h"><rect width="142" height="22" x="100" y="409" fill="#fff" rx="4"/></clipPath><clipPath id="i"><rect width="103" height="22" x="100" y="449" fill="#fff" rx="4"/></clipPath><clipPath id="j"><rect width="142" height="22" x="259" y="84" fill="#fff" rx="4"/></clipPath><clipPath id="k"><rect width="150" height="22" x="259" y="124" fill="#fff" rx="4"/></clipPath><clipPath id="l"><rect width="181" height="22" x="259" y="164" fill="#fff" rx="4"/></clipPath><clipPath id="m"><rect width="103" height="22" x="259" y="204" fill="#fff" rx="4"/></clipPath><clipPath id="n"><rect width="111" height="22" x="259" y="244" fill="#fff" rx="4"/></clipPath><filter id="c" width="46.888" height="13.726" x="147.1" y="130.004" color-interpolation-filters="sRGB" filterUnits="userSpaceOnUse"><feFlood flood-opacity="0" result="BackgroundImageFix"/><feColorMatrix in="SourceAlpha" result="hardAlpha" values="0 0 0 0 0 0 0 0 0 0 0 0 0 0 0 0 0 0 127 0"/><feOffset dy="1"/><feComposite in2="hardAlpha" operator="out"/><feColorMatrix values="0 0 0 0 0 0 0 0 0 0 0 0 0 0 0 0 0 0 0.5 0"/><feBlend in2="BackgroundImageFix" result="effect1_dropShadow_92_1933"/><feBlend in="SourceGraphic" in2="effect1_dropShadow_92_1933" result="shape"/></filter></defs></svg>