<svg width="383" height="45" viewBox="0 0 383 45" fill="none" xmlns="http://www.w3.org/2000/svg">
    <path d="M17.8086 18.92H24.4806C24.3846 17.32 24.0006 15.944 23.3286 14.792C22.6566 13.608 21.7766 12.632 20.6886 11.864C19.6326 11.064 18.4166 10.472 17.0406 10.088C15.6966 9.704 14.2886 9.512 12.8166 9.512C10.8006 9.512 9.00862 9.848 7.44062 10.52C5.87262 11.192 4.54462 12.136 3.45662 13.352C2.36862 14.536 1.53662 15.96 0.960618 17.624C0.416618 19.256 0.144618 21.032 0.144618 22.952C0.144618 24.808 0.448618 26.52 1.05662 28.088C1.66462 29.624 2.51262 30.952 3.60062 32.072C4.68862 33.192 6.00062 34.072 7.53662 34.712C9.10462 35.32 10.8166 35.624 12.6726 35.624C15.9686 35.624 18.6726 34.76 20.7846 33.032C22.8966 31.304 24.1766 28.792 24.6246 25.496H18.0486C17.8246 27.032 17.2646 28.264 16.3686 29.192C15.5046 30.088 14.2566 30.536 12.6246 30.536C11.5686 30.536 10.6726 30.296 9.93662 29.816C9.20062 29.336 8.60862 28.728 8.16062 27.992C7.74462 27.224 7.44062 26.376 7.24862 25.448C7.05662 24.52 6.96062 23.608 6.96062 22.712C6.96062 21.784 7.05662 20.856 7.24862 19.928C7.44062 18.968 7.76062 18.104 8.20862 17.336C8.68862 16.536 9.29662 15.896 10.0326 15.416C10.7686 14.904 11.6806 14.648 12.7686 14.648C15.6806 14.648 17.3606 16.072 17.8086 18.92ZM33.5631 22.616C33.5631 21.624 33.6591 20.648 33.8511 19.688C34.0431 18.728 34.3631 17.88 34.8111 17.144C35.2911 16.408 35.9151 15.816 36.6831 15.368C37.4511 14.888 38.4111 14.648 39.5631 14.648C40.7151 14.648 41.6751 14.888 42.4431 15.368C43.2431 15.816 43.8671 16.408 44.3151 17.144C44.7951 17.88 45.1311 18.728 45.3231 19.688C45.5151 20.648 45.6111 21.624 45.6111 22.616C45.6111 23.608 45.5151 24.584 45.3231 25.544C45.1311 26.472 44.7951 27.32 44.3151 28.088C43.8671 28.824 43.2431 29.416 42.4431 29.864C41.6751 30.312 40.7151 30.536 39.5631 30.536C38.4111 30.536 37.4511 30.312 36.6831 29.864C35.9151 29.416 35.2911 28.824 34.8111 28.088C34.3631 27.32 34.0431 26.472 33.8511 25.544C33.6591 24.584 33.5631 23.608 33.5631 22.616ZM26.7471 22.616C26.7471 24.6 27.0511 26.392 27.6591 27.992C28.2671 29.592 29.1311 30.968 30.2511 32.12C31.3711 33.24 32.7151 34.104 34.2831 34.712C35.8511 35.32 37.6111 35.624 39.5631 35.624C41.5151 35.624 43.2751 35.32 44.8431 34.712C46.4431 34.104 47.8031 33.24 48.9231 32.12C50.0431 30.968 50.9071 29.592 51.5151 27.992C52.1231 26.392 52.4271 24.6 52.4271 22.616C52.4271 20.632 52.1231 18.84 51.5151 17.24C50.9071 15.608 50.0431 14.232 48.9231 13.112C47.8031 11.96 46.4431 11.08 44.8431 10.472C43.2751 9.832 41.5151 9.512 39.5631 9.512C37.6111 9.512 35.8511 9.832 34.2831 10.472C32.7151 11.08 31.3711 11.96 30.2511 13.112C29.1311 14.232 28.2671 15.608 27.6591 17.24C27.0511 18.84 26.7471 20.632 26.7471 22.616ZM55.8989 10.184V35H62.7149V21.992C62.7149 19.464 63.1309 17.656 63.9629 16.568C64.7949 15.448 66.1389 14.888 67.9949 14.888C69.6269 14.888 70.7629 15.4 71.4029 16.424C72.0429 17.416 72.3629 18.936 72.3629 20.984V35H79.1789V19.736C79.1789 18.2 79.0349 16.808 78.7469 15.56C78.4909 14.28 78.0269 13.208 77.3549 12.344C76.6829 11.448 75.7549 10.76 74.5709 10.28C73.4189 9.768 71.9309 9.512 70.1069 9.512C68.6669 9.512 67.2589 9.848 65.8829 10.52C64.5069 11.16 63.3869 12.2 62.5229 13.64H62.3789V10.184H55.8989ZM92.032 10.184V2.744H85.216V10.184H81.088V14.744H85.216V29.384C85.216 30.632 85.424 31.64 85.84 32.408C86.256 33.176 86.816 33.768 87.52 34.184C88.256 34.6 89.088 34.872 90.016 35C90.976 35.16 91.984 35.24 93.04 35.24C93.712 35.24 94.4 35.224 95.104 35.192C95.808 35.16 96.448 35.096 97.024 35V29.72C96.704 29.784 96.368 29.832 96.016 29.864C95.664 29.896 95.296 29.912 94.912 29.912C93.76 29.912 92.992 29.72 92.608 29.336C92.224 28.952 92.032 28.184 92.032 27.032V14.744H97.024V10.184H92.032ZM99.307 10.184V35H106.123V23.816C106.123 22.696 106.235 21.656 106.459 20.696C106.683 19.736 107.051 18.904 107.563 18.2C108.107 17.464 108.811 16.888 109.675 16.472C110.539 16.056 111.595 15.848 112.843 15.848C113.259 15.848 113.691 15.88 114.139 15.944C114.587 15.976 114.971 16.024 115.291 16.088V9.752C114.747 9.592 114.251 9.512 113.803 9.512C112.939 9.512 112.107 9.64 111.307 9.896C110.507 10.152 109.755 10.52 109.051 11C108.347 11.448 107.723 12.008 107.179 12.68C106.635 13.32 106.203 14.024 105.883 14.792H105.787V10.184H99.307ZM124.011 6.344V0.727998H117.195V6.344H124.011ZM117.195 10.184V35H124.011V10.184H117.195ZM146.61 22.616C146.61 23.64 146.498 24.632 146.274 25.592C146.05 26.552 145.698 27.4 145.218 28.136C144.738 28.872 144.13 29.464 143.394 29.912C142.69 30.328 141.826 30.536 140.802 30.536C139.81 30.536 138.946 30.328 138.21 29.912C137.474 29.464 136.866 28.872 136.386 28.136C135.906 27.4 135.554 26.552 135.33 25.592C135.106 24.632 134.994 23.64 134.994 22.616C134.994 21.56 135.106 20.552 135.33 19.592C135.554 18.632 135.906 17.784 136.386 17.048C136.866 16.312 137.474 15.736 138.21 15.32C138.946 14.872 139.81 14.648 140.802 14.648C141.826 14.648 142.69 14.872 143.394 15.32C144.13 15.736 144.738 16.312 145.218 17.048C145.698 17.784 146.05 18.632 146.274 19.592C146.498 20.552 146.61 21.56 146.61 22.616ZM128.418 0.727998V35H134.898V31.832H134.994C135.73 33.208 136.818 34.184 138.258 34.76C139.698 35.336 141.33 35.624 143.154 35.624C144.402 35.624 145.634 35.368 146.85 34.856C148.066 34.344 149.154 33.56 150.114 32.504C151.106 31.448 151.906 30.104 152.514 28.472C153.122 26.808 153.426 24.84 153.426 22.568C153.426 20.296 153.122 18.344 152.514 16.712C151.906 15.048 151.106 13.688 150.114 12.632C149.154 11.576 148.066 10.792 146.85 10.28C145.634 9.768 144.402 9.512 143.154 9.512C141.618 9.512 140.13 9.816 138.69 10.424C137.282 11 136.162 11.928 135.33 13.208H135.234V0.727998H128.418ZM180.082 35V10.184H173.266V23.192C173.266 25.72 172.85 27.544 172.018 28.664C171.186 29.752 169.842 30.296 167.986 30.296C166.354 30.296 165.218 29.8 164.578 28.808C163.938 27.784 163.618 26.248 163.618 24.2V10.184H156.802V25.448C156.802 26.984 156.93 28.392 157.186 29.672C157.474 30.92 157.954 31.992 158.626 32.888C159.298 33.752 160.21 34.424 161.362 34.904C162.546 35.384 164.05 35.624 165.874 35.624C167.314 35.624 168.722 35.304 170.098 34.664C171.474 34.024 172.594 32.984 173.458 31.544H173.602V35H180.082ZM192.935 10.184V2.744H186.119V10.184H181.991V14.744H186.119V29.384C186.119 30.632 186.327 31.64 186.743 32.408C187.159 33.176 187.719 33.768 188.423 34.184C189.159 34.6 189.991 34.872 190.919 35C191.879 35.16 192.887 35.24 193.943 35.24C194.615 35.24 195.303 35.224 196.007 35.192C196.711 35.16 197.351 35.096 197.927 35V29.72C197.607 29.784 197.271 29.832 196.919 29.864C196.567 29.896 196.199 29.912 195.815 29.912C194.663 29.912 193.895 29.72 193.511 29.336C193.127 28.952 192.935 28.184 192.935 27.032V14.744H197.927V10.184H192.935ZM216.914 19.928H205.826C205.858 19.448 205.954 18.904 206.114 18.296C206.306 17.688 206.61 17.112 207.026 16.568C207.474 16.024 208.05 15.576 208.754 15.224C209.49 14.84 210.402 14.648 211.49 14.648C213.154 14.648 214.386 15.096 215.186 15.992C216.018 16.888 216.594 18.2 216.914 19.928ZM205.826 24.248H223.73C223.858 22.328 223.698 20.488 223.25 18.728C222.802 16.968 222.066 15.4 221.042 14.024C220.05 12.648 218.77 11.56 217.202 10.76C215.634 9.928 213.794 9.512 211.682 9.512C209.794 9.512 208.066 9.848 206.498 10.52C204.962 11.192 203.634 12.12 202.514 13.304C201.394 14.456 200.53 15.832 199.922 17.432C199.314 19.032 199.01 20.76 199.01 22.616C199.01 24.536 199.298 26.296 199.874 27.896C200.482 29.496 201.33 30.872 202.418 32.024C203.506 33.176 204.834 34.072 206.402 34.712C207.97 35.32 209.73 35.624 211.682 35.624C214.498 35.624 216.898 34.984 218.882 33.704C220.866 32.424 222.338 30.296 223.298 27.32H217.298C217.074 28.088 216.466 28.824 215.474 29.528C214.482 30.2 213.298 30.536 211.922 30.536C210.002 30.536 208.53 30.04 207.506 29.048C206.482 28.056 205.922 26.456 205.826 24.248Z" fill="#FFF1F2"/>
    <path d="M227.149 27.608V35H230.605C230.637 35.512 230.573 36.008 230.413 36.488C230.253 37 230.013 37.448 229.693 37.832C229.373 38.248 228.989 38.6 228.541 38.888C228.125 39.176 227.677 39.368 227.197 39.464V42.92C228.221 42.76 229.181 42.456 230.077 42.008C231.005 41.592 231.805 41.048 232.477 40.376C233.149 39.704 233.677 38.904 234.061 37.976C234.477 37.08 234.685 36.088 234.685 35V27.608H227.149Z" fill="#E11D48"/>
    <path d="M256.828 22.52C256.828 23.544 256.732 24.536 256.54 25.496C256.348 26.456 256.028 27.32 255.58 28.088C255.132 28.824 254.524 29.416 253.756 29.864C253.02 30.312 252.092 30.536 250.972 30.536C249.916 30.536 249.004 30.312 248.236 29.864C247.5 29.384 246.876 28.776 246.364 28.04C245.884 27.272 245.532 26.408 245.308 25.448C245.084 24.488 244.972 23.528 244.972 22.568C244.972 21.544 245.068 20.568 245.26 19.64C245.484 18.68 245.82 17.832 246.268 17.096C246.748 16.36 247.372 15.768 248.14 15.32C248.908 14.872 249.852 14.648 250.972 14.648C252.092 14.648 253.02 14.872 253.756 15.32C254.492 15.768 255.084 16.36 255.532 17.096C256.012 17.8 256.348 18.632 256.54 19.592C256.732 20.52 256.828 21.496 256.828 22.52ZM256.924 31.832V35H263.404V0.727998H256.588V13.208H256.492C255.724 11.992 254.668 11.08 253.324 10.472C252.012 9.832 250.62 9.512 249.148 9.512C247.324 9.512 245.724 9.88 244.348 10.616C242.972 11.32 241.82 12.264 240.892 13.448C239.996 14.632 239.308 16.008 238.828 17.576C238.38 19.112 238.156 20.712 238.156 22.376C238.156 24.104 238.38 25.768 238.828 27.368C239.308 28.968 239.996 30.392 240.892 31.64C241.82 32.856 242.988 33.832 244.396 34.568C245.804 35.272 247.436 35.624 249.292 35.624C250.924 35.624 252.38 35.336 253.66 34.76C254.972 34.152 256.028 33.176 256.828 31.832H256.924ZM284.3 19.928H273.212C273.244 19.448 273.34 18.904 273.5 18.296C273.692 17.688 273.996 17.112 274.412 16.568C274.86 16.024 275.436 15.576 276.14 15.224C276.876 14.84 277.788 14.648 278.876 14.648C280.54 14.648 281.772 15.096 282.572 15.992C283.404 16.888 283.98 18.2 284.3 19.928ZM273.212 24.248H291.116C291.244 22.328 291.084 20.488 290.636 18.728C290.188 16.968 289.452 15.4 288.428 14.024C287.436 12.648 286.156 11.56 284.588 10.76C283.02 9.928 281.18 9.512 279.068 9.512C277.18 9.512 275.452 9.848 273.884 10.52C272.348 11.192 271.02 12.12 269.9 13.304C268.78 14.456 267.916 15.832 267.308 17.432C266.7 19.032 266.396 20.76 266.396 22.616C266.396 24.536 266.684 26.296 267.26 27.896C267.868 29.496 268.716 30.872 269.804 32.024C270.892 33.176 272.22 34.072 273.788 34.712C275.356 35.32 277.116 35.624 279.068 35.624C281.884 35.624 284.284 34.984 286.268 33.704C288.252 32.424 289.724 30.296 290.684 27.32H284.684C284.46 28.088 283.852 28.824 282.86 29.528C281.868 30.2 280.684 30.536 279.308 30.536C277.388 30.536 275.916 30.04 274.892 29.048C273.868 28.056 273.308 26.456 273.212 24.248ZM299.478 26.936H292.998C293.062 28.6 293.43 29.992 294.102 31.112C294.806 32.2 295.686 33.08 296.742 33.752C297.83 34.424 299.062 34.904 300.438 35.192C301.814 35.48 303.222 35.624 304.662 35.624C306.07 35.624 307.446 35.48 308.79 35.192C310.166 34.936 311.382 34.472 312.438 33.8C313.494 33.128 314.342 32.248 314.982 31.16C315.654 30.04 315.99 28.664 315.99 27.032C315.99 25.88 315.766 24.92 315.318 24.152C314.87 23.352 314.278 22.696 313.542 22.184C312.806 21.64 311.958 21.208 310.998 20.888C310.07 20.568 309.11 20.296 308.118 20.072C307.158 19.848 306.214 19.64 305.286 19.448C304.358 19.256 303.526 19.048 302.79 18.824C302.086 18.568 301.51 18.248 301.062 17.864C300.614 17.48 300.39 16.984 300.39 16.376C300.39 15.864 300.518 15.464 300.774 15.176C301.03 14.856 301.334 14.616 301.686 14.456C302.07 14.296 302.486 14.2 302.934 14.168C303.382 14.104 303.798 14.072 304.182 14.072C305.398 14.072 306.454 14.312 307.35 14.792C308.246 15.24 308.742 16.12 308.838 17.432H315.318C315.19 15.896 314.79 14.632 314.118 13.64C313.478 12.616 312.662 11.8 311.67 11.192C310.678 10.584 309.542 10.152 308.262 9.896C307.014 9.64 305.718 9.512 304.374 9.512C303.03 9.512 301.718 9.64 300.438 9.896C299.158 10.12 298.006 10.536 296.982 11.144C295.958 11.72 295.126 12.52 294.486 13.544C293.878 14.568 293.574 15.88 293.574 17.48C293.574 18.568 293.798 19.496 294.246 20.264C294.694 21 295.286 21.624 296.022 22.136C296.758 22.616 297.59 23.016 298.518 23.336C299.478 23.624 300.454 23.88 301.446 24.104C303.878 24.616 305.766 25.128 307.11 25.64C308.486 26.152 309.174 26.92 309.174 27.944C309.174 28.552 309.03 29.064 308.742 29.48C308.454 29.864 308.086 30.184 307.638 30.44C307.222 30.664 306.742 30.84 306.198 30.968C305.686 31.064 305.19 31.112 304.71 31.112C304.038 31.112 303.382 31.032 302.742 30.872C302.134 30.712 301.59 30.472 301.11 30.152C300.63 29.8 300.23 29.368 299.91 28.856C299.622 28.312 299.478 27.672 299.478 26.936ZM326.027 6.344V0.727998H319.211V6.344H326.027ZM319.211 10.184V35H326.027V10.184H319.211ZM342.002 29.144C340.946 29.144 340.066 28.92 339.362 28.472C338.658 28.024 338.082 27.448 337.634 26.744C337.218 26.04 336.914 25.256 336.722 24.392C336.562 23.496 336.482 22.6 336.482 21.704C336.482 20.776 336.578 19.896 336.77 19.064C336.994 18.2 337.33 17.448 337.778 16.808C338.258 16.136 338.834 15.608 339.506 15.224C340.21 14.84 341.042 14.648 342.002 14.648C343.122 14.648 344.05 14.856 344.786 15.272C345.522 15.688 346.114 16.248 346.562 16.952C347.01 17.656 347.33 18.472 347.523 19.4C347.714 20.296 347.81 21.256 347.81 22.28C347.81 23.176 347.682 24.04 347.426 24.872C347.202 25.672 346.85 26.392 346.37 27.032C345.89 27.672 345.282 28.184 344.546 28.568C343.81 28.952 342.962 29.144 342.002 29.144ZM354.29 33.416V10.184H347.81V13.496H347.715C346.882 12.056 345.842 11.032 344.594 10.424C343.378 9.816 341.954 9.512 340.322 9.512C338.594 9.512 337.058 9.848 335.714 10.52C334.402 11.192 333.298 12.104 332.402 13.256C331.506 14.376 330.818 15.688 330.338 17.192C329.89 18.664 329.666 20.2 329.666 21.8C329.666 23.496 329.858 25.112 330.242 26.648C330.658 28.152 331.298 29.48 332.162 30.632C333.026 31.752 334.13 32.648 335.474 33.32C336.818 33.96 338.418 34.28 340.274 34.28C341.778 34.28 343.202 33.976 344.546 33.368C345.923 32.728 346.979 31.752 347.715 30.44H347.81V33.704C347.842 35.464 347.411 36.92 346.515 38.072C345.65 39.224 344.258 39.8 342.338 39.8C341.122 39.8 340.05 39.544 339.122 39.032C338.194 38.552 337.57 37.672 337.25 36.392H330.482C330.578 37.8 330.962 39 331.634 39.992C332.338 41.016 333.202 41.848 334.226 42.488C335.282 43.128 336.434 43.592 337.682 43.88C338.962 44.2 340.21 44.36 341.426 44.36C344.274 44.36 346.546 43.976 348.242 43.208C349.938 42.44 351.234 41.496 352.131 40.376C353.027 39.288 353.603 38.104 353.859 36.824C354.146 35.544 354.29 34.408 354.29 33.416ZM358.818 10.184V35H365.634V21.992C365.634 19.464 366.05 17.656 366.882 16.568C367.714 15.448 369.058 14.888 370.914 14.888C372.546 14.888 373.682 15.4 374.322 16.424C374.962 17.416 375.282 18.936 375.282 20.984V35H382.098V19.736C382.098 18.2 381.954 16.808 381.666 15.56C381.41 14.28 380.946 13.208 380.274 12.344C379.602 11.448 378.674 10.76 377.49 10.28C376.338 9.768 374.85 9.512 373.026 9.512C371.586 9.512 370.178 9.848 368.802 10.52C367.426 11.16 366.306 12.2 365.442 13.64H365.298V10.184H358.818Z" fill="white"/>
</svg>
